<svg xmlns="http://www.w3.org/2000/svg" xmlns:xlink="http://www.w3.org/1999/xlink" x="0px" y="0px" viewBox="0 0 400 105" style="enable-background:new 0 0 400 105;" xml:space="preserve">
	<style type="text/css">
		.wh {
			fill: #fff;
		}
	</style>
	<path
		class="wh"
		d="M26.4,25.6h19.3c5.2,0,9.3,1.2,12.2,3.5s4.4,5.6,4.4,9.9c0,5.3-2.3,9-6.8,11.1c3,0.9,5.3,2.6,7,4.9
	c1.7,2.3,2.5,5.1,2.5,8.2c0,4.9-1.6,8.6-4.8,11.3c-3.2,2.6-7.7,4-13.6,4H26.4V25.6z M34.7,47.5h9.1c3.4,0,6-0.6,7.6-1.9
	c1.6-1.3,2.4-3.3,2.4-6.1c0-2.3-0.8-4-2.3-5.1c-1.5-1.1-3.9-1.7-7-1.7h-9.7V47.5z M34.7,71.3h11.8c3.2,0,5.7-0.7,7.3-2.1
	c1.6-1.4,2.5-3.4,2.5-6.1c0-5.7-3.5-8.5-10.6-8.5h-11V71.3z M118.1,25.6h9.3l21.2,52.9h-9.3l-5.6-14.8h-22.5l-5.6,14.8h-8.8
	L118.1,25.6z M131.2,56.7l-8.7-23.1l-8.6,23.1H131.2z M180.4,25.6h16.3c5.8,0,10.4,1.5,13.8,4.4s5.1,6.9,5.1,12c0,3.2-0.8,6-2.5,8.6
	c-1.7,2.6-4,4.5-6.9,5.8l14.7,22.1h-10.2l-12.5-20.1c-1,0.1-2.2,0.2-3.5,0.2h-6v19.9h-8.4V25.6z M188.7,51.4h6.5
	c7.9,0,11.9-3.1,11.9-9.4c0-3.1-1-5.5-2.9-7c-1.9-1.6-4.8-2.4-8.6-2.4h-6.9V51.4z M270.1,32.9h-17.5v-7.3h43.6v7.3h-17.5v45.6h-8.7
	V32.9z M328,25.6h8.7v21.9h28.2V25.6h8.7v52.9h-8.7V54.7h-28.2v23.7H328V25.6z"/>
</svg>
