<svg xmlns="http://www.w3.org/2000/svg" xmlns:xlink="http://www.w3.org/1999/xlink" x="0px" y="0px" viewBox="0 0 400 156" style="enable-background:new 0 0 400 156;" xml:space="preserve">
	<style type="text/css">
		.wh {
			fill: #fff;
		}
	</style>
	<path
		class="wh"
		d="M76.4,45c0.2,1.6,0.2,3.2-0.1,4.7c-0.1,0.5-0.3,0.8-0.7,1.1c-0.6,0.4-1.3,0.6-2,0.7c-0.7,0.1-1.3-0.1-1.9-0.5
	c-0.3-0.3-0.6-0.7-0.7-1.1c-0.3-0.7-0.3-1.4-0.3-2.1c0-0.4,0-0.9,0-1.3c-0.3-2.5-1.5-4.4-3.8-5.6c-0.7-0.4-1.5-0.6-2.3-0.7
	c-0.8-0.1-1.6-0.2-2.3-0.2c-1.6-0.1-3,0.4-4.3,1.3c-1.2,0.8-2.1,1.8-2.5,3.2c-0.3,0.8-0.7,1.6-0.8,2.5c-0.3,1.5-0.3,3.1,0.2,4.5
	c0.2,0.8,0.6,1.5,0.9,2.2c0.6,1.2,1.2,2.3,1.9,3.4c0.5,0.8,1.1,1.4,1.7,2.1c1.5,1.9,3.3,3.6,4.9,5.4c1,1.2,2,2.4,3,3.6
	c1.2,1.4,2,3.1,2.8,4.8c0.4,0.8,0.7,1.7,1,2.6c0.2,0.9,0.4,1.8,0.5,2.7c0.1,0.6,0,1.2-0.1,1.7c-0.2,1.6-0.5,3.1-0.8,4.7
	c-0.2,0.8-0.6,1.6-1,2.4c-0.4,0.8-0.8,1.6-1.3,2.3c-0.4,0.7-1.1,1.3-1.7,1.9c-0.8,0.7-1.6,1.3-2.4,2c-0.2,0.2-0.4,0.3-0.6,0.4
	c-1,0.5-2,1.2-3.1,1.5c-1.1,0.3-2.1,0.7-3.2,0.8c-0.9,0.1-1.9,0.3-2.8,0.4c-0.6,0.1-1.1,0-1.7,0c0,0,0,0.1,0,0.1
	c-1.4-0.1-2.8-0.2-4.3-0.3c-1.6-0.1-3.1-0.5-4.6-1c-0.6-0.2-1.2-0.6-1.7-1c-2.2-1.3-3.8-3.1-5.2-5.1c-0.8-1.2-1.1-2.6-1.5-4
	c-0.2-1-0.5-1.9-0.6-2.9c-0.1-0.8,0-1.5,0-2.3c0-0.1,0-0.2,0-0.4c-0.1-1.2,0.1-2.3,0.4-3.5c0.3-1.2,0.6-2.5,0.9-3.7
	c0.2-0.6,0.6-1,1.1-1.3c1.1-0.6,2.2-0.4,3.3-0.1c0.6,0.2,1.2,0.9,1.2,1.7c0,1-0.2,2-0.5,3c-0.2,0.7-0.3,1.3-0.3,2
	c-0.1,1.5,0,3,0.3,4.5c0.3,1.5,0.8,3,1.7,4.3c0.6,0.9,1.3,1.7,2.1,2.4c1.1,0.8,2.2,1.7,3.5,2c0.6,0.2,1.2,0.1,1.8,0.2
	c1.9,0.3,3.7,0,5.5-0.1c0.2,0,0.4-0.1,0.6-0.2c1-0.3,2-0.6,2.8-1.2c0.2-0.2,0.4-0.4,0.6-0.6c0.5-0.5,1-1,1.5-1.6
	c1-1.3,1.7-2.8,2.1-4.5c0.2-0.9,0.4-1.8,0.5-2.8c0.1-0.6,0-1.2-0.1-1.8c-0.1-0.8-0.2-1.6-0.4-2.4c-0.2-0.7-0.4-1.3-0.7-1.9
	c-0.6-1.4-1.4-2.6-2.5-3.7c-0.5-0.5-0.9-1-1.3-1.6c-0.5-0.7-1.2-1.4-1.8-2c-0.5-0.5-1-1-1.5-1.6c-0.6-0.7-1.2-1.3-1.8-2
	c-1.2-1.2-2.3-2.5-3.3-3.9c-0.7-1-1.5-1.9-1.9-3.1c-0.5-1.3-1-2.7-1.4-4.1c-0.2-0.6-0.1-1.3-0.2-2c-0.2-2,0-4,0.6-5.9
	c0.5-1.6,1.2-3.2,2.4-4.5c0.9-1.1,1.8-2.1,3.1-2.8c2-1,4.1-1.9,6.3-2.3c0.2,0,0.4-0.1,0.6-0.1c1,0,2-0.1,3-0.1
	c1.4,0,2.8,0.1,4.2,0.4c1.4,0.3,2.6,1,3.8,1.7c0.6,0.4,1.1,0.7,1.6,1.1c0.9,0.7,1.5,1.6,2.2,2.5c0.5,0.7,1,1.5,1.2,2.4
	C76.2,43.5,76.3,44.3,76.4,45z M350,113.9c-0.4,0-1.2,0-1.9,0.8V114h-1.6v7h1.6v-3.4c0-2.3,0.7-2.4,1.5-2.4c0.6,0,1.3,0.1,1.3,1.8
	v3.9h1.6v-4.3c0-1.1-0.2-1.6-0.4-1.9C351.8,114.5,351.3,113.9,350,113.9z M334.6,86.9c-4.5,5.2-9.6,10.2-14.5,12.5
	c-1.3,0.6-2.1,1.4-2.5,2.8c-0.4,1.4-0.9,2.8-1.2,4.2c-0.7,2.7-1.8,5.2-3,7.7c-1.1,2.2-2.7,3.9-4.7,5.2c-3.2,2.1-6.7,2.6-10.3,1.2
	c-2.2-0.8-3.7-2.5-4-4.9c-0.5-3.5,0.6-6.6,3-9.1c2.7-2.9,6.1-4.8,9.8-6.4c1.3-0.5,2.6-1.1,3.8-1.7c0.8-0.4,1.7-1.5,2-2.4
	c0.8-2.8,1.7-5.7,2.6-8.5c0.2-0.6,0.3-1.2,0.5-1.8c0,0-0.1,0-0.1-0.1c-0.7,1-1.5,1.9-2.2,2.9c-1.4,2-3.2,3.7-5.2,5.1
	c-2,1.4-4.1,2.3-6.6,2.5c-2.4,0.2-4.5-0.3-6.3-1.8c-1.3-1-1.7-2.5-1.8-4c-0.1-1.7,0-3.5,0-5.1c-0.5,0.7-1.1,1.6-1.7,2.5
	c-1.4,2-3,3.8-5,5.3c-1.9,1.4-4,2.6-6.6,2.6c-3.5,0-5.4-2.4-5.8-5.5c-0.2-1.3,0-2.7,0-4.3c-0.3,0.3-0.4,0.5-0.5,0.7
	c-1.2,1.7-2.3,3.4-3.6,4.9c-2.5,2.7-5.5,4.6-9.3,4.7c-5.3,0.1-8.1-2.8-8.9-8c-0.1-0.7-0.2-1.3-0.3-2.1c-0.9,1.2-1.6,2.5-2.5,3.5
	c-2.2,2.6-4.6,5-8.2,5.7c-4.6,1-7.3-2.4-7.8-5.4c-0.2-1.3-0.3-2.6-0.4-4c-0.2,0.2-0.3,0.4-0.4,0.6c-0.7,1.1-1.4,2.2-2.2,3.3
	c-1.5,2.1-3.5,3.5-5.5,5c-1.3,1-3,1.1-4.5,1.4c-2.5,0.4-4.8-0.3-6.7-2.1c-2-1.9-2.7-4.4-3-7c0-0.2,0-0.3,0-0.5c0,0,0,0-0.1-0.1
	c-0.7,0.5-1.4,1-2.2,1.6c-2.1,1.5-4.5,2.3-7.1,2.3c-0.7,0-1.4-0.2-2.1-0.4c-0.9-0.2-1.7-0.1-2.4,0.6c-2.8,3.1-6.2,5-10.2,5.6
	c-3.5,0.5-6.9,0-9.8-2.4c-0.3-0.2-0.5-0.5-0.7-0.7c-0.5-0.4-1-0.3-1.2,0.3c-0.2,0.6-0.4,1.3-0.5,1.9c-0.8,3.6-1.6,7.3-2.4,10.9
	c-0.5,2.6-0.9,5.1-1.4,7.7c-0.3,1.8-0.7,3.7-1,5.5c-0.2,0.9-0.9,1.5-1.7,1.6c-1.2,0.1-2.3,0.1-3.5,0c-1.3-0.2-2.1-1.3-1.8-2.6
	c0.6-3.2,1.3-6.3,1.9-9.5c0.5-2.6,0.9-5.3,1.5-7.9c0.8-3.7,1.7-7.3,2.6-11c0.5-2.1,1.1-4.1,1.6-6.2c0-0.1,0-0.3,0.1-0.5
	c-0.1,0.1-0.2,0.1-0.2,0.2c-1.2,2.3-3,4.2-4.6,6.1c-1.4,1.7-3,3.1-4.8,4.2c-2.3,1.5-4.8,2.2-7.5,2.5c-2.3,0.3-4.5,0.4-6.8-0.1
	c-0.8-0.2-1.6-0.4-2.3-0.7c-3.6-1.5-6.1-4-7.3-7.8c-0.3-0.9-0.4-1.8-0.7-2.8c-0.2,0.2-0.3,0.4-0.4,0.5c-2.2,2.9-4.5,5.7-7.5,7.9
	c-1.8,1.3-3.8,2.2-6,2.6c-1.8,0.3-3.7,0.6-5.5,0.6c-2.6,0-5-0.5-7.4-1.8c-3.6-2.1-5.5-5.2-6.3-9.1c-0.1-0.6-0.2-1.2-0.3-2
	c-0.3,0.4-0.5,0.7-0.6,0.9c-1.8,3.3-4.1,6.1-7,8.5c-0.9,0.8-2.1,1.2-3.1,1.8c-2.5,1.2-5.1,1.9-7.9,1.4c-3.4-0.6-5.8-2.3-6.6-6
	c-0.3-1.6-0.7-3.2-0.8-4.8c-0.1-1.6,0.2-3.2,0.3-4.8c0.2-3.4,1-6.7,1.7-10c0.5-2.4,1.2-4.7,1.8-7.1c1.2-5.1,3.2-9.9,5.3-14.6
	c1.3-3,2.8-6,4.9-8.6c1.8-2.2,3.9-4,6.5-5.1c1.9-0.8,5.5-0.5,7.2,1.5c1.7,2.2,2.6,4.6,2.4,7.5c-0.2,3.6-1.3,6.8-2.9,10
	c-1.9,3.8-6,9.3-9,12.3c-1.2,1.2-2.3,2.3-3.6,3.4c-1.3,1-2.6,1.9-4.1,2.7c-1.8,1-2.9,2.5-3.1,4.6c-0.2,2.3-0.6,4.5-0.6,6.8
	c0,1.6,0.1,3.2,0.7,4.7c0.6,1.7,1.9,2.3,3.6,2.4c1.8,0.1,3.5-0.5,4.9-1.6c2.2-1.7,4.3-3.6,5.8-6.1c1.2-2.1,2.3-4.3,3.8-6.2
	c1.4-1.7,1.8-3.7,2.7-5.6c1.7-3.9,4.3-7,7.8-9.6c2.4-1.8,6.9-3.6,9.9-3.8c3.2-0.2,6.2,0.5,8.8,2.8c1.5,1.2,2.2,2.9,2.3,4.8
	c0.4,4.5-1.2,8.4-4.8,11.3c-2,1.6-4.3,2.6-6.9,3c-3.5,0.6-6.9,0.5-10.4-0.4c-0.9-0.2-1.4,0-1.4,0.9c-0.1,1.9-0.3,3.7,0.4,5.6
	c1,2.7,2.9,4.3,5.7,4.7c5.2,0.8,9.6-1,13.5-4.4c2.3-2,3.8-4.5,5.3-7.1c1-1.7,1.4-3.6,2-5.4c0.5-1.5,1.2-3,1.9-4.4
	c2-3.8,5-6.6,8.6-8.8c2.7-1.6,5.7-2.8,9-2.6c2.5,0.2,5.1,0.6,7.2,2.2c2.4,1.9,3.2,4.4,3,7.3c-0.2,3-1.4,5.7-3.3,7.9
	c-0.9,1.1-2,2-3.4,2.5c-1.1,0.4-2.2,1.2-3.4,1.5c-2.3,0.6-4.7,1.1-7.1,0.7c-1.7-0.3-3.4-0.5-5.2-0.7c-0.6-0.1-1.1,0.3-1.1,0.9
	c-0.1,1.9-0.3,3.7,0.4,5.6c1,2.7,2.9,4.3,5.7,4.8c4.4,0.7,8.3-0.6,11.9-3.1c3.1-2.2,5.1-5.2,6.9-8.4c0.6-1.1,1.1-2.2,1.7-3.3
	c0.6-1.1,0.9-1.2,2.2-1.1c0.5-1.7,1.1-3.4,1.6-5.1c0.9-3.2,1.8-6.3,2.7-9.5c0.2-0.9,0.8-1.4,1.6-1.6c1.2-0.3,2.4-0.3,3.5,0
	c1.8,0.6,1.9,1.5,1.7,3.1c-0.1,0.4-0.2,0.8-0.3,1.4c0.9-0.7,1.7-1.4,2.6-2c3.2-2.3,6.8-3.8,10.8-3c1.3,0.3,2.6,0.7,3.7,1.3
	c2.2,1.3,3.5,3.3,4.1,5.8c1,4.4,0.7,8.7-0.5,13c-0.7,2.5-1.7,4.9-2.9,7.2c-0.3,0.5,0,0.9,0.6,0.9c1,0,2-0.1,3-0.3
	c2.7-0.8,4.8-2.6,6.4-5c0.4-0.5,0.5-1.3,0.6-1.9c1.3-4.8,3.3-9.2,6.7-12.9c1.4-1.5,2.8-2.9,4.5-4c2.9-1.7,5.8-3.2,9.3-3.5
	c2-0.2,4-0.3,5.9,0.2c0.8,0.2,1.2-0.1,1.5-0.9c0.7-2.1,1.3-4.1,2-6.2c1.1-3.3,2.3-6.7,3.5-10c0.7-1.9,1.5-3.7,2.4-5.5
	c0.5-1.2,1.8-1.9,3-1.7c1,0.1,1.9,0.4,2.8,0.7c0.8,0.2,1.2,1.1,0.9,1.9c-0.4,1.3-1,2.6-1.4,4c-1.9,5.2-3.9,10.4-5.6,15.7
	c-1.5,4.7-2.9,9.4-4.2,14.2c-0.7,2.7-1.3,5.4-1.8,8.2c-0.4,2.7-1.3,5.3-0.7,8.1c0.1,0.4,0.2,0.8,0.3,1.2c0.3,1.2,1.5,1.9,2.7,1.6
	c1.8-0.4,3-1.7,4-3c1.8-2.5,3.5-5.1,4.9-7.9c1.8-3.6,3.4-7.4,5.9-10.6c2.3-3.1,5.1-5.7,8.4-7.6c2.1-1.2,4.3-2.4,6.7-2.7
	c2-0.2,4.1-0.2,6.1-0.2c1.4,0.1,2.8,0.3,4.2,0.6c2.2,0.5,4.1,1.5,5.9,2.8c2,1.5,1.4,3.4-0.1,4.6c-1.1,0.8-1.6,0.8-2.7,0
	c-1.8-1.2-3.9-2-6-2.6c-2-0.5-3.9-0.5-5.8,0c-3.7,1-6.6,3.1-9.1,6.1c-1.5,1.8-2.7,3.7-3.6,5.7c-0.7,1.5-1.2,3.1-1.7,4.7
	c-0.7,2.3-0.9,4.6-0.6,6.9c0.3,2.9,2.1,4.4,5.1,3.4c1.8-0.6,3-1.8,4.2-3.2c1.9-2.2,3.5-4.6,5-7.1c2.1-3.6,3.5-7.5,4.6-11.5
	c0.6-2.2,2.6-2.5,4.2-1.9c0.6,0.2,1.2,0.6,1.7,0.9c0.6,0.4,0.9,1.1,0.7,1.7c-1.5,5.2-2.9,10.4-3.9,15.8c-0.2,0.9-0.3,1.8-0.3,2.8
	c-0.1,2.1,1.4,2.6,3,2.2c1.1-0.3,2.2-1,3-1.8c1.5-1.6,3-3.3,4.2-5.2c1.5-2.3,2.7-4.8,4-7.1c0.2-0.3,0.5-0.5,0.7-0.8
	c0.2-0.2,0.4-0.4,0.5-0.6c0.8-2.1,1.5-4.3,2.2-6.5c0.7-2.4,1.3-4.9,2-7.3c0.3-1.1,1.2-1.8,2.3-1.9c0.9-0.1,1.8-0.1,2.7,0
	c1.1,0.1,2,0.8,1.7,2.2c-0.5,2-0.9,4.1-1.4,6.1c-0.3,1.4-0.7,2.8-1,4.2c-0.5,2-1.3,4-1.7,6.1c-0.7,3.4-2,6.7-2,10.2
	c0,0.5,0.1,1,0.2,1.5c0.3,1.2,1.7,1.7,3.2,1.5c0.8-0.1,1.6-0.4,2.2-0.9c3.1-2.2,5.5-5,7.5-8.3c0.4-0.6,0.6-1.3,1-2
	c0.3-0.6,0.7-1.2,1-1.8c1.1-2.8,2.2-5.6,3.2-8.5c0.9-2.9,1.7-5.8,2.5-8.7c0.3-1.1,1-1.8,2.3-1.9c1.2-0.1,2.3-0.1,3.4,0.3
	c0.8,0.3,1.3,1,1.2,1.8c0,0.4-0.1,0.8-0.2,1.2c-1,3.6-2.1,7.2-3.1,10.9c-1.3,4.5-2.5,9.1-3.7,13.6c-0.6,2.2-1.1,4.5-1.6,6.7
	c-0.2,0.9-0.1,1.4,1.1,1c1.8-0.6,5-3.8,6.4-5c0,0,2.8-2.9,7-8.3l0.3-0.5c0,0,0.1,0.1,0.1,0.1c3.2-4.2,7.1-9.7,11.3-16.6
	c0,0,3-6.1,5.1-5.9c2,0.2,3,1.9,2.1,3.8c-0.2,0.5-0.6,1-0.7,1.5c-0.1,0.8-0.2,1.7,0.1,2.5c0.9,2.8,1.8,5.6,2.8,8.3
	c0.9,2.4,2,4.7,2.8,7.2c0,0,0.4,1.3,0.7,3.3c1.3-0.5,2.5-1.1,3.6-2c0,0,1.5-1.9,2.2-1.6c1.6,0.7,0,2.7,0,2.7s-2.1,1.7-5.6,3.2
	c0,2.4-0.4,5.1-1.8,7.3c-1.5,2.1-2.7,2.8-5,3.8C352.2,98.1,341.5,101.9,334.6,86.9z M145.2,75.7c1.5,0.2,3,0.3,4.5,0.5
	c1.6,0,3.2-0.4,4.5-1.1c3.1-1.6,5-4.3,5.6-7.8c0.1-0.6,0.1-1.3-0.2-1.9c-0.5-1.4-2.4-2.4-4-2.2c-1.7,0.3-3.2,0.8-4.6,1.8
	c-3.2,2.4-5.3,5.7-6.6,9.5C144.3,75.2,144.5,75.6,145.2,75.7z M112.1,75.7c3.9,0.8,7.8-0.1,7.8-0.1c2.9-0.9,4.8-2.9,6.1-5.6
	c0.5-1,0.7-2.1,0.9-3.2c0.2-2-1.9-3.8-4.2-3.5c-1.8,0.2-3.5,0.9-4.9,2c-3.1,2.4-5.1,5.5-6.3,9.2C111.1,75.3,111.3,75.6,112.1,75.7z
	 M86.1,68c0.1,0,0.2,0.1,0.2,0.1c0.5-0.4,1-0.8,1.5-1.3c1.7-1.7,3.4-3.4,4.8-5.4c2.6-3.6,5-7.2,6.3-11.6c0.5-1.7,1.1-3.4,1.4-5.1
	c0.2-1,0-2.2-0.2-3.2c-0.2-1-1.5-1.4-2.3-0.8c-0.7,0.5-1.3,1.1-1.8,1.7c-1.7,2.2-2.9,4.7-3.9,7.2c-1.4,3.5-2.6,7.1-3.9,10.7
	c-0.7,2.1-1.3,4.2-1.9,6.3C86.2,67.2,86.2,67.6,86.1,68z M193.4,63.7c-1.4-0.2-2.7,0.1-4,0.5c-1.9,0.7-3.8,1.5-5.4,2.8
	c-1.3,1-2.5,2.1-3.1,3.8c-0.6,2.1-1.3,4.1-1.8,6.2c-0.8,3-1.5,6.1-2.3,9.1c-0.2,0.7-0.2,1.4,0.4,2.1c2,2.2,4.5,2.9,7.3,2.7
	c1.9-0.1,3.6-0.7,5.2-1.9c1.3-1,2-1.3,1-3.2c-0.7-1.4-0.5-2.6,0.6-3.4c0.5-0.4,1.3-0.6,2-0.7c1.1-0.2,1.7-0.7,2.1-1.7
	c0.6-2,1.3-4,1.8-6C200.8,64.4,193.4,63.7,193.4,63.7z M235.8,64c-0.4,0-0.8,0-1.2,0c0,0,0-0.1,0-0.1c-1.3,0.2-2.6,0.4-3.8,0.8
	c-3,0.7-5.2,2.8-7.2,5.1c-2,2.2-3.3,4.8-4.3,7.6c-1.3,3.4-1.8,6.8-1,10.3c0.3,1.4,1.2,2.4,2.6,2.9c1.9,0.7,3.6-0.2,4.9-1.4
	c2.7-2.4,4.7-5.3,6.2-8.6c0.4-0.9,0.8-1.9,1.2-2.9c1.7-3.9,2.8-8.1,3.7-12.2C237.1,64.5,236.7,64,235.8,64z M310.4,103.9
	c-1.9,0.6-4,2.1-4,2.1c-1.7,1.2-3.3,2.4-4.5,4.1c0,0-2.4,3-0.8,4.7c1,1.1,2.5,1.3,3.9,0.5c1.4-0.8,2.2-2.1,3-3.3
	C309.9,108.1,310.4,103.9,310.4,103.9z M352.3,89c-3.5,0.6-7.5,0.5-11.8-1c-0.4-0.1-0.7,0.2-0.5,0.6c1.7,3.3,6.7,6,8.9,5.2
	C351.1,92.7,352,90.9,352.3,89z M339.2,83.5c0,0,6.4,2.4,13.1,2.3c-0.2-1.7-0.7-2.9-0.7-2.9c-1.5-4.3-3-8.6-4.5-12.9
	c0,0-3.8,6.2-9.3,13C338.6,83.3,339.2,83.5,339.2,83.5z M356,114.9c-0.5,0.5-1.1,1.4-1.1,2.7c0,1.3,0.5,2.1,1,2.6
	c0.7,0.7,1.5,1,2.7,1c1.1,0,1.7-0.3,2.1-0.5v-1.8c-0.6,0.6-1.3,0.9-2,0.9c-0.6,0-1.1-0.2-1.5-0.6c-0.3-0.3-0.6-0.9-0.6-1.7
	c0-0.8,0.3-1.3,0.6-1.6c0.3-0.3,0.8-0.6,1.5-0.6c0.5,0,1.2,0.1,2,0.9v-1.8c-0.7-0.4-1.4-0.5-1.9-0.5
	C357.5,113.9,356.6,114.3,356,114.9z M364.4,119.2c-0.5,0-1,0.4-1,1c0,0.5,0.4,1,1,1c0.5,0,1-0.4,1-1
	C365.4,119.7,364.9,119.2,364.4,119.2z M341.5,121h1.7V110h-1.7V121z"/>
</svg>
