<svg xmlns="http://www.w3.org/2000/svg" viewBox="0 0 400 74"><defs><style>.wh{fill:#fff;}</style></defs><title>logo_two_w</title><path class="wh" d="M219.86,1.55l-24,69.81H183L161.49,7.24l-.72.77a16.91,16.91,0,0,0-3,5.49L136,71.35h-7.3L107.29,13c-1.06-2.85-2.2-4.7-3.49-5.65s-3.35-1.42-6.26-1.42h-2.6V1.55h33.15V5.92h-6a9.45,9.45,0,0,0-4.51.78,3.18,3.18,0,0,0-1.54,3,12.85,12.85,0,0,0,.82,4.27l17.35,47.25L151.85,14.1a13.68,13.68,0,0,0,1-4.59,3,3,0,0,0-1.64-2.85,11,11,0,0,0-4.77-.74H141V1.55h30.31l18.39,57.66L208.47,1.55ZM311,37a37.59,37.59,0,0,1-5.61,20.17A34.08,34.08,0,0,1,290,70.42a40,40,0,0,1-15.69,3.36h0a33.83,33.83,0,0,1-13.78-2.93,32.43,32.43,0,0,1-10.79-7.95A35.48,35.48,0,0,1,243,51.2,42.32,42.32,0,0,1,240.6,37,42.51,42.51,0,0,1,243,22.71,35.21,35.21,0,0,1,249.75,11a31.6,31.6,0,0,1,10.79-7.9A34.15,34.15,0,0,1,274.32.22a39.46,39.46,0,0,1,18.24,4.63A33.81,33.81,0,0,1,306.9,19.5,38.12,38.12,0,0,1,311,37ZM300.79,37c0-9.47-2.35-17.13-7-22.78a24.71,24.71,0,0,0-19.49-9.39V9.17a21.2,21.2,0,0,0-9.74,2.37,20.1,20.1,0,0,0-7.12,6.35,27.85,27.85,0,0,0-4,9,40.35,40.35,0,0,0,0,20.32,28.12,28.12,0,0,0,4,9,20.29,20.29,0,0,0,7.12,6.35,21.36,21.36,0,0,0,9.74,2.37v4.35a24.52,24.52,0,0,0,19.49-9.39C298.44,54.12,300.79,46.44,300.79,37ZM68.85,1.55H0V28.2H4.18a63.7,63.7,0,0,1,.87-8.77c1-5.31,3-9,6-10.81S18.05,6,23.52,6H34.2V58.6c0,3.64-.48,5.9-1.46,6.9S29.58,67,26.07,67H20v4.36H44.86V11.94h24ZM354.26,26.28h2.62V7.08a20.56,20.56,0,0,0-2.41,3.38,11.7,11.7,0,0,1-5,4.36,21.26,21.26,0,0,1-7.43,1.61v9.85h12.2ZM400,61.11V73.78H367.69V63.94h-.4c-3.37,0-5.91-1-7.56-2.89-2.64-3.09-2.15-7.7-2.07-8.34A60.43,60.43,0,0,1,367.8,43.9q9.93-7.11,12.87-10.2a15.06,15.06,0,0,0,4.49-10.5,11.66,11.66,0,0,0-2.57-7.72,9.09,9.09,0,0,0-7.37-3.08q-6.57,0-8.94,4.9c-.91,1.88-1.45,4.88-1.61,9h-7v-20q6-6,16.85-6,11.63,0,18.5,6.43t6.87,17A23,23,0,0,1,395,38.15q-3.18,4.18-10.46,9.33l-5.77,4.09q-5.42,3.84-7.41,5.56a16.23,16.23,0,0,0-3.35,4ZM366.9,73.78h-17a34.29,34.29,0,0,1,3.38-14.38,21.31,21.31,0,0,1,2.48-4.31c.33-.45.68-.9,1-1.35a16.88,16.88,0,0,0,.06,1.93,10.43,10.43,0,0,0,2.29,5.89c1.73,2,4.34,3.1,7.77,3.17Z"/></svg>
