<svg xmlns="http://www.w3.org/2000/svg" x="0px" y="0px" viewBox="0 0 640 640">
	<g>
		<g>
			<path
				d="M510.7,354.5c0-0.1,0-0.1,0-0.2l-0.2-2.4l-0.3-2.3l-0.4-2.1c0-0.1,0-0.1,0-0.2l-0.6-2.2l-0.6-1.9c0-0.1,0-0.1-0.1-0.2
			l-0.8-2l-0.8-1.8c0-0.1-0.1-0.1-0.1-0.2l-1.1-1.8l-1.1-1.6c0-0.1-0.1-0.1-0.1-0.2l-1.2-1.4c-0.1-0.1-0.1-0.1-0.2-0.2l-1.3-1.3
			c0,0-0.1-0.1-0.1-0.1l-1.4-1.2c-0.1-0.1-0.2-0.1-0.3-0.2l-0.6-0.4c-0.1-0.1-0.3-0.2-0.4-0.3l-0.4-0.3c-0.1-0.1-0.3-0.2-0.4-0.2
			l-13.1-8.6c0,0-0.1,0-0.1-0.1l-0.2-0.1c-0.1-0.1-0.2-0.2-0.3-0.2l-16.1-10.5c-0.1-0.1-0.2-0.2-0.3-0.3l-0.2-0.1l-0.1-0.2l0.5-17.8
			c0-0.1,0-0.2,0-0.3l0-2l-0.2-6.6c1-3.3,2.4-7.3,3.7-10.8c5-13.6,10.6-29,5.8-37.8c-1.7-3.1-4.5-5.2-8.4-6.1
			c-0.8-0.2-1.8-0.4-2.8-0.5l-0.1-4.5c8.3-2.9,22-24.3,32.1-41.9c0-0.1,0.1-0.2,0.1-0.3c3-7-0.8-25.1-4.7-31.7
			c-0.1-0.4-0.2-0.9-0.4-1.5c-2.6-10-6-22-9.7-25.7c-2.9-2.9-13.2-12.2-23.5-9.3c-0.1,0-5.8,1.6-13.5,4.1
			c-1.2-13.5-5.4-22.8-12.3-27.7c-6-4.3-14-5.1-23.1-2.5c-3.4,1-11.9,4.9-21.9,9.7l-20.3-11.7c-0.1-0.1-0.2-0.1-0.4,0
			s-0.2,0.2-0.2,0.3V105c-28.6-0.1-53.9-10.8-61.7-26.2c7.9-15.4,33.4-26.2,62.1-26.2c0.2,0,0.4-0.2,0.4-0.4V32.4
			c0-0.2-0.2-0.4-0.4-0.4c-36,0-65.3,16.5-65.3,36.8v19.8c0,12.2,10.5,23,26.7,29.7c-4.1,0.3-7.5,0.3-8.9,0.3
			c-14.3-6.5-21.5-6.9-27.3-7.2h-0.1c-1.1-0.1-2.2-0.1-3.3-0.2c-6.8-0.6-17,7.5-20.3,10.3c-3.6-1.1-11.8-3.3-15.4-2.3
			c-4.7,1.3-27.7,19.4-36.6,28.3c-4.4,4.4-12.7,10.8-21.4,17.5c-10,7.7-20.2,15.6-26.6,22c-11.4,11.4-39.5,29.2-39.8,29.4
			c-0.6,0.4-1,0.9-1.1,1.6c-0.1,0.7,0,1.3,0.3,1.9c0.5,0.7,1.3,1.2,2.1,1.2c0.5,0,0.9-0.1,1.3-0.4c1.2-0.7,28.8-18.2,40.7-30.1
			c6.1-6.1,16.3-14,26.1-21.5c8.9-6.8,17.3-13.3,21.9-17.9c9.9-9.9,31.3-26.2,34.4-27c1.9-0.5,8.7,1,13.9,2.7
			c0.8,0.3,1.8,0.1,2.4-0.5c4.6-4.1,13.4-10.4,17.5-10c1.2,0.1,2.4,0.2,3.6,0.3c5.7,0.3,12.2,0.7,26,7c0.3,0.1,0.7,0.2,1.1,0.2
			c0.6,0,11.3,0,21.1-1.5c8.1,2.1,17.1,3.3,26.6,3.3v19.9c0,0.1,0.1,0.2,0.2,0.3c0.1,0,0.1,0,0.2,0s0.1,0,0.2,0l52.3-30.2
			c0.1-0.1,0.2-0.2,0.2-0.3c0-0.1-0.1-0.2-0.2-0.3l-26.7-15.4c8.2-3.9,15.3-7.1,18-7.9c5.3-1.5,12.8-2.5,18.8,1.8
			c5.9,4.2,9.4,12.7,10.3,25.3c-11.5,3.9-26.4,9.5-32.7,14.4c-9.6,7.5-19.6,11.3-22.8,11c-0.7-0.1-1.3,0.2-1.8,0.6
			c-0.5,0.4-0.8,1.1-0.9,1.7c-0.1,0.7,0.2,1.3,0.6,1.8c0.4,0.5,1.1,0.8,1.7,0.9c4.8,0.4,16-4,26.3-12.1c6.3-4.9,23.3-11,32.9-14.2
			c0,0,0.1,0,0.1,0c6.8-2.3,12.9-4.1,16.4-5.1c7.7-2.1,16.2,5.6,18.6,8c2.2,2.2,5,10,8.4,23.4c0.2,0.9,0.4,1.6,0.5,2
			c0.1,0.2,0.2,0.4,0.3,0.7c3.4,5.4,6.6,22,4.6,27.2c-16.6,28.8-24.7,36.6-27.8,38.7l-1.1-34.5c0,0,0-0.1,0-0.1c0-0.1,0-0.1,0-0.2
			l-0.6-3.7c0-0.1-0.1-0.3-0.1-0.4l-0.2-0.4c10-4.7,16.1-9.6,18.1-14.7c0.2-0.6,0.2-1.3,0-1.9c-0.3-0.6-0.8-1.1-1.4-1.3
			s-1.3-0.2-1.9,0c-0.6,0.3-1.1,0.8-1.3,1.4c-2.6,6.6-16.4,13.1-28.5,17c-9.3,3-17.5,7.9-22.4,13.6c-0.1,0.1-0.2,0.2-0.2,0.3
			c-11.8,18.7-40.2,34.8-40.5,35c-0.7,0.4-1.1,1-1.2,1.7c-0.5,1.9-8.2,12.6-20.1,28c-0.1,0.1-0.2,0.2-0.2,0.3
			c-3.8,4.9-7.9,10.2-11.8,15.1c-0.4,0.5-0.6,1.2-0.5,1.9c0.1,0.7,0.4,1.3,0.9,1.7c0.4,0.3,1,0.5,1.6,0.5c0.8,0,1.5-0.3,2-1
			c2.3-2.8,5.7-7.2,9.5-12.1c4.3,4.5,13.9,5.5,17,5.5c4.6,0,34.4-12.4,39.1-19.6c3-4.7,23.1-18.5,41.3-17.2c0.2,0,0.4,0.1,0.6,0.1
			c1.4,0.1,2.8,0.3,4,0.6c2.4,0.6,4.1,1.7,5.1,3.6c3.7,6.8-1.8,21.7-6.1,33.7c-1.2,3.2-2.4,6.6-3.4,9.6c-0.5,0.5-0.7,1.2-0.7,1.8
			l0,0.5c-0.7,2.4-1.1,4.4-1.3,6c-0.9,10-6.2,16.6-16.6,20.8c-1.8,0.7-5,1.7-9,3c-10.6,3.4-26.7,8.6-42.3,16.1
			c-0.4,0.1-0.8,0.3-1.1,0.5c-3.7,1.8-7,3.5-10.1,5.3c-13.1,7.5-29.5,13.1-50.1,17.2c-0.2,0-0.3,0.1-0.5,0.1
			c-10.6,2.1-22.3,3.8-36.9,5.3c-31.6,3.4-56.1,2.3-62.8,1.5c-1.3-0.1-2.5-0.4-3.7-0.6c-4.4-0.9-9.3-1.8-20.6,0.7
			c-14.3,3.2-58.6,26.9-60.5,27.9c-0.6,0.3-1,0.8-1.2,1.5c-0.2,0.6-0.1,1.3,0.2,1.9c0.4,0.8,1.3,1.3,2.2,1.3c0.4,0,0.8-0.1,1.2-0.3
			c0.5-0.2,45.7-24.5,59.2-27.5c10.3-2.3,14.5-1.5,18.5-0.6c1.3,0.3,2.7,0.5,4.2,0.7c6.9,0.7,31.9,1.9,63.9-1.5
			c13.7-1.5,24.8-3,34.9-4.9l1.7,16.1l1.6,13.2l1.7,13.2l1.8,13.2l1.9,13.1l2.1,13.1l2.2,13.1l2.3,13l2.3,13.1l5.2,25.8l4.8,29.6
			l1.7,9.5l1.1,4.9l1.3,4.9l1.5,4.9l1.7,4.9l1.8,5l1.9,4.9l4.1,9.7c0.1,0.3,0.3,0.6,0.5,0.8l0.5,0.6c0.1,0.1,0.2,0.3,0.4,0.4
			l0.6,0.5c0.2,0.1,0.3,0.2,0.5,0.3l0.8,0.4c0.2,0.1,0.3,0.1,0.5,0.2l1,0.2c0.1,0,0.2,0,0.4,0l1.2,0.1c0.1,0,0.1,0,0.2,0l2.7-0.1
			c0.1,0,0.1,0,0.2,0l1.6-0.2l3.6-0.7l0.4-0.1c0,0.1,0,0.1,0,0.2c0,0.4,0.1,0.7,0.2,1.1l7.3,16.5c0.3,0.7,1,1.3,1.7,1.4l3.9,0.9
			l0.4,0.9c0.2,0.6,0.7,1,1.2,1.3l2.5,1.2c0.2,0.1,0.4,0.2,0.7,0.2l0.9,0.1c0.1,0,0.3,0,0.4,0l1.5,0c0.1,0,0.2,0,0.4,0l2.2-0.3
			l2.5-0.6l2.9-0.8l3.1-1l3.3-1.2l3.4-1.3l3.5-1.5l3.5-1.6l3.3-1.6l3.1-1.7l4.7-2.6l1.7-1.1c0.1-0.1,0.2-0.1,0.2-0.2l1.6-1.3
			c0.1-0.1,0.1-0.1,0.2-0.2l1.4-1.4c0.1-0.1,0.1-0.1,0.1-0.2l1.3-1.5c0.2-0.3,0.4-0.6,0.5-0.9l0.8-2.6c0.2-0.6,0.1-1.2-0.1-1.8
			l-0.4-0.9l1.9-3.5c0.4-0.7,0.4-1.5,0.1-2.2l-7.3-16.5c-0.1-0.2-0.2-0.4-0.4-0.6c-0.1-0.2-0.2-0.3-0.4-0.5l1.6-1.1
			c0.1,0,0.1-0.1,0.2-0.1l3.4-2.9c0.1,0,0.1-0.1,0.2-0.1l1.3-1.3c0.1-0.1,0.1-0.1,0.2-0.2l1-1.3c0.1-0.1,0.2-0.3,0.3-0.5l0.5-1.3
			c0.1-0.3,0.2-0.5,0.2-0.8l0.1-1.8c0-0.3,0-0.6-0.1-0.9l-3.6-12.5l-1.5-6.2l-0.6-3l-0.5-2.9l-0.4-2.8l-0.5-5.5l-0.3-7.6l0.1-3.7
			c0-0.1,0-0.1,0-0.1l4.9-30.3l2.2-15.4l1.8-14.1l0.7-0.3l4.6-2.6l2.3-1.5l4.5-3.2c0,0,0.1-0.1,0.1-0.1l4.5-3.7l4.4-4.1l4.2-4.5
			l4.2-4.8l3.9-5.1l3.7-5.3l3.4-5.5l3-5.6l2.8-5.7l2.3-5.7l2-5.7l1.5-5.5c0-0.1,0-0.1,0-0.2l1.1-5.4l0.4-2.7l0.3-2.7l0.2-2.6
			l0.1-2.5L510.7,354.5z M460,309.7l2-2.3c0.1-0.1,0.1-0.2,0.2-0.3l0.5-0.7l0,1.8l-0.2,0.1c0,0-0.1,0.1-0.1,0.1L460,309.7z
			 M394.1,582.6l4.7-1.4l5.1-1.7l7-2.7l9.5-4.1l4.7-2.2l4.6-2.2l4.4-2.3l3.9-2.2l3.5-2.1l-0.6,0.6l-1.7,1.3l-2.3,1.6l-2.7,1.7
			l-3.1,1.8l-3.3,1.8l-3.6,1.8l-3.7,1.8l-7.6,3.2l-3.7,1.4l-3.5,1.2l-3.3,1l-2.9,0.8l-2.6,0.6l-2.1,0.4L394.1,582.6L394.1,582.6z
			 M395.4,587.6l2.4-0.4l2.9-0.6l3.1-0.9l3.5-1.1l3.6-1.3l3.9-1.5l7.8-3.3l3.8-1.8l3.7-1.9l3.5-1.9l3.2-1.9l2.9-1.8l2.5-1.7l1.9-1.5
			c0.1-0.1,0.1-0.1,0.2-0.2l0.4-0.3l4.9,11.1L447,581l-1.4,1.4l-1.8,1.4l-1.8,1.3l-4.9,2.8l-3.1,1.7l-3.3,1.6l-6.9,3.1l-6.8,2.6
			l-3.1,1l-2.8,0.8l-2.5,0.6l-1.9,0.3l-1.5,0.1h-0.4l-4.8-1.1l-4.9-11C395.2,587.6,395.3,587.6,395.4,587.6z M440.7,556.1l-5.1,3.1
			l-4.1,2.3l-4.2,2.2l-4.4,2.2l-4.6,2.1l-9.3,4l-6.8,2.6l-4.9,1.7l-6.6,1.9l-5.5,1.3l-2.9,0.4l-2.4,0.1l-0.8,0l-0.6-0.1l-0.3-0.1
			l-0.2-0.2l-0.3-0.4c0,0,0,0,0,0l-3.9-9.2l-1.9-4.7l-1.8-4.9l-1.6-4.7L367,551l-1.3-4.7l-1-4.7l-1.7-9.4l-2.8-16.9l1,1
			c0.1,0.1,0.2,0.1,0.2,0.2l3.1,2.3c0.1,0.1,0.2,0.1,0.2,0.2l3.6,2.1c0.1,0,0.1,0.1,0.2,0.1l4,1.9c0.1,0,0.1,0.1,0.2,0.1l4.3,1.6
			c0.1,0,0.1,0,0.2,0.1l4.8,1.3l4.8,1c0.1,0,0.1,0,0.2,0l5.2,0.6l5.1,0.3c0.1,0,0.1,0,0.2,0l5.3-0.1l5.1-0.4c0.1,0,0.1,0,0.2,0
			l5-0.7c0.1,0,0.1,0,0.2,0l5-1.1l4.6-1.3c0.1,0,0.1,0,0.2-0.1l4.3-1.6c0.1,0,0.2-0.1,0.2-0.1l4-2c0.1,0,0.1-0.1,0.2-0.1l3.6-2.2
			c0.1,0,0.1-0.1,0.2-0.1l3.2-2.3c0.1-0.1,0.2-0.1,0.3-0.2l2.7-2.6c0.1-0.1,0.2-0.2,0.2-0.3l0.7-0.9l0.1,1.4l0.6,5.8l0.4,3l0.6,3.1
			l0.7,3.1l1.6,6.4l1.8,6.3l0,0l1.6,5.5c0,0.3,0,0.6,0.1,0.8l0,0.6l-0.1,0.3l-0.7,1l-1.1,1.1l-3.2,2.7L440.7,556.1z M444.5,461.2
			l-0.5,0.6l-2,2l-1,1.2c-0.1,0.1-0.1,0.2-0.2,0.2l-1,1.4c-0.1,0.1-0.2,0.3-0.2,0.4l-0.7,1.6c0,0.1-0.1,0.2-0.1,0.3l-0.4,1.5
			c0,0.1,0,0.1,0,0.2l-0.5,2.7l-0.2,1.1l-0.5,1.1l-0.3,0.4l-0.3,0.3l-0.2,0.1l0,0l-0.1-1.2c0-0.2,0-0.3-0.1-0.5l-0.3-1.1
			c-0.1-0.2-0.1-0.4-0.3-0.6l-0.3-0.5c-0.1-0.2-0.2-0.3-0.4-0.5l-0.3-0.3c-0.2-0.2-0.5-0.4-0.8-0.5l-0.5-0.2
			c-0.3-0.1-0.6-0.2-0.9-0.2l-0.8,0c-0.2,0-0.4,0-0.6,0.1l-4.3,1.3l-2.7,0.5l-1.2,0l-0.1,0l0.8-0.6l1.4-0.7l3.2-1.3l6-2.6
			c0.1,0,0.1-0.1,0.2-0.1l2.9-1.5l2.7-1.6l2.6-1.6L444.5,461.2z M449.9,450.8l-0.3,0c-0.4,0-0.8,0.2-1.1,0.3l-0.3,0.2
			c-0.1,0.1-0.2,0.1-0.3,0.2l-0.7,0.6c-0.1,0.1-0.1,0.1-0.2,0.2l-1.5,1.5l-1.7,1.6l-2,1.6l-2.1,1.5l-2.4,1.5l-2.5,1.5l-2.7,1.4
			l-2.9,1.3l-6.3,2.6c-0.1,0-0.1,0.1-0.2,0.1l-1.6,0.8c-0.1,0.1-0.2,0.1-0.3,0.2l-1.5,1.1c-0.1,0.1-0.2,0.1-0.3,0.2l-0.6,0.6
			c-0.1,0.1-0.2,0.2-0.3,0.3l-0.5,0.6c-0.1,0.2-0.2,0.3-0.3,0.5l-0.3,0.7c-0.1,0.3-0.2,0.7-0.2,1v0.7c0,0.4,0.1,0.7,0.2,1.1l0.3,0.5
			c0.1,0.3,0.3,0.6,0.6,0.8l0.5,0.4c0.1,0.1,0.3,0.2,0.4,0.3l0.5,0.3c0.2,0.1,0.3,0.2,0.5,0.2l0.7,0.2c0.2,0.1,0.3,0.1,0.5,0.1
			l1.5,0.2c0.1,0,0.2,0,0.3,0l1.5,0c0.1,0,0.3,0,0.4,0l3.1-0.5c0.1,0,0.2,0,0.3-0.1l2.9-0.9l0.3-0.1l0.1,0.6l-0.1,1.2
			c0,0.1,0,0.2,0,0.3l0.1,1.2c0,0.3,0.1,0.6,0.2,0.8l0.2,0.5c0.2,0.4,0.5,0.7,0.8,1l0.4,0.3c0.3,0.2,0.5,0.3,0.9,0.4l0.5,0.1
			c0.4,0.1,0.8,0.1,1.2,0l0.6-0.2c0.2-0.1,0.4-0.1,0.6-0.2l1.3-0.7c0.1,0,0.1-0.1,0.2-0.1l1.2-0.8c0.1-0.1,0.3-0.2,0.4-0.3l0.6-0.5
			c0.1-0.1,0.2-0.2,0.3-0.3l0.5-0.7c0.1-0.1,0.2-0.3,0.2-0.4l0.7-1.6c0.1-0.2,0.1-0.3,0.2-0.5l0.8-4.2l0.3-1.2l0.5-1.2l0.7-1.1
			l0.8-1l2-2c0.1-0.1,0.1-0.1,0.2-0.2l0.6-0.9l-0.9,6.4l-4.9,30.6l-0.2,1l-1,2.6l-1.4,2.5l-1.9,2.5l-2.4,2.3l-3,2.2l-3.4,2.1
			l-3.8,1.9l-4.1,1.6l-4.4,1.3l-4.8,1l-4.8,0.7l-4.9,0.4l-5,0.1l-4.9-0.3l-4.9-0.6l-4.6-0.9l-4.5-1.2l-4.1-1.5l-3.8-1.8l-3.4-1.9
			l-2.9-2.2l-2.4-2.3l-1.9-2.4l-1.3-2.4l-0.8-2.4l-5.3-26.3l-2.3-13l-2.2-13l-2.1-13l-2-13.1l-1.9-13.1l-1.8-13.1l-1.7-13.2
			l-1.6-13.2l-1.7-16.5c20.2-4.1,36.4-9.8,49.6-17.4c3.1-1.7,6.4-3.5,10-5.2l5.7-0.1l6.4-0.4c0.1,0,0.1,0,0.2,0l6.4-0.8l6.2-1.1
			l6.1-1.5l3.8-1.2l-16.6,10l-25.6,15.1l-11.3,6.9l-5.2,3.3l-4.9,3.3l-2.2,1.7c0,0-0.1,0.1-0.1,0.1l-2,1.8c-0.1,0.1-0.1,0.1-0.2,0.2
			l-1.7,1.9c-0.1,0.1-0.1,0.1-0.2,0.2l-0.8,1c-0.1,0.1-0.1,0.2-0.2,0.3l-0.6,1.1c-0.1,0.1-0.1,0.2-0.2,0.3l-0.5,1.3
			c-0.1,0.2-0.1,0.3-0.1,0.5l-0.2,1.4c0,0.1,0,0.3,0,0.4l0,1.5c0,0.1,0,0.3,0,0.4l0.3,1.6c0,0.1,0.1,0.3,0.1,0.4l1.2,3.4
			c0,0.1,0.1,0.1,0.1,0.2l1.6,3.3c0,0.1,0.1,0.1,0.1,0.2l2,3.3l2.2,3.3l2.4,3.1l2.5,3l5.2,5.7l5.5,5.3l2.9,2.5l3,2.4l3,2.3l6.2,4.3
			l3.2,1.9l3.2,1.6c0.1,0,0.1,0.1,0.2,0.1l2.9,1.2l5.5,3.6c0.1,0,0.1,0.1,0.2,0.1l14.2,9.3c0.1,0,0.1,0.1,0.1,0.1l1.5,1
			c0.1,0.1,0.2,0.1,0.3,0.2l1.9,0.8l1.7,0.6c0.1,0,0.1,0.1,0.2,0.1l2,0.5l1.9,0.4c0.1,0,0.1,0,0.2,0l1.9,0.2c0.1,0,0.1,0,0.2,0
			l2.1,0.1l2.1-0.1c0.1,0,0.1,0,0.2,0l2.1-0.3l2.2-0.4l2.2-0.5c0.1,0,0.1,0,0.2-0.1l2.2-0.7l0.9-0.3l-0.8,6.7
			C450.3,450.8,450.1,450.8,449.9,450.8z M467.6,317.9c-0.1,0-0.2,0-0.3,0l-4,0.9c-0.1,0-0.2,0-0.3,0.1l-2.8,1l6-4
			c0.1,0,0.1-0.1,0.2-0.1l0.4-0.4l3.6,2.3L467.6,317.9z M464.5,323.7l3.7-0.8l3.5-0.3l3.3,0.1l2.9,0.6l2.7,1l1.6,1l2.3,1.5l-2.8,0.3
			c-0.1,0-0.2,0-0.3,0.1l-4,0.9c-0.1,0-0.1,0-0.2,0.1l-4.1,1.4c-0.1,0-0.1,0.1-0.2,0.1l-4.2,1.8c-0.1,0-0.1,0.1-0.2,0.1l-4.3,2.4
			l0.2,0.3l-0.2-0.3c0,0-0.1,0-0.1,0l-4.3,2.8c-0.1,0-0.1,0.1-0.2,0.1l-4.4,3.3l-4.4,3.7l-4.3,4.1l-4.1,4.4l-4,4.7l-3.7,5l-3.6,5.2
			l-3.2,5.3l-3,5.5l-2.6,5.5l-2.3,5.6l-1.9,5.6l-1.5,5.3c0,0.1,0,0.1,0,0.2l-1.1,5.3l-0.7,5c0,0.1,0,0.1,0,0.2l-0.3,4.8
			c0,0.1,0,0.1,0,0.2l0.1,4.5c0,0.1,0,0.2,0,0.2l0.5,4.2c0,0.1,0,0.2,0.1,0.3l0.9,3.9c0,0.1,0.1,0.2,0.1,0.3l0.5,1.4l-2.4-1.6
			l-0.7-0.4l-2.1-1.9l-1.8-2.3l-1.5-2.7l-1.2-3.1l-0.9-3.6l-0.5-3.9l-0.1-4.4l0.3-4.5l0.7-4.8l1.1-5l1.4-5.2l1.8-5.3l2.2-5.3
			l2.5-5.3l2.8-5.2l3.1-5.1l3.4-5l3.6-4.8l3.7-4.6l4-4.2l4.1-3.9l4.2-3.6l4.1-3.1l4.2-2.7l4.1-2.3l4-1.8L464.5,323.7z M432.3,338.8
			l-4.2,4.4l-3.9,4.8l-3.8,5l-3.5,5.2l-3.2,5.3l-3,5.5l-2.6,5.5l-2.3,5.6l-1.9,5.6l-1.5,5.4l-1.1,5.2c0,0.1,0,0.1,0,0.2l-0.7,5
			c0,0.1,0,0.1,0,0.2l-0.3,4.7c0,0.1,0,0.1,0,0.2l0.1,4.6c0,0.1,0,0.2,0,0.2l0.5,4.2c0,0.1,0,0.2,0.1,0.3l0.9,3.9
			c0,0.1,0.1,0.2,0.1,0.3l0.5,1.4l-5.6-3.7c-0.1-0.1-0.3-0.2-0.4-0.3l-3.9-2.6l-3.7-2.9l-3.6-3l-1.8-1.6l-6.3-6.3l-4.3-4.7l-4-5
			l-1.7-2.6l-1.7-2.6l-1.4-2.6l-0.6-1.3l-0.4-1.2l-0.2-1l0-1l0.1-0.8l0.2-0.7l0.7-1.2l1.2-1.3l1.5-1.3l1.7-1.3l3.9-2.5l4.3-2.6
			l42.5-23.4l11.7-6.6l8-4.6l-2,1.7L432.3,338.8z M448.8,439.7l-2,0.6l-1.9,0.4l-2,0.3l-1.9,0.3l-1.8,0.1l-1.8-0.1l-1.7-0.2
			l-1.6-0.3l-1.7-0.5l-1.5-0.5l-1.5-0.7l-1.9-1.2l-2.1-1.9l-1.8-2.3l-1.5-2.7l-1.2-3.2l-0.9-3.6l-0.5-3.9l-0.1-4.3l0.3-4.6l0.7-4.8
			l1.1-5.1l1.4-5.1l1.8-5.3l2.2-5.3l2.5-5.3l2.9-5.3l3.1-5.1l3.4-5l3.6-4.8l3.8-4.5l3.9-4.3l4-3.9l4.1-3.5l4.2-3.2l4.2-2.7l4.1-2.3
			l4-1.8l3.9-1.3l3.7-0.8l3.5-0.3l3.2,0.1l2.9,0.6l4,1.8l1.3,0.8l1.2,1l1.2,1.1l1.1,1.2l0.9,1.4l1,1.6l0.8,1.6l0.7,1.8l0.5,1.7
			l0.5,2l0.3,1.9l0.3,2.1l0.2,2.2l0.1,2.2l-0.2,4.8l-0.2,2.4l-0.4,2.5l-1,5.2l-1.4,5.2l-1.9,5.5l-2.2,5.4l-2.6,5.5l-2.9,5.3
			l-3.2,5.3l-3.5,5.1l-3.7,4.9l-4,4.6l-4.1,4.3l-4.2,3.9l-4.3,3.6l-4.3,3.1l-2.1,1.3l-4.3,2.4l-1.3,0.6c-0.3,0.1-0.6,0.2-0.8,0.4
			l-2,0.8L448.8,439.7z M437.7,316.7c4.1-1.3,7.3-2.4,9.2-3.1c1-0.4,2-0.8,2.9-1.3l-1.1,0.8l-4,2.7l-4.4,2.4l-5,2.3l-5.2,2l-5.4,1.7
			l-5.8,1.4l-6,1.1l-4.9,0.6C419.3,322.7,430.2,319.1,437.7,316.7l-0.2-0.3L437.7,316.7z M417.8,246.8c-3.5,5.4-31.1,17.3-34.9,17.4
			c-4.7,0-12.5-1.8-13.9-4.6c11.4-14.8,18.1-24.2,19.9-28c1.2-0.7,3.6-2.1,6.8-4.2l1.4,0l6.5-0.3l6.4-0.7l6.2-1l6.1-1.4l5.8-1.7
			l5.4-1.9c0.1,0,0.1,0,0.2-0.1l5.1-2.2c0.1,0,0.1-0.1,0.2-0.1l1.9-1c-0.6,5.3-1,10.3-1.4,15.1C429.2,236.3,420.4,242.9,417.8,246.8
			z M436.7,213.4l-4.9,2.1l-5.2,1.9l-5.6,1.7l-5.8,1.3l-5.9,1l-5.7,0.6c3.1-2.2,6-4.5,8.7-6.8l2.8-0.6l4.9-1.4l4.9-1.9l4.3-1.9
			l4.1-2.4l3.6-2.6l3.1-2.8l2.7-3l2.1-3.3l1.5-3.4l0.9-3.5l0.2-3.8c1-0.4,2-0.7,3-1.1c2.1-0.7,5.3-1.8,8.9-3.2l0.5,3.1l0,3.2
			l-0.5,3.2l-1,3.3l-1.6,3.2l-2.1,3.2l-2.6,3.1l-3.2,2.9l-3.6,2.9l-4.1,2.6L436.7,213.4z M442.3,187.4l-0.7,2.7l-1.2,2.6l-1.7,2.6
			l-2.3,2.6l-2.7,2.5l-3.2,2.3l-3.6,2.1l-4,1.8l-2.3,0.9c4-4.1,7.3-8.1,9.8-12c2.9-3.2,7-6.2,11.9-8.6L442.3,187.4z M448.1,212.5
			c0.1,0,0.1-0.1,0.2-0.1l3.8-3c0.1,0,0.1-0.1,0.2-0.1l3.3-3.1c0.1-0.1,0.1-0.1,0.2-0.2l2.8-3.3c0.1-0.1,0.1-0.2,0.2-0.2l1.6-2.4
			l0.8,27.2c-4,0-8.2,0.5-12.5,1.5c-0.8-7.5-1.7-12.8-2.1-15.4L448.1,212.5z"/>
			<path
				d="M456.1,426.1l3.4-1.4c0.1,0,0.2-0.1,0.2-0.1l3.5-1.9c0.1,0,0.1-0.1,0.2-0.1l3.5-2.3c0.1,0,0.1-0.1,0.2-0.1l3.5-2.7
			c0.1,0,0.1-0.1,0.2-0.1l3.4-3.1c0,0,0.1-0.1,0.1-0.1l3.4-3.6l3.2-3.8c0,0,0.1-0.1,0.1-0.1l3-4.2l2.7-4.4l2.4-4.5l2.1-4.4
			c0-0.1,0.1-0.1,0.1-0.2l1.7-4.4c0-0.1,0-0.1,0.1-0.2l1.3-4.3c0-0.1,0-0.1,0-0.2l1-4.3c0-0.1,0-0.2,0-0.2l0.5-4.1
			c0-0.1,0-0.2,0-0.2l0.1-3.8c0-0.1,0-0.2,0-0.3l-0.2-3.5l0,0c0-0.1,0-0.3-0.1-0.4l-0.7-3.2c0-0.1-0.1-0.2-0.1-0.3l-1.1-2.8
			c-0.1-0.2-0.1-0.3-0.2-0.4l-1.5-2.4c-0.1-0.1-0.2-0.2-0.3-0.4l-1.8-2c-0.1-0.1-0.3-0.3-0.5-0.4l-2.2-1.5c-0.2-0.1-0.3-0.2-0.5-0.3
			l-2.5-0.9c-0.2-0.1-0.3-0.1-0.5-0.1l-2.8-0.4c-0.2,0-0.3,0-0.4,0l-3,0.1c-0.1,0-0.3,0-0.4,0l-3.2,0.6c-0.1,0-0.2,0.1-0.4,0.1
			l-3.3,1.2c-0.1,0-0.1,0.1-0.2,0.1l-3.5,1.6c-0.1,0-0.2,0.1-0.2,0.1l-3.5,2.1c-0.1,0-0.1,0.1-0.2,0.1l-3.6,2.6l-3.5,2.9
			c-0.1,0-0.1,0.1-0.1,0.1l-3.4,3.4c0,0-0.1,0.1-0.1,0.1l-3.3,3.8l-3.1,4l-2.9,4.2l-2.6,4.4l-2.3,4.5l-1.9,4.4c0,0.1,0,0.1-0.1,0.2
			l-1.5,4.4c0,0.1,0,0.1-0.1,0.2l-1.2,4.3c0,0.1,0,0.1,0,0.2l-0.8,4.1c0,0.1,0,0.2,0,0.2l-0.3,3.9c0,0.1,0,0.2,0,0.3l0.1,3.7
			c0,0.1,0,0.2,0,0.3l0.5,3.4c0,0.1,0,0.2,0.1,0.3l0.9,3c0,0.1,0.1,0.3,0.2,0.4l1.3,2.6c0.1,0.1,0.2,0.3,0.3,0.4l1.6,2.1
			c0.1,0.1,0.2,0.3,0.4,0.4l2,1.7c0.2,0.1,0.3,0.2,0.5,0.3l2.4,1.2c0.2,0.1,0.3,0.1,0.5,0.2l2.6,0.7c0.2,0,0.3,0.1,0.5,0.1l2.9,0.2
			h0.1c0.1,0,0.2,0,0.3,0l3.1-0.3c0.1,0,0.3,0,0.4-0.1l3.3-0.9C455.9,426.2,456,426.2,456.1,426.1z M464.1,416.1l-3.4,2.2l-3.3,1.8
			l-3.1,1.3l-2.9,0.8l-2.7,0.3l-2.4-0.1l-2.1-0.6l-1.9-0.9l-1.6-1.3l-1.3-1.7l-1.1-2.2l-0.8-2.6l-0.4-3l-0.1-3.4l0.3-3.7l0.7-3.9
			l1.1-4.1l1.5-4.2l1.8-4.2l2.1-4.2l2.5-4.2l2.7-4l2.9-3.8l3.1-3.6l3.3-3.2l3.3-2.8l3.3-2.5l3.3-2l3.2-1.5l3-1.1l2.8-0.5l2.6-0.1
			l2.3,0.3l2,0.7l1.7,1.1l1.5,1.6l1.2,2l0.9,2.4l0.6,2.8l0.2,3.2l-0.1,3.6l-0.5,3.8l-0.9,4.1l-1.3,4.2l-1.6,4.3l-2,4.2l-2.3,4.2
			l-2.6,4.1l-2.9,4l-3,3.6l-3.2,3.4l-3.2,3L464.1,416.1z"/>
		</g>
	</g>
	<g>
		<g>
			<path
				d="M32,85.5c0-4.9,0.6-9.7,1.9-14.2c1.3-4.6,3.1-8.8,5.4-12.8c2.3-4,5.1-7.6,8.3-10.8c3.3-3.3,6.9-6.1,10.8-8.4
			c4-2.3,8.2-4.1,12.8-5.4c4.6-1.3,9.3-1.9,14.2-1.9s9.7,0.6,14.2,1.9c4.6,1.3,8.8,3.1,12.8,5.4c4,2.3,7.6,5.1,10.8,8.4
			c3.3,3.3,6,6.9,8.3,10.8c2.3,4,4.1,8.2,5.4,12.8c1.3,4.6,1.9,9.3,1.9,14.2c0,4.9-0.6,9.7-1.9,14.2c-1.3,4.6-3.1,8.8-5.4,12.8
			c-2.3,4-5.1,7.6-8.3,10.8c-3.3,3.3-6.9,6-10.8,8.3c-4,2.3-8.2,4.1-12.8,5.4c-4.6,1.3-9.3,1.9-14.2,1.9s-9.7-0.6-14.2-1.9
			c-4.6-1.3-8.8-3.1-12.8-5.4c-4-2.3-7.6-5.1-10.8-8.3c-3.3-3.3-6-6.9-8.3-10.8c-2.3-4-4.1-8.2-5.4-12.8C32.6,95.2,32,90.4,32,85.5z
			 M37,85.5c0,4.4,0.6,8.7,1.7,12.9c1.2,4.1,2.8,8,4.9,11.6c2.1,3.6,4.6,6.9,7.6,9.8c3,3,6.2,5.5,9.8,7.6c3.6,2.1,7.4,3.7,11.6,4.9
			c4.1,1.2,8.4,1.7,12.9,1.7c4.5,0,8.8-0.6,12.9-1.7c4.1-1.2,8-2.8,11.6-4.9c3.6-2.1,6.8-4.6,9.8-7.6c2.9-3,5.5-6.2,7.6-9.8
			c2.1-3.6,3.7-7.5,4.9-11.6c1.2-4.1,1.7-8.4,1.7-12.9c0-4.5-0.6-8.8-1.7-12.9c-1.2-4.1-2.8-8-4.9-11.6c-2.1-3.6-4.6-6.9-7.6-9.8
			c-2.9-3-6.2-5.5-9.8-7.6c-3.6-2.1-7.4-3.7-11.6-4.9c-4.1-1.2-8.4-1.7-12.9-1.7c-4.5,0-8.8,0.6-12.9,1.7c-4.1,1.2-8,2.8-11.6,4.9
			c-3.6,2.1-6.9,4.6-9.8,7.6c-3,3-5.5,6.2-7.6,9.8c-2.1,3.6-3.7,7.4-4.9,11.6C37.5,76.7,37,81,37,85.5z M99.3,99
			c1.2,0,2.1,0.3,2.7,1c0.7,0.7,1,1.6,1,2.7v6.7H68.4v-3.7c0-0.7,0.1-1.5,0.4-2.3c0.3-0.8,0.8-1.6,1.5-2.3l13.1-14.3
			c1.1-1.2,2.2-2.4,3.1-3.5s1.8-2.2,2.6-3.3c0.7-1.1,1.3-2.1,1.7-3.2c0.4-1.1,0.6-2.2,0.6-3.4c0-1.8-0.5-3.2-1.6-4.2
			c-1-1-2.5-1.5-4.3-1.5c-1.3,0-2.5,0.4-3.6,1.2c-1.1,0.8-1.9,2-2.3,3.8c-0.3,1-0.9,1.6-1.7,2c-0.8,0.4-1.9,0.5-3.3,0.2l-5.8-1.4
			c0.4-2.6,1.1-4.8,2.2-6.7c1.1-1.9,2.4-3.5,4-4.7c1.6-1.3,3.3-2.2,5.3-2.8c2-0.6,4-0.9,6.2-0.9c2.4,0,4.5,0.4,6.5,1.1
			c2,0.8,3.7,1.8,5.1,3.1c1.4,1.3,2.5,2.9,3.3,4.7c0.8,1.8,1.2,3.8,1.2,5.9c0,1.8-0.3,3.6-1,5.1c-0.6,1.6-1.5,3.1-2.5,4.5
			c-1,1.4-2.1,2.8-3.4,4.1c-1.2,1.3-2.5,2.7-3.7,4l-8.5,9.5c1.3-0.4,2.5-0.7,3.7-1c1.2-0.2,2.4-0.4,3.4-0.4H99.3z"/>
		</g>
	</g>
</svg>
