<svg xmlns="http://www.w3.org/2000/svg" x="0px" y="0px" viewBox="0 0 640 640">
	<g>
		<g>
			<path
				d="M607.9,89.8c-0.5-1.8-6-11.6-60.5-32.4c-30.6-11.7-68-24.4-72-18.4c-0.8,1.2-25.6,65.8-46.2,119.7c-0.3,0.6-0.3,1.3-0.2,2
			c0.3,1.6,1.7,3.1,4.4,4.8c0.2,2.3,0.8,5.6,2.1,8.1l-8,21.2l-2.1-0.8c-1.3-0.5-2.7,0.2-3.2,1.5l-2.4,6.3c-0.1,0-0.1,0-0.2,0
			c0,0-0.1,0-0.2,0.1c-0.1,0-0.2,0.1-0.2,0.1c0,0-0.1,0.1-0.1,0.1l0.2,0.3l-0.3-0.2c-0.1,0-0.1,0.1-0.2,0.1s-0.1,0.1-0.1,0.1
			l0.3,0.3l-0.3-0.2c0,0-0.1,0.1-0.1,0.1c-0.1,0.1-0.1,0.1-0.1,0.2l0.3,0.2l-0.4-0.1c0,0-0.1,0.1-0.1,0.1c0,0.1-0.1,0.1-0.1,0.2
			l0.3,0.1l-0.4,0c0,0,0,0.1-0.1,0.2c0,0,0,0,0,0c-1.2,3.6-5.1,14.3-6.9,19.1c-2.1-0.7-3.4-1.1-3.7-1.2c-1.3-0.4-2.6,0.3-3.1,1.6
			c-0.3,0.9-32.3,94.1-54,178.6c-1.9,6.6-5.5,22.5-8.6,36.6c-2.5,11.3-4.9,22-5.8,25c-1.3,4.1-2.3,9.4-3.2,14.1
			c-0.6,3.3-1.3,6.4-1.9,8.7c-0.1,0.4-10.5,40.5-10.5,47.8v25.6c0,3.2,1.3,11.3,13.2,17.2l0.8,8.2c0,0.1,0,0.2,0.1,0.4
			c0.1,0.2,1.4,5.2,6.5,9.8c3.8,3.4,10.9,7.5,22.9,7.5c1.8,0,3.7-0.1,5.7-0.3c10.1-1.1,18.3-5.6,23.3-12.5c3.3-4.6,4.8-10,4.2-15.2
			c2.5-1.4,4.7-3,6.6-4.7c5-4.3,6.7-10.9,6.7-15.2c0-5,0.7-16.5,3.4-24c2.3-6.4,24.2-49.4,37.4-75.1l0.5-0.9
			c4.6-9,8.3-16.2,10.1-19.8c0.6-1.3,1.7-3.5,3.2-6.3c3.3-6.5,8.4-16.7,14.4-28.8c1.4,0.3,3.1,0.4,4.8,0.4c4.8,0,12.9-1.1,24.5-6.5
			c20.7-9.6,35.6-30.5,39.8-55.9c3.9-23.4-7.9-44.6-15.3-50.9c2.4-5.7,4.1-10,5-13c0.4-1.2-0.2-2.5-1.3-3c-1.1-0.5-2.2-1-3.4-1.5
			l5.1-12.8c0,0,0-0.1,0.1-0.1c0,0,0-0.1,0.1-0.2l1.8-4.6c0,0,0-0.1,0.1-0.1c0-0.1,0.1-0.2,0.1-0.3l2.5-6.3
			c1.6-3.8-0.3-7.9-1.6-10.1c2.2-5.8,7-18.7,7.7-20.6l0,0c1.7-0.6,3.2-1.3,4.4-2.1c0,0,0,0,0,0c1.2,0.4,3,0.8,4.7,0.8
			c2.1,0,3.6-0.7,4.2-2.1c0.8-1.7,40.8-107.2,45.4-119.2C608,90.9,608.1,90.3,607.9,89.8z M510.9,49.8c9.9,3.2,21.6,7.3,34.7,12.3
			c44.7,17,54.9,26.1,57.1,28.7c-14.1,37.2-41.3,108.7-44.5,116.9c-0.1,0-0.3,0-0.5,0c0,0,0,0,0,0c0-0.1,0-0.2,0-0.2
			c0-0.1,0-0.2,0-0.2c0-0.1,0-0.2,0-0.2c0-0.1,0-0.2,0-0.2c0-0.1,0-0.2-0.1-0.2c0-0.1,0-0.1-0.1-0.2c0-0.1-0.1-0.1-0.1-0.2
			c0-0.1-0.1-0.2-0.1-0.2c0,0-0.1-0.1-0.1-0.1c-0.5-0.6-3.4-3.9-15.6-9.2c-4.6-2-45.4-19.4-75.3-29.6
			C471.8,156.4,496.8,105.9,510.9,49.8z M501.4,65.5c-9.5,32.7-21.8,61.9-31.1,81.8C479.6,112.1,492,83.9,501.4,65.5z M506.5,193.9
			l-11.2,29.5c-9.6-3.6-40.8-15.3-62.1-21.9l11.2-29.2C448.8,173.3,463.1,177.3,506.5,193.9z M529.2,241.6c-1.6,0.7-3,0.7-4.3,0.1
			c-10.6-4.7-27.8-12-48.3-19.9c11.1,4,19.2,7.1,19.3,7.2c0.6,0.2,1.3,0.2,1.9-0.1c0.6-0.3,1.1-0.8,1.3-1.4l3.8-10.1l0.9,0.3
			c0.2,0.1,0.5,0.1,0.7,0.2c1.3,0.1,5.9,0.3,11.9,0.3c7.4,0,18-0.4,26.6-2.4c-3,8-6.6,17.7-7.3,19.6
			C535.2,236.8,532.5,240.2,529.2,241.6z M460.9,165.1c-11.8-3.9-19.9-5.8-24.1-5.8c-0.6,0-1.1,0-1.5,0.1c-0.1,0-0.1,0-0.2,0.1
			l0.1,0.3l-0.2-0.3c-0.1,0-0.1,0-0.2,0.1c-0.1,0-0.1,0-0.2,0.1l0.2,0.3l-0.3-0.3c-0.1,0-0.1,0.1-0.2,0.1c0,0-0.1,0.1-0.1,0.1
			l0.2,0.3l0,0l0,0c-0.1-0.1-0.2-0.2-0.3-0.2c11.4-29.9,41.3-108,45.1-117.3c1.7-0.1,8,0.1,25.9,5.6
			C497.9,60.6,474,104.2,460.9,165.1z M538.3,243c-0.6,1.5-2.7,2.3-4.4,2.7l-0.9-0.4c2-1.2,3.9-2.9,5.4-4.8
			C538.6,241.5,538.6,242.3,538.3,243z M539.6,201.1c6.4,2.7,9.9,4.8,11.9,6.2c-8.1,5.8-31.6,6.3-44.8,5.7
			c1.4-3.6,6.3-16.6,8.4-22.1C523.4,194.3,531.9,197.8,539.6,201.1z M415.9,224.1l0.4-1c36.4,11.8,70.6,25.9,92,35.1
			C468.7,241.7,431.8,229.3,415.9,224.1z M418,218.4c0.7-2,1.5-4.1,2.2-6c53.5,17.4,102.6,39.5,112.7,44.1l-2.4,6.1
			C520.3,257.9,471.4,235.8,418,218.4z M421.9,207.7l0.1-0.2c53.4,17.4,102.7,39.5,112.9,44.2l-0.1,0.2
			C524.5,247.1,475.2,225,421.9,207.7z M500.4,347.1c0.3-4.9,0.5-9.4,2.2-12.8c1.4-3,4.4-5.1,7.6-7.3c3.4-2.4,6.9-4.9,8.7-8.7
			c3.8-8.1,7.1-15.3,9.8-21.4c8.3,18.7,9.9,34-4.9,60.7c-11.4,20.6-30.2,27.5-38.5,29.7c4.3-8.7,8.5-17.2,12.4-25.1
			C499.8,357.7,500.1,352.3,500.4,347.1z M507.2,322.8c-3.5,2.5-7.2,5.1-9.2,9.2c-2.1,4.3-2.4,9.6-2.6,14.7
			c-0.3,4.7-0.5,9.6-2.2,13.1c-13.6,27.7-26.7,53.7-33,66.2l-0.9,1.8c-1,1.9-1.7,3.5-2.2,4.5c-1.9,3.8-5.7,11.2-10.5,20.7l-0.1,0.2
			c-8,15.6-17.9,35-25.6,50.5c-6.9-1.8-39.9-10.7-82.2-30.8c0.7-3.6,1.4-6.2,2-8.3c1-3.2,3.3-13.4,5.9-25.3l0-0.1
			c3.1-14,6.7-29.9,8.6-36.4c19.6-76.1,47.4-159.2,53.1-176.1c11.9,3.7,69.5,22.2,124.2,47.3c-2.7,7.7-8.8,21.7-18.3,41.8
			C513,318.7,510.2,320.7,507.2,322.8z M482.4,392.9c5.5-0.9,31-6.4,45.7-33c15.6-28.2,13.8-45.9,4.7-66.1c6.2,8,13.5,24.9,10.5,43
			c-4,23.8-17.8,43.3-37,52.2c-13,6-21,6.3-24.9,5.9L482.4,392.9z M418.5,508.4c-5.6,11.4-8.8,18-9.6,20.4l0,0
			c-3.6,10.2-3.7,25.1-3.7,25.7c0,0.7-0.1,7.2-5,11.4c-12.1,10.6-36,14.7-55.5,9.5c-18-4.8-19.4-13.5-19.4-16v-25.6
			c0-5.4,7.7-36.4,10.4-46.5c0.6-2.4,1.3-5.6,1.9-9l0.1-0.3C377.7,497,409.1,505.9,418.5,508.4z M343.3,580.3
			c6.1,1.6,12.7,2.5,19.4,2.5c10.4,0,20.8-2.1,29.2-5.9c0,3.4-1.2,6.8-3.4,9.8c-4.1,5.7-11.3,9.5-19.8,10.5
			c-24.3,2.3-29.2-11.6-29.6-13.1l-0.5-5.3C340.1,579.3,341.7,579.8,343.3,580.3z M553.7,211.6L553.7,211.6L553.7,211.6L553.7,211.6
			z"/>
			<path
				d="M356.7,216.6c5.5,1.1,10.8,1.7,15.9,1.7c8.2,0,15.4-1.5,19.2-4c2.3-1.3,4.4-5.8,5.2-7.6l8-16.1c0.6-1.1,1-2.4,1.1-3.6
			c0.8-9.4-11.9-19.7-37.6-30.6c-0.6-1.8-1.6-3.5-3-5.2c-3.5-4.2-7.2-6.6-12.7-8.3c-1-9.8-15.4-16.8-20.8-19.4l-0.4-0.2
			c-0.4-0.2-0.6-0.3-0.8-0.4c-0.1-0.1-0.3-0.3-0.4-0.5l-0.2-0.3c-3.1-3.7-11.2-13.6-26-16.9c-16.9-3.9-66.2-6-73.2-5.4
			c-1.4,0.1-4.1,1.1-7.9,2.8c-11.8-4.9-27.1,4.5-32.8,8.1l-0.5,0.3c-4.6,2.9-53.7,28.3-68.8,35.1c-12.3,5.5-23,6.3-28.7,6.7l-0.1,0
			c-0.9,0.1-1.7,0.1-2.3,0.2c-4.1,0.4-6.4,2.9-8.9,5.4c-1.3,1.3-2.6,2.7-4.3,4c-6.6,3.5-10.8,12.1-12.2,24.6
			c-0.7,6-14,31.2-15.9,33.4c-1.9,2.1-12.8,24.2-16.1,31c-0.3,0.6-0.3,1.3-0.1,1.9c0.2,0.6,0.7,1.1,1.3,1.4c0.3,0.2,0.7,0.3,1.1,0.3
			c1,0,1.8-0.5,2.2-1.4c6.6-13.6,14.2-28.4,15.3-29.8c2.3-2.5,16.3-28.9,17.2-36.2c0.9-7.6,3.3-17.5,9.8-20.8
			c0.1-0.1,0.3-0.1,0.4-0.2c2.1-1.6,3.6-3.2,5-4.6c2.4-2.4,3.7-3.7,5.8-3.9c0.6-0.1,1.4-0.1,2.4-0.2c6-0.4,17.3-1.2,30.4-7.1
			c14.2-6.4,64-32.1,69.4-35.4l0.5-0.3c4.3-2.7,14.1-8.7,22.7-8.7c0,0,0,0,0,0c-16.9,8.6-40.3,22.7-44.1,25.5
			c-6.8,5-46.1,28.9-46.5,29.1c-1.2,0.7-1.6,2.3-0.8,3.4c0.5,0.7,1.3,1.2,2.1,1.2c0.5,0,0.9-0.1,1.3-0.4
			c4.1-2.5,40.1-24.4,46.9-29.4c5.4-3.9,34.4-21,49.3-28c0.2-0.1,0.3-0.1,0.5-0.2c4.5-2.1,6.3-2.6,7-2.7c6.2-0.5,55.2,1.6,71.7,5.3
			c13.1,3,20.4,11.9,23.2,15.2c0.7,0.9,1.1,1.3,1.5,1.6c0.4,0.3,0.8,0.5,2.1,1.1c9.8,4.8,15.7,9.3,17.5,13.5
			c-3.6-0.8-7.8-1.4-11.7-2c-17.3-2.5-20.6-2.5-29.5,0.1c-5.7,1.7-21.8,4.6-33.6,6.8l-0.1,0c-5.6,1-10,1.8-12.1,2.3
			c-7.1,1.5-76.3,39.2-91,51.1c-0.5,0.4-0.8,1-0.9,1.7c-0.1,0.7,0.1,1.3,0.5,1.8c0.4,0.5,1,0.8,1.7,0.9c0.7,0.1,1.3-0.1,1.8-0.5
			c15.3-12.5,83.8-49,88.9-50.1c2-0.4,6.5-1.3,11.8-2.2l0.2,0c11.9-2.2,28.2-5.2,34.2-7c8.1-2.4,10.7-2.4,27.3,0.1
			c7.2,1.1,11.5,1.8,14.8,2.7c5.7,1.5,8.9,3.4,12.1,7.2c4,4.8,3.3,9.2-3,17.2c-0.9,1.1-2.5,2.4-4.8,3.8c-0.1,0.1-0.3,0.1-0.4,0.2
			c-8,4.7-21.9,9.4-28.1,11.3c-0.3,0.1-0.5,0.2-0.8,0.4c-1.5,1.2-3.6,2.5-6.1,4c-10.7,6.4-27.6,14.2-34.8,17.5l-0.5,0.2
			c-1.1,0.5-1.9,0.9-2.4,1.1c-4.2,2-41.8,23.9-58.1,40.9c-15.6,16.2-41.6,41.7-41.8,41.9c-1,1-1,2.5,0,3.5c0.9,1,2.6,1,3.5,0
			c0.3-0.3,26.3-25.8,41.9-42c15.9-16.5,52.6-37.9,56.7-39.8c0.5-0.2,1.3-0.6,2.4-1.1l0.5-0.2c6.7-3.1,22.4-10.3,33.4-16.6
			c3.6,3.7,13.2,12.3,30.1,17.9c-6.5,2.8-16.4,6.2-27.7,7.8c-0.5,0.1-1,0.3-1.4,0.6c-1.8,1.7-45.4,42.3-57.2,56.6
			c-6.1,7.4-10.6,15.1-14.2,21.2c-3.3,5.7-6.2,10.6-9,13.1c-5.5,4.7-12.4,8.5-21.9,13.7l-4.1,2.2c-2.1,1.1-4.3,2.3-6.6,3.6
			c-10.5,5.7-23.6,12.7-35.1,20.6c-1.1,0.8-1.4,2.3-0.6,3.5c0.5,0.7,1.2,1.1,2.1,1.1c0.5,0,1-0.2,1.4-0.4
			c11.3-7.7,24.2-14.7,34.6-20.3l0.2-0.1c2.2-1.2,4.4-2.3,6.4-3.4l4-2.2c9.8-5.3,16.9-9.2,22.8-14.3c3.5-3,6.4-8,10.1-14.4
			c3.7-6.3,7.8-13.5,13.7-20.5c10.8-13.1,51.2-50.9,56.2-55.6C339.8,224.6,352.9,218.5,356.7,216.6z M396.3,181.5
			c-0.3,1.3-1.5,2.5-3.2,3.2c-12.5,2.7-27.2-3.9-33.4-7.2c1.3-1,2.3-1.9,3-2.8c2.8-3.6,5.8-7.9,6.4-12.6
			c11.3,4.9,19.8,9.7,25.2,14.2C395.4,177.6,396.7,179.6,396.3,181.5z M400.8,188.7l-0.4-0.1c-0.2,0.3-0.3,0.5-0.6,0.7l-0.1,0.1
			c-0.2,0.2-0.4,0.4-0.7,0.7l-0.1,0.1c-0.3,0.2-0.5,0.4-0.8,0.6l0.2,0.3l-0.3-0.2c-0.3,0.2-0.6,0.3-0.9,0.5
			c-0.1,0.1-0.2,0.1-0.3,0.1l-0.1,0.1c-0.2,0.1-0.4,0.2-0.6,0.2c-0.1,0.1-0.3,0.1-0.4,0.1c-0.3,0.1-0.6,0.2-0.9,0.3
			c-2.3,0.3-4.7,0.5-7.1,0.6c-16.2,0.3-30.6-5.8-38.1-9.7c1.9-0.9,3.7-1.8,5.2-2.6c4.2,2.4,17.9,9.7,31.9,9.7c2.6,0,5.2-0.3,7.5-0.8
			c0.1,0,0.2-0.1,0.4-0.1c2.9-1.1,5-3.1,6-5.5c0.5,1.2,0.5,2.1,0.5,2.7c-0.1,0.7-0.3,1.3-0.6,2L400.8,188.7z M395.9,197.2
			c0.1,0,0.2-0.1,0.4-0.1l-3.8,7.5c-1.2,2.7-2.6,5-3.2,5.4c-4,2.6-15.9,5.1-32.3,1.5c-18.4-4.7-29.3-13.6-33.4-17.6
			c1.4-0.9,2.6-1.7,3.7-2.5c2.1-0.6,9.2-2.9,16.6-5.8c5,3,22.1,12.2,42.7,12.2c3.1,0,6.2-0.2,9.2-0.6
			C395.8,197.2,395.8,197.2,395.9,197.2z"/>
		</g>
	</g>
	<g>
		<path
			d="M32,85.5c0-4.9,0.6-9.7,1.9-14.2c1.3-4.6,3.1-8.8,5.4-12.8c2.3-4,5.1-7.6,8.3-10.8c3.3-3.3,6.9-6.1,10.8-8.4
		c4-2.3,8.2-4.1,12.8-5.4c4.6-1.3,9.3-1.9,14.2-1.9s9.7,0.6,14.2,1.9c4.6,1.3,8.8,3.1,12.8,5.4c4,2.3,7.6,5.1,10.8,8.4
		c3.3,3.3,6,6.9,8.3,10.8c2.3,4,4.1,8.2,5.4,12.8c1.3,4.6,1.9,9.3,1.9,14.2c0,4.9-0.6,9.7-1.9,14.2c-1.3,4.6-3.1,8.8-5.4,12.8
		c-2.3,4-5.1,7.6-8.3,10.8c-3.3,3.3-6.9,6-10.8,8.3c-4,2.3-8.2,4.1-12.8,5.4c-4.6,1.3-9.3,1.9-14.2,1.9s-9.7-0.6-14.2-1.9
		c-4.6-1.3-8.8-3.1-12.8-5.4c-4-2.3-7.6-5.1-10.8-8.3c-3.3-3.3-6-6.9-8.3-10.8c-2.3-4-4.1-8.2-5.4-12.8C32.6,95.2,32,90.4,32,85.5z
		 M37,85.5c0,4.4,0.6,8.7,1.7,12.9c1.2,4.1,2.8,8,4.9,11.6c2.1,3.6,4.6,6.9,7.6,9.8c3,3,6.2,5.5,9.8,7.6c3.6,2.1,7.4,3.7,11.6,4.9
		c4.1,1.2,8.4,1.7,12.9,1.7c4.5,0,8.8-0.6,12.9-1.7c4.1-1.2,8-2.8,11.6-4.9c3.6-2.1,6.8-4.6,9.8-7.6c2.9-3,5.5-6.2,7.6-9.8
		c2.1-3.6,3.7-7.5,4.9-11.6c1.2-4.1,1.7-8.4,1.7-12.9c0-4.5-0.6-8.8-1.7-12.9c-1.2-4.1-2.8-8-4.9-11.6c-2.1-3.6-4.6-6.9-7.6-9.8
		c-2.9-3-6.2-5.5-9.8-7.6c-3.6-2.1-7.4-3.7-11.6-4.9c-4.1-1.2-8.4-1.7-12.9-1.7c-4.5,0-8.8,0.6-12.9,1.7c-4.1,1.2-8,2.8-11.6,4.9
		c-3.6,2.1-6.9,4.6-9.8,7.6c-3,3-5.5,6.2-7.6,9.8c-2.1,3.6-3.7,7.4-4.9,11.6C37.5,76.7,37,81,37,85.5z M93.2,58.9v50.5H82.4V77.4
		c0-0.9,0-1.7,0.1-2.6c0-0.9,0.1-1.8,0.2-2.7l-4.8,4.5c-0.4,0.4-0.9,0.6-1.4,0.8c-0.5,0.2-1.1,0.2-1.6,0.2c-0.5,0-1.1-0.1-1.6-0.4
		c-0.5-0.2-0.9-0.6-1.2-1l-2.9-3.6l15.2-13.7H93.2z"/>
	</g>
</svg>
