<svg xmlns="http://www.w3.org/2000/svg" viewBox="0 0 640 640"><title>face_mask_howto_04</title><path d="M48,101.5a51.24,51.24,0,0,1,1.9-14.2,55.93,55.93,0,0,1,5.4-12.8,51.71,51.71,0,0,1,8.3-10.8,54.11,54.11,0,0,1,10.8-8.4,55.93,55.93,0,0,1,12.8-5.4,54,54,0,0,1,28.4,0,55.93,55.93,0,0,1,12.8,5.4,49,49,0,0,1,10.8,8.4,53.6,53.6,0,0,1,8.3,10.8,55.93,55.93,0,0,1,5.4,12.8,54,54,0,0,1,0,28.4,55.93,55.93,0,0,1-5.4,12.8,51.71,51.71,0,0,1-8.3,10.8A53.88,53.88,0,0,1,115.6,153a54,54,0,0,1-28.4,0,55.93,55.93,0,0,1-12.8-5.4,51.71,51.71,0,0,1-10.8-8.3,53.6,53.6,0,0,1-8.3-10.8,55.93,55.93,0,0,1-5.4-12.8A51.24,51.24,0,0,1,48,101.5Zm5,0a50.74,50.74,0,0,0,1.7,12.9A51.83,51.83,0,0,0,59.6,126a45.18,45.18,0,0,0,7.6,9.8,47.72,47.72,0,0,0,9.8,7.6,49.94,49.94,0,0,0,11.6,4.9,45.66,45.66,0,0,0,12.9,1.7,49.58,49.58,0,0,0,12.9-1.7,51.83,51.83,0,0,0,11.6-4.9,47.72,47.72,0,0,0,9.8-7.6,48.21,48.21,0,0,0,12.5-21.4,45.66,45.66,0,0,0,1.7-12.9,49.58,49.58,0,0,0-1.7-12.9A51.83,51.83,0,0,0,143.4,77,49.43,49.43,0,0,0,126,59.6a49.94,49.94,0,0,0-11.6-4.9A45.66,45.66,0,0,0,101.5,53a49.58,49.58,0,0,0-12.9,1.7A51.83,51.83,0,0,0,77,59.6a45.18,45.18,0,0,0-9.8,7.6A47.72,47.72,0,0,0,59.6,77a49.94,49.94,0,0,0-4.9,11.6A45.66,45.66,0,0,0,53,101.5Zm66.3,4.5v6.1a2.46,2.46,0,0,1-.5,1.5,2,2,0,0,1-1.5.6h-4.7v11.3h-9V114.2H84.8a2.72,2.72,0,0,1-1.7-.6,3.37,3.37,0,0,1-1.1-1.7l-1.1-5.7L102.2,75h10.3v31Zm-15.7,0V93.9c0-1,0-2,.1-3s.2-2.2.3-3.4L91.9,106Z"/><path d="M380.39,438.89c-.25.23-25,23.37-43.75,30.41-5.46,2-12.12,2.43-16.33,2.43a1.9,1.9,0,0,0-.89-.13s-.62,0-1.61.08-1.58-.08-1.61-.08a1.91,1.91,0,0,0-.89.13c-4.2,0-10.87-.39-16.33-2.43-18.77-7-43.5-30.18-43.75-30.41a2,2,0,0,0-2.74,2.91c1,1,25.56,23.92,45.08,31.24,6.05,2.27,13.19,2.7,17.71,2.7,1,0,1.83,0,2.53-.05s1.55.05,2.53.05c4.52,0,11.66-.43,17.71-2.7,19.52-7.32,44-30.26,45.08-31.24a2,2,0,0,0-2.74-2.91Z"/><path d="M428.29,321.85a2,2,0,0,0,1.82,2.17h.18a2,2,0,0,0,2-1.82c.32-3.55,1.45-14.94,1.45-14.94l-4-.4S428.62,318.29,428.29,321.85Z"/><path d="M411,228.87c-24.92-24.63-52.4-35.13-91.88-35.13a2,2,0,0,1-2.58,0c-39.49,0-67,10.5-91.88,35.13-27.49,27.17-23.7,63.4-23.53,64.93a2,2,0,0,0,2,1.78l.23,0a2,2,0,0,0,1.76-2.21c0-.36-3.76-35.82,22.37-61.64,24.41-24.13,50.21-34,89.06-34a1.94,1.94,0,0,1,2.58,0c38.84,0,64.65,9.84,89.06,34,26.08,25.77,22.41,61.28,22.37,61.64a2,2,0,0,0,1.76,2.21h.23a2,2,0,0,0,2-1.77C434.68,292.27,438.47,256,411,228.87Z"/><path d="M201.89,307.27s1.13,11.39,1.45,14.94a2,2,0,0,0,2,1.82h.18a2,2,0,0,0,1.81-2.17c-.32-3.56-1.45-15-1.45-15Z"/><path d="M397.75,306.09c-5.7-5-14.4-6.69-26.58-5.13-22.22,2.85-33,14.62-33,36a2,2,0,0,0,4,0c0-19.53,9.11-29.41,29.53-32,11-1.41,18.65-.05,23.44,4.16,4.61,4.06,6.75,10.93,6.75,21.62a2,2,0,0,0,4,0C405.86,318.78,403.29,311,397.75,306.09Z"/><path d="M397.17,331.41c-.09.06-9.11,6.19-25.75,6.19-17,0-25-2.53-25.11-2.55a2,2,0,1,0-1.23,3.8c.34.11,8.65,2.75,26.34,2.75,18,0,27.64-6.63,28-6.92a2,2,0,1,0-2.29-3.27Z"/><path d="M238.56,309.09c4.78-4.21,12.45-5.57,23.43-4.16,20.43,2.61,29.53,12.49,29.53,32a2,2,0,1,0,4,0c0-21.37-10.8-33.14-33-36-12.19-1.57-20.89.12-26.58,5.13-5.54,4.87-8.12,12.69-8.12,24.62a2,2,0,0,0,4,0C231.8,320,234,313.15,238.56,309.09Z"/><path d="M288.59,338.85a2,2,0,0,0-1.23-3.8c-.08,0-8.15,2.55-25.11,2.55-16.61,0-25.62-6.1-25.75-6.19a2,2,0,0,0-2.3,3.27c.4.29,10,6.92,28.05,6.92C279.94,341.6,288.25,339,288.59,338.85Z"/><path d="M308,350.32a2,2,0,0,0-3.84-1.12c-.13.45-3.26,11.1-3.92,14.37-1.16,5.83-.81,9.12,1.14,10.68.87.71,2.43,1.31,4.86.23a4.89,4.89,0,0,1,4.56-.21,21.77,21.77,0,0,0,7.39,1.16h.33a21.77,21.77,0,0,0,7.39-1.16,4.87,4.87,0,0,1,4.55.21c2.44,1.08,4,.47,4.87-.23,2-1.56,2.3-4.85,1.13-10.68-.65-3.27-3.78-13.92-3.91-14.37a2,2,0,1,0-3.84,1.12c0,.11,3.21,10.93,3.83,14,1,4.9.5,6.37.32,6.71a3,3,0,0,1-.78-.24,8.6,8.6,0,0,0-7.39-.37,17.9,17.9,0,0,1-6.17,1l-.17,0-.16,0a18,18,0,0,1-6.18-1,8.6,8.6,0,0,0-7.39.37,2.87,2.87,0,0,1-.77.24c-.18-.34-.67-1.81.31-6.71C304.74,361.25,307.92,350.43,308,350.32Z"/><path d="M296.18,374.61a7.79,7.79,0,0,0,1.16,4.06c.2.36,5.08,8.67,19.63,9.69a2.12,2.12,0,0,0,.44.05h.4a2.42,2.42,0,0,0,.47-.06,29.37,29.37,0,0,0,14.3-4.47,2,2,0,0,0-2.21-3.34,25.46,25.46,0,0,1-12.75,3.85c-12.57-.75-16.64-7.42-16.82-7.72a4.16,4.16,0,0,1-.63-1.87,2,2,0,1,0-4-.19Z"/><path d="M288.42,410.92a2,2,0,0,0,.18,2.82,2,2,0,0,0,1.32.5,2,2,0,0,0,1.51-.68c5.7-6.48,17.09-7.31,26.38-7.31s20.68.83,26.38,7.31a2,2,0,0,0,1.51.68,2,2,0,0,0,1.32-.5,2,2,0,0,0,.18-2.82c-6.77-7.69-19.26-8.67-29.39-8.67S295.19,403.23,288.42,410.92Z"/><path d="M332.88,424.12c-4.81,1.22-10.26,1.22-15.07,1.22-9.43,0-21.16,0-26.12-9.27a2,2,0,0,0-3.53,1.89c6.09,11.38,19.71,11.38,29.65,11.38,5.05,0,10.77,0,16.06-1.35a2,2,0,1,0-1-3.87Z"/><path d="M324,378a3.64,3.64,0,0,0-3.15,2.31c-.3,1.07,1.72,1.77,3.19.51,2-1.66,4-1.73,4.57-2.37C329.55,377.41,326.26,377.63,324,378Z" style="fill:#a2aaad"/><path d="M310.8,378c-2.23-.34-5.52-.56-4.61.45.57.64,2.59.71,4.56,2.37,1.48,1.26,3.49.56,3.2-.51A3.65,3.65,0,0,0,310.8,378Z" style="fill:#a2aaad"/><path d="M396.42,324.26c-2.74-.22-4.27.93-7.22-2.58-.76-.9-1.07-.79-3.63.35a17.72,17.72,0,0,1-4.07,1.55c-1.16.4.4,1.28,1,1.5a14.61,14.61,0,0,0,2.63.38c4.14.08,4.81,1.05,7.39.6C400,324.76,399,324.47,396.42,324.26Z" style="fill:#a2aaad"/><path d="M377.69,328.17a15.37,15.37,0,0,0,3.59,1.9c1.35.6,2.29.44.94-.84a7.7,7.7,0,0,1-1.93-3.28c-.4-1.07-.46-1.77-.91-1.75a20.4,20.4,0,0,1-3.49.94C374.72,325.36,376.57,327.32,377.69,328.17Z" style="fill:#a2aaad"/><path d="M373.74,325.46a19.55,19.55,0,0,1-3.59.37c-1.2,0,.32,2.26,1.29,3.28a15.13,15.13,0,0,0,3.25,2.46c1.23.8,2.18.79,1.06-.69a7.71,7.71,0,0,1-1.39-3.55C374.14,326.21,374.19,325.51,373.74,325.46Z" style="fill:#a2aaad"/><path d="M369.15,331.65a7.9,7.9,0,0,1-.8-3.73c0-1.14.12-1.82-.32-1.95a19.44,19.44,0,0,1-3.6-.2c-1.18-.16,0,2.28.76,3.44a15.1,15.1,0,0,0,2.81,2.94C369.09,333.14,370,333.28,369.15,331.65Z" style="fill:#a2aaad"/><path d="M362.51,325.56a19.63,19.63,0,0,1-3.39-1.24c-1.09-.49-.71,2.17-.28,3.52a15.09,15.09,0,0,0,1.84,3.62c.76,1.27,1.62,1.68,1.25-.14a7.83,7.83,0,0,1,.31-3.8C362.54,326.41,362.89,325.81,362.51,325.56Z" style="fill:#a2aaad"/><path d="M357.31,323.63a9.47,9.47,0,0,1-2.06-.26c-.9-.26-2.31-1.06-3.08-1s-1.35.07-1.42.62.26.38,1,.62a4.1,4.1,0,0,1,2,1.87,22,22,0,0,0,2.31,4c.71.71.2-.57.33-1.41a32.11,32.11,0,0,1,.9-3.45C357.43,324.33,358,323.68,357.31,323.63Z" style="fill:#a2aaad"/><path d="M337.77,415.21c-1,.5-3.73-.65-5.49-.89-3.83-.54-5.21-2.53-7.18-2.53s-5.12,1-7.29,1-5.33-1-7.29-1-3.35,2-7.18,2.53c-1.76.24-4.5,1.39-5.49.89-3.14-1.59-5,.05-3,1.14.76.42,1.64,1.26,6.28,1.63,3.08.24,5.72-1.28,8.27-1.13s5,2.18,8.36,2.18,5.85-2,8.36-2.18,5.19,1.37,8.27,1.13c4.63-.37,5.52-1.21,6.28-1.63C342.73,415.26,340.91,413.62,337.77,415.21Z" style="fill:#a2aaad"/><path d="M388.94,358.56c-4,3-5.08,8.47-5.94,12.85-2,10.21-2.47,21.91-1.37,35.77,1,13-1.5,30.55-1.82,32.65-2.28,6-8.11,26.67-8.82,37-.35,5.08-.92,11.34-1.52,18-.59,6.45-1.19,13.13-1.67,19.48-1,13.59,3.63,19.1,3.82,19.33a2,2,0,0,0,3-2.61s-3.75-4.69-2.87-16.42c.47-6.32,1.08-13,1.66-19.42.6-6.65,1.17-12.93,1.53-18.05.66-9.71,6.41-30.31,8.64-36.05a1.91,1.91,0,0,0,.11-.41c.13-.8,3-19.55,1.89-33.8-1.07-13.48-.65-24.83,1.3-34.68.73-3.71,1.65-8.33,4.42-10.42a2,2,0,0,0-2.4-3.2Z" style="fill:#a2aaad"/><path d="M424,336.8a2,2,0,0,0-2.61,1.09c-3.76,9.13-6.42,26.29-6.06,39.05.2,7.22-.35,17.61-.79,26-.33,6.36-.6,11.39-.49,13.79.24,5.35,0,14.37,0,14.47a2,2,0,0,0,1.94,2h.06a2,2,0,0,0,2-1.95c0-.37.24-9.25,0-14.75-.09-2.21.18-7.39.5-13.4.44-8.42,1-18.9.78-26.28-.33-12.08,2.25-28.87,5.77-37.42A2,2,0,0,0,424,336.8Z" style="fill:#a2aaad"/><path d="M420.43,331.42a2.06,2.06,0,0,0,1.73-.84c1.49-2.08,6.49-7.7,9.84-6.34a2,2,0,0,0,1.5-3.71c-5.93-2.42-12,4.34-14,6.89-5,.3-9.41,4.37-13.68,12.71-2.13,4.15-3.91,12.47-5.33,21.44-.14-.69-.27-1.11-.28-1.16a2,2,0,0,0-3.83,1.14,17.78,17.78,0,0,1,.48,5.78c-.46,5-.6,13.89-.56,18.61.07,7.29,1.15,33.95,2.18,39.12a67.82,67.82,0,0,1,.93,10.91,2,2,0,0,0,4,0,70.56,70.56,0,0,0-1-11.69c-.67-3.34-1.42-17.6-1.82-28.31.19-2.44,3.49-43.65,8.8-54C414.37,332.27,418.09,331.28,420.43,331.42Z" style="fill:#a2aaad"/><path d="M438.29,327.55a2,2,0,0,0-2.65,1c-3.87,8.64-3.85,17-3.84,25,0,2.14,0,4.36-.07,6.51-.14,4.12.12,10.13.4,16.5.32,7.33.65,14.91.31,19.18-.64,8-2.94,31.05-3,31.29a2,2,0,0,0,1.79,2.18h.2a2,2,0,0,0,2-1.8c0-.23,2.32-23.36,3-31.36.36-4.52,0-12.22-.3-19.67-.27-6.29-.53-12.23-.39-16.19.07-2.23.07-4.48.07-6.66,0-8,0-15.52,3.49-23.38A2,2,0,0,0,438.29,327.55Z" style="fill:#a2aaad"/><path d="M417.65,537.66c-.07-5.41,2.16-11.87,4.32-18.12.9-2.62,1.75-5.08,2.43-7.46.93-3.22,4-11.31,7.32-19.88,5-13,10.6-27.65,11.86-33.53,2.07-9.58,4.66-22.17,4.69-22.29a2,2,0,1,0-3.92-.81c0,.13-2.61,12.69-4.68,22.26-1.2,5.57-7,20.74-11.69,32.93-3.46,9-6.45,16.83-7.42,20.22-.65,2.27-1.49,4.69-2.37,7.25-2.27,6.58-4.62,13.38-4.54,19.48.17,11.07,9.88,23,10.3,23.56a2,2,0,1,0,3.09-2.54C427,558.62,417.8,547.34,417.65,537.66Z" style="fill:#a2aaad"/><path d="M377.54,542.84a2,2,0,1,0-3.87,1L378,560.5a2,2,0,0,0,1.94,1.5,2.05,2.05,0,0,0,.49-.06,2,2,0,0,0,1.44-2.44Z" style="fill:#a2aaad"/><path d="M250.51,325.46a14.61,14.61,0,0,0,2.63-.38c.58-.22,2.14-1.1,1-1.5a17.88,17.88,0,0,1-4.06-1.55c-2.56-1.14-2.87-1.25-3.63-.35-2.95,3.51-4.48,2.36-7.22,2.58-2.59.21-3.58.5,3.92,1.8C245.7,326.51,246.36,325.54,250.51,325.46Z" style="fill:#a2aaad"/><path d="M259.73,325.14a20.4,20.4,0,0,1-3.49-.94c-.45,0-.51.68-.91,1.75a7.8,7.8,0,0,1-1.93,3.28c-1.35,1.28-.41,1.44.94.84a15.37,15.37,0,0,0,3.59-1.9C259.05,327.32,260.9,325.36,259.73,325.14Z" style="fill:#a2aaad"/><path d="M260.93,331.57a14.81,14.81,0,0,0,3.24-2.46c1-1,2.49-3.24,1.3-3.28a19.55,19.55,0,0,1-3.59-.37c-.45.05-.4.75-.62,1.87a7.71,7.71,0,0,1-1.39,3.55C258.75,332.36,259.69,332.37,260.93,331.57Z" style="fill:#a2aaad"/><path d="M271.19,325.77a19.54,19.54,0,0,1-3.61.2c-.43.13-.27.81-.31,1.95a7.79,7.79,0,0,1-.81,3.73c-.87,1.63.07,1.49,1.16.5a15.1,15.1,0,0,0,2.81-2.94C271.23,328.05,272.37,325.61,271.19,325.77Z" style="fill:#a2aaad"/><path d="M276.5,324.32a19.63,19.63,0,0,1-3.39,1.24c-.38.25,0,.85.27,2a7.83,7.83,0,0,1,.31,3.8c-.37,1.82.49,1.41,1.25.14a15.47,15.47,0,0,0,1.84-3.62C277.21,326.49,277.59,323.83,276.5,324.32Z" style="fill:#a2aaad"/><path d="M283.45,322.39c-.77-.08-2.18.72-3.08,1a9.47,9.47,0,0,1-2.06.26c-.71.05-.13.7,0,1a34.66,34.66,0,0,1,.9,3.45c.13.84-.38,2.12.32,1.41a21.44,21.44,0,0,0,2.32-4,4.06,4.06,0,0,1,2-1.87c.71-.24,1-.07,1-.62S284.22,322.47,283.45,322.39Z" style="fill:#a2aaad"/><path d="M266.15,494.81c-.6-6.63-1.17-12.89-1.52-18-.71-10.34-6.54-31-8.82-37-.32-2.09-2.86-19.65-1.82-32.65,1.1-13.86.65-25.56-1.37-35.77-.86-4.38-1.94-9.84-5.94-12.85a2,2,0,0,0-2.41,3.2c2.78,2.09,3.69,6.71,4.43,10.42,2,9.85,2.37,21.2,1.3,34.68-1.13,14.25,1.76,33,1.89,33.8a1.91,1.91,0,0,0,.11.41c2.23,5.74,8,26.35,8.64,36.05.36,5.12.92,11.4,1.53,18.05.58,6.44,1.18,13.1,1.66,19.42.87,11.62-2.77,16.29-2.87,16.42a2,2,0,0,0,1.53,3.29,2,2,0,0,0,1.51-.68c.19-.23,4.84-5.74,3.82-19.33C267.34,507.94,266.74,501.26,266.15,494.81Z" style="fill:#a2aaad"/><path d="M239.21,361.55a2,2,0,1,0-3.83-1.14,11.8,11.8,0,0,0-.28,1.16c-1.42-9-3.2-17.29-5.33-21.44-4.27-8.34-8.64-12.41-13.68-12.71-2-2.55-8-9.3-14-6.89a2,2,0,0,0,1.5,3.71c3.35-1.36,8.35,4.26,9.84,6.34a2.09,2.09,0,0,0,1.72.84c2.36-.14,6.07.85,11,10.53,5.31,10.38,8.61,51.64,8.8,54-.4,10.71-1.15,25-1.82,28.31a70.56,70.56,0,0,0-1,11.69,2,2,0,0,0,4,0,67.82,67.82,0,0,1,.93-10.91c1-5.18,2.1-31.84,2.18-39.12,0-4.71-.1-13.59-.56-18.61A17.65,17.65,0,0,1,239.21,361.55Z" style="fill:#a2aaad"/><path d="M214.21,337.89a2,2,0,0,0-3.7,1.52c3.52,8.55,6.1,25.34,5.76,37.42-.2,7.38.35,17.85.79,26.27.32,6,.59,11.2.49,13.41-.24,5.5,0,14.38,0,14.75a2,2,0,0,0,2,1.95h.06a2,2,0,0,0,1.94-2c0-.1-.24-9.12,0-14.47.11-2.41-.16-7.43-.49-13.8-.44-8.35-1-18.73-.79-25.95C220.63,364.18,218,347,214.21,337.89Z" style="fill:#a2aaad"/><path d="M200,328.56a2,2,0,0,0-3.65,1.63c3.52,7.86,3.51,15.4,3.5,23.38,0,2.18,0,4.43.07,6.66.14,4-.12,9.9-.39,16.19-.33,7.45-.67,15.15-.3,19.67.64,8,2.94,31.13,3,31.36a2,2,0,0,0,2,1.8h.2a2,2,0,0,0,1.79-2.18c0-.24-2.32-23.33-3-31.29-.34-4.27,0-11.85.31-19.18.28-6.37.54-12.38.4-16.5-.08-2.15-.07-4.37-.07-6.51C203.83,345.53,203.84,337.2,200,328.56Z" style="fill:#a2aaad"/><path d="M185.37,380.55c-.68,6.51-.83,12.8-1,18.35a99.58,99.58,0,0,1-.65,11.57c-1,6.2,2.11,16.9,2.25,17.35a2,2,0,0,0,1.91,1.43,1.87,1.87,0,0,0,.57-.08,2,2,0,0,0,1.35-2.48c0-.11-3-10.27-2.13-15.56a100.11,100.11,0,0,0,.69-12.14c.13-5.48.27-11.68.94-18,1.28-12.19,3.11-48.69,3.13-49.06a2,2,0,0,0-4-.2C188.46,332.08,186.64,368.47,185.37,380.55Z" style="fill:#a2aaad"/><path d="M215.06,511c-1-3.39-4-11.19-7.43-20.22-4.67-12.19-10.48-27.36-11.69-32.93-2.06-9.57-4.65-22.13-4.67-22.26a2,2,0,1,0-3.92.81c0,.12,2.62,12.71,4.68,22.29,1.27,5.88,6.9,20.56,11.87,33.52,3.29,8.57,6.39,16.67,7.31,19.89.68,2.38,1.54,4.84,2.44,7.46,2.16,6.25,4.39,12.71,4.31,18.12-.14,9.66-9.29,21-9.38,21.07a2,2,0,1,0,3.09,2.54c.42-.51,10.13-12.49,10.29-23.56.09-6.1-2.26-12.9-4.53-19.48C216.55,515.67,215.71,513.25,215.06,511Z" style="fill:#a2aaad"/><path d="M260.51,541.4a2,2,0,0,0-2.44,1.44l-4.28,16.66a2,2,0,0,0,1.43,2.44,2.2,2.2,0,0,0,.5.06,2,2,0,0,0,1.94-1.5L262,543.83A2,2,0,0,0,260.51,541.4Z" style="fill:#a2aaad"/><path d="M462.3,553.26c-35.83-14.48-39.49-15.63-39.79-15.71a2,2,0,0,0-2.45,1.36,2,2,0,0,0,1.34,2.48c.15,0,4,1.26,39.41,15.58a1.94,1.94,0,0,0,.74.14,2,2,0,0,0,.75-3.85Z" style="fill:#a2aaad"/><path d="M215.61,538.93a2,2,0,0,0-2.46-1.38c-.3.08-4,1.23-39.8,15.71a2,2,0,0,0,.75,3.85,2,2,0,0,0,.75-.14c35.16-14.21,39.2-15.52,39.4-15.58A2,2,0,0,0,215.61,538.93Z" style="fill:#a2aaad"/><path d="M352.26,176.69a2,2,0,0,0,1.94,1.51,2,2,0,0,0,1.94-2.48c-5.07-20.4-14.52-26.62-14.92-26.87a2,2,0,0,0-2.15,3.37C339.15,152.27,347.57,157.82,352.26,176.69Z" style="fill:#a2aaad"/><path d="M329.61,151.61a2,2,0,0,0-2.64,1c-3.31,7.48-4.47,20-4.52,20.49a2,2,0,0,0,1.81,2.17h.18a2,2,0,0,0,2-1.82c0-.13,1.15-12.35,4.2-19.23A2,2,0,0,0,329.61,151.61Z" style="fill:#a2aaad"/><path d="M319.33,150a2,2,0,0,0-2.48-1.36c-11.71,3.45-17.25,9.91-19.84,14.72a22.71,22.71,0,0,0-2.84,10,2,2,0,0,0,2,2h0a2,2,0,0,0,2-2c0-.61.23-15.07,19.81-20.84A2,2,0,0,0,319.33,150Z" style="fill:#a2aaad"/><path d="M294.08,150.52a2,2,0,0,0-1.12-3.84c-25.42,7.39-32,32.33-32.26,33.39a2,2,0,0,0,1.45,2.43,2.05,2.05,0,0,0,.49.06,2,2,0,0,0,1.94-1.51C264.64,180.82,270.9,157.26,294.08,150.52Z" style="fill:#a2aaad"/><path d="M367.56,169.27a62.26,62.26,0,0,1,6.09,12,2,2,0,0,0,1.87,1.28,2,2,0,0,0,.72-.13,2,2,0,0,0,1.14-2.59,70.87,70.87,0,0,0-4.13-8.88,31.92,31.92,0,0,1,4.25,2,31.51,31.51,0,0,1,4.23,2.92c1.26,1,2.57,2,4.06,2.94.85.56,1.75,1.11,2.68,1.68a58.06,58.06,0,0,1,5.79,3.89c.81.63,1.65,1.26,2.5,1.9a65.33,65.33,0,0,1,5.49,4.43c2.42,2.26,4.84,4.69,7.19,7.24a23.34,23.34,0,0,1,2.77,4.2,33.72,33.72,0,0,0,2.81,4.42,28.3,28.3,0,0,0,3.51,3.5,22,22,0,0,1,3.71,3.85c1.34,2,2.57,4.1,3.87,6.36q.69,1.22,1.41,2.43l.53.9a51.82,51.82,0,0,1,4.2,8.19,30.55,30.55,0,0,1,1.27,5.73c.22,1.43.46,2.92.82,4.39s.81,2.86,1.27,4.24a36.9,36.9,0,0,1,1.56,5.76,20.86,20.86,0,0,1-.07,5.16,28.6,28.6,0,0,0-.14,5.33,44.32,44.32,0,0,0,.87,5,33.56,33.56,0,0,1,.84,5.28c.1,2,0,4-.09,5.95-.07,1.48-.15,3-.14,4.5a41,41,0,0,0,.55,5.58,29.28,29.28,0,0,1,.45,4.91c-.12,4.24-.26,7.66-.43,10.47a35,35,0,0,1-.71,5.9,41.38,41.38,0,0,0-.68,4.33,2,2,0,0,0,1.76,2.21h.23a2,2,0,0,0,2-1.77,39.82,39.82,0,0,1,.63-4,37.83,37.83,0,0,0,.78-6.47c0-.68.08-1.4.12-2.15,1.24.14,5.24,1.21,6.94,9.06,1.84,8.47.55,20.2-2.58,27.43-.21-3.94-.34-6.51-.35-6.61a2,2,0,0,0-4,.2c0,.37,1.85,36.48,3.13,48.67.67,6.34.81,12.55.94,18a100.11,100.11,0,0,0,.69,12.14c.88,5.29-2.1,15.45-2.13,15.56a2,2,0,0,0,1.35,2.48,1.87,1.87,0,0,0,.57.08,2,2,0,0,0,1.91-1.43c.14-.45,3.28-11.15,2.25-17.35a97.38,97.38,0,0,1-.65-11.57c-.12-5.55-.27-11.84-.95-18.35-.77-7.26-1.73-23.18-2.38-34.8,6.33-7.27,8.45-24.51,6.1-35.32-2.29-10.56-8.46-12-10.67-12.21.05-1.38.1-2.85.14-4.45a32.9,32.9,0,0,0-.49-5.59,38.94,38.94,0,0,1-.51-5c0-1.38.06-2.79.13-4.28.1-2,.2-4.16.1-6.33a36.91,36.91,0,0,0-.93-5.92,44.25,44.25,0,0,1-.8-4.59,24.71,24.71,0,0,1,.15-4.58,24.32,24.32,0,0,0,0-6.15,40.65,40.65,0,0,0-1.71-6.38c-.45-1.36-.87-2.65-1.19-3.94s-.54-2.71-.75-4.06a33.12,33.12,0,0,0-1.47-6.49,55,55,0,0,0-4.51-8.84l-.52-.89c-.47-.8-.94-1.61-1.39-2.4-1.28-2.23-2.61-4.53-4-6.62a25.76,25.76,0,0,0-4.35-4.59,25.28,25.28,0,0,1-3-3,29.59,29.59,0,0,1-2.47-3.91,25.62,25.62,0,0,0-3.31-4.93c-2.41-2.63-4.91-5.14-7.41-7.47a66.89,66.89,0,0,0-5.81-4.7c-.83-.62-1.64-1.23-2.42-1.84a59.9,59.9,0,0,0-6.19-4.16c-.89-.55-1.75-1.08-2.57-1.61-1.36-.9-2.61-1.85-3.81-2.77a36,36,0,0,0-4.81-3.3c-3.94-2.06-4.94-2.34-6.81-2.77-.6-.14-1.34-.32-2.4-.63-7.61-10.76-15.21-12.15-15.63-12.21a2,2,0,1,0-.64,3.94c.08,0,6.32,1.17,12.92,10.45A2,2,0,0,0,367.56,169.27Z" style="fill:#a2aaad"/><path d="M187.94,270.61a45.07,45.07,0,0,0-.49,6.28,63.92,63.92,0,0,0,.54,6.65c.18,1.48.34,2.87.43,4.24a54.48,54.48,0,0,0,.91,6.57c.26,1.47.52,2.86.66,4.2.2,1.83.27,3.59.34,5.29a55.51,55.51,0,0,0,.43,5.59,31,31,0,0,0,1.5,6.6,30.88,30.88,0,0,1,1.1,3.89,2,2,0,0,0,1.95,1.56,2.25,2.25,0,0,0,.44,0,2,2,0,0,0,1.51-2.39,33.57,33.57,0,0,0-1.22-4.33,27.72,27.72,0,0,1-1.33-5.89,50.81,50.81,0,0,1-.38-5.16c-.08-1.76-.15-3.59-.36-5.55-.16-1.48-.43-2.94-.71-4.48a54.61,54.61,0,0,1-.85-6.1c-.09-1.49-.27-3-.45-4.47a58.38,58.38,0,0,1-.51-6.22,43.15,43.15,0,0,1,.46-5.75c.19-1.6.4-3.24.47-4.92a41.44,41.44,0,0,0-.16-5,31.43,31.43,0,0,1-.08-5.72,42.36,42.36,0,0,1,1.32-6c.38-1.42.77-2.89,1.07-4.37l.18-.92a79.08,79.08,0,0,1,2-8.6,98,98,0,0,1,3.25-9.25c1.33-3.06,2.91-6,4.42-8.72a33.54,33.54,0,0,1,3.29-4.63c.84-1.05,1.72-2.15,2.49-3.3.65-.95,1.26-1.92,1.87-2.87a59.59,59.59,0,0,1,3.59-5.22c2.28-2.86,4.63-5.43,6.41-7.35,2.14-2.3,4.3-4.3,6.38-6.24l.63-.58c2-1.88,4.13-3.7,6.54-5.67a94.41,94.41,0,0,0-5.74,13.43,2,2,0,0,0,1.3,2.51,1.86,1.86,0,0,0,.61.1,2,2,0,0,0,1.9-1.4c.06-.17,5.64-17.45,16.58-28.81,12.61-13.08,26.66-20.94,44.24-24.73,21-4.54,30.91,2.9,31,3a2,2,0,0,0,2.5-3.12c-.45-.36-11.27-8.79-34.4-3.8-18.38,4-33.08,12.18-46.27,25.87a60.46,60.46,0,0,0-5.31,6.38,2.2,2.2,0,0,0-.31.15,18.09,18.09,0,0,0-4.2,3.34,33.33,33.33,0,0,1-3.6,3.25c-2.86,2.31-5.28,4.39-7.61,6.56l-.63.58c-2.14,2-4.35,4-6.58,6.45-1.84,2-4.25,4.61-6.61,7.57a63.35,63.35,0,0,0-3.84,5.57c-.59.92-1.19,1.86-1.82,2.79s-1.47,2-2.3,3a37.71,37.71,0,0,0-3.66,5.18c-1.55,2.82-3.19,5.85-4.59,9.08a97.32,97.32,0,0,0-3.39,9.63,83.31,83.31,0,0,0-2.13,9l-.18.92c-.26,1.35-.62,2.68-1,4.1a44.86,44.86,0,0,0-1.43,6.63,34.65,34.65,0,0,0,.06,6.45,39.25,39.25,0,0,1,.15,4.54C188.32,267.52,188.12,269.09,187.94,270.61Z" style="fill:#a2aaad"/><path d="M473,253.13c.06-1.37.1-2.76.14-4.19l0-.93a53.2,53.2,0,0,0-.27-5.92c-.13-1.44-.25-2.93-.28-4.39-.06-2.93-.29-6-.51-9l-.1-1.35a27.31,27.31,0,0,0-1.24-5.69,28.73,28.73,0,0,1-1.08-4.45l-.21-1.74c-.33-2.67-.67-5.43-1.27-8.38a31.79,31.79,0,0,1-.43-4.12,30.19,30.19,0,0,0-.81-6.13,34.45,34.45,0,0,0-2.11-5.39,42.33,42.33,0,0,1-1.74-4.18,44.15,44.15,0,0,0-2.33-5.4c-.62-1.29-1.27-2.62-1.8-4a15.42,15.42,0,0,1-.72-4.24,17.31,17.31,0,0,0-1.24-6.07c-.57-1.24-1-2.57-1.53-4a40.73,40.73,0,0,0-2.32-5.67,18.21,18.21,0,0,0-3.91-4.59,18,18,0,0,1-3-3.34,34.56,34.56,0,0,0-3.62-4.69,39.52,39.52,0,0,1-2.73-3.37,23.16,23.16,0,0,1-2-3.85,23.52,23.52,0,0,0-2.93-5.28,31.17,31.17,0,0,0-4.27-4.18,37.82,37.82,0,0,1-3.17-3c-1.57-1.71-3.27-3.26-4.93-4.76-.83-.75-1.67-1.51-2.49-2.3s-1.55-1.51-2.32-2.27c-1.61-1.6-3.26-3.25-5.12-4.78-2.05-1.68-4.23-3.2-6.35-4.66l-1.94-1.36a18.26,18.26,0,0,1-3-3,18.68,18.68,0,0,0-4.53-4.23,16.11,16.11,0,0,0-5.91-1.75,15.23,15.23,0,0,1-4.28-1.08c-1-.52-2.08-1.08-3.11-1.64a58,58,0,0,0-6-3,20.84,20.84,0,0,1-3.68-2.18,21.16,21.16,0,0,0-5.4-3c-1.26-.42-2.52-1-3.86-1.54A39.17,39.17,0,0,0,358.64,82a20.73,20.73,0,0,0-6-.34,21.62,21.62,0,0,1-4.52-.12,55.77,55.77,0,0,0-6.24-.66c-1.31-.09-2.66-.19-4-.34a21.11,21.11,0,0,1-4.2-1.13,22.23,22.23,0,0,0-6-1.43,16.65,16.65,0,0,0-5.95,1.14,15.11,15.11,0,0,1-4.42,1c-1.49,0-3-.15-4.52-.3a37.73,37.73,0,0,0-5.95-.28c-2.54.14-5,.46-7.37.78l-3.06.39a43.66,43.66,0,0,1-4.49.2,36.5,36.5,0,0,0-6,.42,24.62,24.62,0,0,1-4.62.23,23.59,23.59,0,0,0-6.08.47c-2.4.61-4.73,1.44-7,2.25-1.07.38-2.12.75-3.16,1.1a25.52,25.52,0,0,0-5.59,2.91,27.7,27.7,0,0,1-3.83,2.15,38.12,38.12,0,0,1-4.23,1.37,32.47,32.47,0,0,0-5.83,2.08,22.22,22.22,0,0,0-5,3.84,22.57,22.57,0,0,1-3.38,2.79,28.6,28.6,0,0,1-4.09,1.89,25.33,25.33,0,0,0-5.49,2.73,61.33,61.33,0,0,0-5.31,4.46c-.94.85-1.83,1.65-2.74,2.42-3.16,2.65-5.66,4.89-7.86,7a38.58,38.58,0,0,1-3.44,2.85A33.07,33.07,0,0,0,203.7,126a21.53,21.53,0,0,0-3.21,5.39,21.93,21.93,0,0,1-2.15,3.89c-1.61,2.09-3,4.26-4.41,6.36-.5.77-1,1.54-1.51,2.3a23.22,23.22,0,0,1-3,3.41,22.73,22.73,0,0,0-3.92,4.63L184,154.42c-1.31,2.21-2.66,4.49-3.8,6.79a45.67,45.67,0,0,0-2.33,6c-.47,1.39-.9,2.7-1.42,3.93-1.14,2.7-2.06,5.4-3,8l-.65,1.9a42.14,42.14,0,0,0-1.52,6.31c-.26,1.39-.51,2.71-.85,4-1,3.72-1.7,7.23-2.27,10.23-.28,1.48-.68,2.93-1.08,4.33a32.89,32.89,0,0,0-1.28,6,20.62,20.62,0,0,0,.59,5.92A19.5,19.5,0,0,1,167,222a12.08,12.08,0,0,1-1.33,4.17,14.21,14.21,0,0,0-1.64,5.92c0,2.49.25,5,.45,7.39.07.93.15,1.85.21,2.76A31.41,31.41,0,0,0,165.8,248a30.84,30.84,0,0,1,.92,4.24,20.08,20.08,0,0,0,.91,3.82c-1.38,2.75-13.64,28-12.21,47.87,1.49,20.86,8.52,28.05,8.82,28.35a2,2,0,0,0,2.83-2.83c-.07-.06-6.3-6.67-7.66-25.8-1.07-14.93,6.36-33.74,10-41.9l.06.26a16.2,16.2,0,0,1-.16,4.4,17.83,17.83,0,0,0-.07,5.88,14.21,14.21,0,0,0,2.89,5.42,11.9,11.9,0,0,1,2.15,3.73,37.75,37.75,0,0,1,.72,4.44.77.77,0,0,1,0,.15,2,2,0,0,0-.84,1c-.29.76-7.17,18.71-4.14,34,2.73,13.73,7.33,20.75,10.08,24.94q.47.69.84,1.29a2,2,0,0,0,3.38-2.14l-.87-1.35c-2.76-4.2-6.93-10.55-9.51-23.52-1.86-9.38.47-20.25,2.26-26.52,0,.66,0,1.34,0,2.05a18.13,18.13,0,0,0,.44,5.8,17.49,17.49,0,0,0,2.74,5.05,15,15,0,0,1,2.19,3.87c.52,1.7,1.21,3.34,1.87,4.92s1.25,3,1.72,4.47a2,2,0,0,0,1.9,1.41,2.09,2.09,0,0,0,.6-.1,2,2,0,0,0,1.31-2.5c-.52-1.68-1.19-3.28-1.84-4.83s-1.27-3-1.74-4.54a18.06,18.06,0,0,0-2.72-5,14.26,14.26,0,0,1-2.19-3.89,14.72,14.72,0,0,1-.28-4.54,18.9,18.9,0,0,0-.38-5.59,36.35,36.35,0,0,1-.84-4.89,40.79,40.79,0,0,0-.8-4.89,14.84,14.84,0,0,0-2.82-5.16,11.44,11.44,0,0,1-2.19-3.86,14.64,14.64,0,0,1,.12-4.59,19,19,0,0,0,.13-5.54,29.3,29.3,0,0,0-1.39-4.86,22.7,22.7,0,0,1-1.31-4.73,35.56,35.56,0,0,0-1-4.78,28.55,28.55,0,0,1-1-5c-.06-.92-.14-1.85-.21-2.79-.2-2.35-.39-4.78-.44-7.15a11.28,11.28,0,0,1,1.3-4.22,15.33,15.33,0,0,0,1.67-5.66,22.47,22.47,0,0,0-.61-5.15,17.87,17.87,0,0,1-.53-4.8,30.41,30.41,0,0,1,1.15-5.24c.42-1.48.85-3,1.16-4.65.55-2.93,1.23-6.35,2.2-9.93.38-1.41.66-2.86.92-4.27a40.6,40.6,0,0,1,1.37-5.74l.66-1.92c.87-2.54,1.77-5.18,2.85-7.75.58-1.37,1.06-2.81,1.53-4.21a42.56,42.56,0,0,1,2.12-5.48c1.07-2.16,2.33-4.29,3.66-6.53.48-.82,1-1.63,1.44-2.45a19.61,19.61,0,0,1,3.26-3.79,26.84,26.84,0,0,0,3.58-4l1.53-2.33c1.33-2,2.71-4.14,4.23-6.11a24.65,24.65,0,0,0,2.6-4.63,18.25,18.25,0,0,1,2.58-4.44,29.62,29.62,0,0,1,4.1-3.56,42.58,42.58,0,0,0,3.79-3.16c2.13-2.09,4.56-4.26,7.64-6.85,1-.82,1.93-1.68,2.85-2.52a57.73,57.73,0,0,1,5-4.17,21.46,21.46,0,0,1,4.63-2.27,29.62,29.62,0,0,0,4.69-2.19,24.77,24.77,0,0,0,4-3.28,19.6,19.6,0,0,1,4.08-3.2,29.74,29.74,0,0,1,5.11-1.79,43.25,43.25,0,0,0,4.68-1.53,30.12,30.12,0,0,0,4.42-2.46,23,23,0,0,1,4.72-2.5c1.07-.35,2.15-.74,3.24-1.13,2.16-.77,4.4-1.57,6.61-2.13a19.94,19.94,0,0,1,5.06-.35,28,28,0,0,0,5.38-.29,33.06,33.06,0,0,1,5.38-.36A48.52,48.52,0,0,0,297,84.7c1-.12,2.07-.26,3.12-.4,2.3-.3,4.68-.62,7.06-.75a33.88,33.88,0,0,1,5.34.27,48.4,48.4,0,0,0,4.91.32A18.3,18.3,0,0,0,323.06,83a13.32,13.32,0,0,1,4.5-.95,18.62,18.62,0,0,1,4.88,1.21,24,24,0,0,0,5,1.32c1.41.17,2.81.26,4.16.36a55.1,55.1,0,0,1,5.81.6,24.39,24.39,0,0,0,5.38.19,17.7,17.7,0,0,1,4.85.22,34.66,34.66,0,0,1,5.28,2c1.36.59,2.77,1.19,4.2,1.66A18.42,18.42,0,0,1,371.54,92,23.9,23.9,0,0,0,376,94.55a55.22,55.22,0,0,1,5.61,2.79c1.07.58,2.14,1.17,3.24,1.71a17.93,17.93,0,0,0,5.43,1.45,13.37,13.37,0,0,1,4.49,1.23,15.89,15.89,0,0,1,3.55,3.4,20.76,20.76,0,0,0,3.77,3.72c.65.47,1.31.92,2,1.37,2.15,1.49,4.17,2.89,6.09,4.47a66,66,0,0,1,4.83,4.52c.79.79,1.58,1.57,2.39,2.34s1.71,1.59,2.57,2.37c1.65,1.5,3.22,2.92,4.65,4.49a41.5,41.5,0,0,0,3.52,3.29,29,29,0,0,1,3.75,3.65,19.9,19.9,0,0,1,2.4,4.41,26.67,26.67,0,0,0,2.37,4.51,45,45,0,0,0,3,3.72,31.63,31.63,0,0,1,3.23,4.14,20.76,20.76,0,0,0,3.68,4.17,15.21,15.21,0,0,1,3.11,3.56,37,37,0,0,1,2.09,5.12c.5,1.43,1,2.9,1.67,4.31a14.59,14.59,0,0,1,.89,4.73,18.22,18.22,0,0,0,1,5.38c.58,1.49,1.27,2.89,1.92,4.25a41.11,41.11,0,0,1,2.14,4.91,43.17,43.17,0,0,0,1.89,4.59,31.25,31.25,0,0,1,1.89,4.75,28,28,0,0,1,.68,5.35,33.82,33.82,0,0,0,.5,4.67c.57,2.79.9,5.48,1.22,8.07l.22,1.76a31.26,31.26,0,0,0,1.2,5.07,23.73,23.73,0,0,1,1.09,4.85l.1,1.36c.23,3.05.44,5.93.5,8.76,0,1.58.16,3.14.29,4.64a47.25,47.25,0,0,1,.27,5.46l0,.93c0,.75-.05,1.49-.07,2.23a2,2,0,0,0-.38,2.17l.27.64c-.07,1.42-.14,2.81-.25,4.16-.17,2-.55,4-.91,5.93-.26,1.34-.52,2.73-.7,4.08a58.88,58.88,0,0,1-1.23,6.08c-.31,1.32-.61,2.57-.84,3.82a18.19,18.19,0,0,1-2.1,5.12,19,19,0,0,0-1.84,4.26,13,13,0,0,0-.25,6.67,5.16,5.16,0,0,1-.3,3.51,2,2,0,1,0,3.76,1.35,10,10,0,0,0,.71-3.76c1.38,6.42,2.82,16.37,1.09,25.09-2.58,13-6.75,19.32-9.51,23.52l-.87,1.35a2,2,0,0,0,3.38,2.14q.38-.6.84-1.29c2.75-4.19,7.35-11.21,10.08-24.94,3-15.2-2.69-33.11-2.93-33.86a2,2,0,0,0-1.12-1.21l.49-.95a21.62,21.62,0,0,0,2.5-6.27c.21-1.15.5-2.35.8-3.62a64,64,0,0,0,1.3-6.48c.17-1.24.41-2.51.67-3.86.16-.84.31-1.68.46-2.54,3.85,10.58,9.38,28.41,8.44,41.46-1.36,19.13-7.59,25.74-7.64,25.79a2,2,0,0,0,0,2.83,2,2,0,0,0,1.42.59,2,2,0,0,0,1.41-.58c.3-.3,7.33-7.49,8.82-28.35C485.89,285.63,475.67,259.66,473,253.13Z" style="fill:#a2aaad"/></svg>
