<svg xmlns="http://www.w3.org/2000/svg" viewBox="0 0 640 640"><title>face_mask_howto_03</title><path d="M48,101.5a51.24,51.24,0,0,1,1.9-14.2,55.93,55.93,0,0,1,5.4-12.8,51.71,51.71,0,0,1,8.3-10.8,54.11,54.11,0,0,1,10.8-8.4,55.93,55.93,0,0,1,12.8-5.4,54,54,0,0,1,28.4,0,55.93,55.93,0,0,1,12.8,5.4,49,49,0,0,1,10.8,8.4,53.6,53.6,0,0,1,8.3,10.8,55.93,55.93,0,0,1,5.4,12.8,54,54,0,0,1,0,28.4,55.93,55.93,0,0,1-5.4,12.8,51.71,51.71,0,0,1-8.3,10.8,53.6,53.6,0,0,1-10.8,8.3,55.93,55.93,0,0,1-12.8,5.4,54,54,0,0,1-28.4,0,55.93,55.93,0,0,1-12.8-5.4,51.71,51.71,0,0,1-10.8-8.3,53.6,53.6,0,0,1-8.3-10.8,55.93,55.93,0,0,1-5.4-12.8A51.24,51.24,0,0,1,48,101.5Zm5,0a50.74,50.74,0,0,0,1.7,12.9A51.83,51.83,0,0,0,59.6,126a45.18,45.18,0,0,0,7.6,9.8,47.72,47.72,0,0,0,9.8,7.6,49.94,49.94,0,0,0,11.6,4.9,45.66,45.66,0,0,0,12.9,1.7,49.58,49.58,0,0,0,12.9-1.7,51.83,51.83,0,0,0,11.6-4.9,47.72,47.72,0,0,0,9.8-7.6,48.21,48.21,0,0,0,12.5-21.4,45.66,45.66,0,0,0,1.7-12.9,49.58,49.58,0,0,0-1.7-12.9A51.83,51.83,0,0,0,143.4,77,49.43,49.43,0,0,0,126,59.6a49.94,49.94,0,0,0-11.6-4.9A45.66,45.66,0,0,0,101.5,53a49.58,49.58,0,0,0-12.9,1.7A51.83,51.83,0,0,0,77,59.6a45.18,45.18,0,0,0-9.8,7.6A47.72,47.72,0,0,0,59.6,77a49.94,49.94,0,0,0-4.9,11.6A45.66,45.66,0,0,0,53,101.5Zm33-12a24,24,0,0,1,2-6.7,14.58,14.58,0,0,1,3.7-4.7,13.73,13.73,0,0,1,5-2.8,20,20,0,0,1,6.1-.9,17.69,17.69,0,0,1,6.3,1.1,13.39,13.39,0,0,1,4.6,2.9,11.91,11.91,0,0,1,2.8,4.2,14.26,14.26,0,0,1,.9,5c0,3.3-.6,5.8-1.9,7.7a11,11,0,0,1-5.5,4.1,12,12,0,0,1,6.1,3.9,11.73,11.73,0,0,1,2,7.1,17.39,17.39,0,0,1-1.1,6.1,13.83,13.83,0,0,1-3.2,5,14.49,14.49,0,0,1-5.2,3.3,19.19,19.19,0,0,1-7.1,1.2,20.16,20.16,0,0,1-6.4-.9,12.87,12.87,0,0,1-4.7-2.7,16.17,16.17,0,0,1-3.4-4.3,37.57,37.57,0,0,1-2.4-5.7l4.9-2.1a5.75,5.75,0,0,1,3.3-.4,2.84,2.84,0,0,1,2,1.7,14.68,14.68,0,0,0,.9,1.7,7.34,7.34,0,0,0,1.4,1.8,7.71,7.71,0,0,0,2.1,1.4,6.53,6.53,0,0,0,2.9.6,6.09,6.09,0,0,0,2.8-.6,6.18,6.18,0,0,0,2-1.5,5.21,5.21,0,0,0,1.2-2.2,7.46,7.46,0,0,0,.4-2.6,5.3,5.3,0,0,0-2.4-4.9c-1.6-1-4.3-1.5-7.9-1.5v-8c3.3,0,5.7-.5,7.2-1.6a5.8,5.8,0,0,0,2.2-5,5.44,5.44,0,0,0-1.5-4.1,5.63,5.63,0,0,0-4.2-1.4,6.58,6.58,0,0,0-3.8,1.2,7,7,0,0,0-2.6,3.6,9.74,9.74,0,0,0-.5,1.1,4.35,4.35,0,0,1-.6.7,1.49,1.49,0,0,1-1,.3,5.25,5.25,0,0,1-1.7-.1Z"/><path d="M468.44,393.33a1.94,1.94,0,0,1-.71-.13,2,2,0,0,1-1.16-2.58c9.53-25.15,10.47-56.39,2.87-95.51-4.93-25.36-11.32-45.61-19.55-61.92a2,2,0,0,1,3.57-1.81c8.4,16.65,14.91,37.25,19.91,63,7.74,39.88,6.74,71.83-3.06,97.7A2,2,0,0,1,468.44,393.33ZM239.53,319.19a2,2,0,0,0,1.58-2.34c-1.76-9.09-1.38-15.61,1.2-20.54,3.21-6.12,10.05-10.12,20.91-12.23s18.69-1,24,3.51c4.24,3.6,7,9.51,8.8,18.59a2,2,0,1,0,3.93-.76c-2-10-5.17-16.66-10.14-20.88-6.26-5.31-15.19-6.75-27.32-4.39s-19.87,7-23.68,14.3c-3,5.78-3.53,13.13-1.58,23.16a2,2,0,0,0,2,1.62A1.69,1.69,0,0,0,239.53,319.19Zm30.17-1.73c15.48-3,23-8.63,23.31-8.87a2,2,0,0,0-2.42-3.19c-.07.06-7.18,5.32-21.65,8.13s-23,.59-23.12.57a2,2,0,0,0-1,3.86,41,41,0,0,0,10.12,1A77.71,77.71,0,0,0,269.7,317.46Zm24,71.62c1,0,24.54-.61,39.73-3.56s37.24-11.23,38.17-11.58a2,2,0,1,0-1.41-3.74c-.23.09-22.67,8.51-37.52,11.39s-38.82,3.48-39.06,3.49a2,2,0,0,0,0,4Zm40.92,2.59c25.8-5,32.27-12.18,32.53-12.48a2,2,0,0,0-.18-2.79,2,2,0,0,0-2.82.14c-.06.07-6.21,6.52-30.29,11.2s-32.2,1-32.26,1a2,2,0,1,0-1.81,3.57c.22.11,3.75,1.83,12.8,1.83A116.88,116.88,0,0,0,334.62,391.67Zm2.71-91.48a2,2,0,0,0,1.58-2.35c-2.77-14.25-2-28.08,22.11-32.76,10.85-2.11,18.69-1,24,3.51,4.24,3.6,7,9.51,8.8,18.59a2,2,0,0,0,3.93-.76c-2.84-14.6-9.66-30.67-37.46-25.27S332.15,284,335,298.61a2,2,0,0,0,2,1.62A2.58,2.58,0,0,0,337.33,300.19Zm30.17-1.73c15.48-3,23-8.63,23.31-8.87a2,2,0,0,0-2.42-3.19c-.07.06-7.18,5.32-21.65,8.13s-23,.59-23.12.57a2,2,0,0,0-1.05,3.86,41.64,41.64,0,0,0,10.12,1A77.71,77.71,0,0,0,367.5,298.46Zm-59.66,58.26,38.53-7.49c3.28-.64,5.48-2,6.56-4.09,1.2-2.31.95-5.27-.75-9.05-2.62-5.82-11.28-25.25-11.28-25.25l-3.65,1.63s8.66,19.43,11.28,25.26c1.14,2.52,1.43,4.45.85,5.56-.49.95-1.76,1.62-3.77,2l-38.53,7.49c-2,.39-3.45.24-4.25-.45-1-.82-1.41-2.71-1.3-5.47.25-6.39,1-27.65,1-27.65l-4-.15s-.76,21.26-1,27.64c-.16,4.14.72,7,2.69,8.67a7.31,7.31,0,0,0,4.92,1.62A14.75,14.75,0,0,0,307.84,356.72ZM444.68,220a2,2,0,0,0,.55-2.78c-13.69-20.56-31.5-34.15-54.45-41.55-25.52-8.24-56.62-8.61-95.07-1.14-36.1,7-63.53,18-83.85,33.55a2,2,0,0,0,2.44,3.18c19.54-15,47.19-26,82.18-32.8,37.76-7.34,68.21-7,93.07,1,22.06,7.12,39.18,20.19,52.35,40a2,2,0,0,0,1.67.89A2.05,2.05,0,0,0,444.68,220ZM177,270.88a100.8,100.8,0,0,1,14-34.74,2,2,0,1,0-3.35-2.18,105,105,0,0,0-14.53,36.11,2,2,0,0,0,1.56,2.36,1.9,1.9,0,0,0,.41,0A2,2,0,0,0,177,270.88ZM457.35,416.21c1.89-2.61,3.67-5.34,5.29-8.11a2,2,0,0,0-3.45-2c-1.56,2.67-3.27,5.29-5.09,7.8a2,2,0,0,0,.45,2.8,2.05,2.05,0,0,0,1.17.37A2,2,0,0,0,457.35,416.21ZM353.52,472c33.08-6.43,59.86-17.05,79.57-31.57a2,2,0,1,0-2.37-3.22c-19.23,14.16-45.47,24.55-78,30.86-53.2,10.34-93.08,4.57-121.91-17.63a2,2,0,1,0-2.44,3.17C248.73,469.27,274.25,477,305.69,477A252.51,252.51,0,0,0,353.52,472ZM218.1,441.7a2,2,0,0,0,.11-2.82c-18.25-19.76-30.82-48.38-38.42-87.5-4.93-25.35-6.58-46.53-5.06-64.73a2,2,0,0,0-1.83-2.16,2,2,0,0,0-2.16,1.82c-1.55,18.58.12,40.11,5.12,65.84,7.75,39.87,20.64,69.13,39.42,89.44a2,2,0,0,0,2.82.11Z"/><path d="M177.76,171.58a11.69,11.69,0,1,1-15.29-6.3A11.7,11.7,0,0,1,177.76,171.58Zm-17.23,23.73a11.69,11.69,0,1,0,15.29,6.3A11.7,11.7,0,0,0,160.53,195.31Zm54.2,31.53a8.31,8.31,0,1,0,10.87,4.48A8.32,8.32,0,0,0,214.73,226.84Zm-34.25-95.36A8.31,8.31,0,1,0,191.34,136,8.31,8.31,0,0,0,180.48,131.48Zm16.57-11a5.61,5.61,0,1,0,7.33,3A5.61,5.61,0,0,0,197.05,120.43ZM169.61,225.88a5.61,5.61,0,1,0,7.33,3A5.6,5.6,0,0,0,169.61,225.88ZM234.5,237a5.61,5.61,0,1,0,7.34,3A5.6,5.6,0,0,0,234.5,237Zm-48.13-55.35a8.31,8.31,0,1,0,10.87,4.48A8.31,8.31,0,0,0,186.37,181.64ZM476.21,476.41a11.69,11.69,0,1,0-13.7-9.26A11.69,11.69,0,0,0,476.21,476.41Zm3.26-31.28a11.69,11.69,0,1,0-15.29-6.3A11.7,11.7,0,0,0,479.47,445.13ZM433.92,415a8.31,8.31,0,1,0-10.87-4.48A8.32,8.32,0,0,0,433.92,415Zm27,93.09a8.32,8.32,0,1,0-9.74-6.59A8.33,8.33,0,0,0,460.89,508.05ZM440.31,519.9a5.61,5.61,0,1,0-6.58-4.44A5.61,5.61,0,0,0,440.31,519.9ZM411.19,409.2a5.61,5.61,0,1,0-7.34-3A5.61,5.61,0,0,0,411.19,409.2Zm42.94,52.16a8.31,8.31,0,1,0-10.87-4.47A8.31,8.31,0,0,0,454.13,461.36ZM428.26,245.1l16.43-9.2a2,2,0,1,0-1.95-3.49l-9.09,5.09,7.59-11.26a2,2,0,1,0-3.31-2.24l-12.3,18.24a2,2,0,0,0,1.66,3.11A2,2,0,0,0,428.26,245.1Zm29.15,158.31a2,2,0,0,1-1.6-.8L442.65,385a2,2,0,0,1,2.49-3L462,390.4a2,2,0,0,1-1.79,3.58l-9.32-4.65L459,400.21a2,2,0,0,1-1.6,3.2ZM199.5,289.61a1.14,1.14,0,0,1-.26,0l-18.68-2.38a2,2,0,1,1,.51-4l10.33,1.31L180.15,277a2,2,0,0,1,2.23-3.32L200.61,286a2,2,0,0,1-1.11,3.66Zm31.25,157.84a1.79,1.79,0,0,1-.51-.07,2,2,0,0,1-1.43-2.44l3.46-13.13-6.9,7.8a2,2,0,0,1-3-2.65l12.48-14.1a2,2,0,0,1,3.43,1.83L232.68,446A2,2,0,0,1,230.75,447.45ZM196.64,232a13.7,13.7,0,1,1,12.62-19h0a13.68,13.68,0,0,1-7.38,17.9A13.48,13.48,0,0,1,196.64,232Zm0-23.39a9.69,9.69,0,1,0,8.95,6h0a9.67,9.67,0,0,0-8.94-6Zm-7.44-38.17a10.31,10.31,0,1,1,3.95-.79A10.2,10.2,0,0,1,189.18,170.41Zm0-16.62a6.31,6.31,0,1,0,2.44,12.13,6.31,6.31,0,0,0-2.44-12.13ZM445.42,442.32a13.72,13.72,0,0,1-12.66-8.43h0a13.69,13.69,0,1,1,12.66,8.43Zm-9-10a9.69,9.69,0,1,0,5.22-12.67,9.7,9.7,0,0,0-5.22,12.67Zm15.87,56.82a10.31,10.31,0,0,1-1.94-20.43A10.31,10.31,0,1,1,454.3,489,10.22,10.22,0,0,1,452.32,489.17Zm0-16.62a6.3,6.3,0,0,0-6.21,7.51h0a6.31,6.31,0,1,0,6.21-7.51Z" style="fill:#a2aaad"/></svg>
