<svg xmlns="http://www.w3.org/2000/svg" viewBox="0 0 640 640"><title>face_mask_howto_02</title><path d="M48,101.5a51.24,51.24,0,0,1,1.9-14.2,55.93,55.93,0,0,1,5.4-12.8,51.71,51.71,0,0,1,8.3-10.8,54.11,54.11,0,0,1,10.8-8.4,55.93,55.93,0,0,1,12.8-5.4,54,54,0,0,1,28.4,0,55.93,55.93,0,0,1,12.8,5.4,49,49,0,0,1,10.8,8.4,53.6,53.6,0,0,1,8.3,10.8,55.93,55.93,0,0,1,5.4,12.8,54,54,0,0,1,0,28.4,55.93,55.93,0,0,1-5.4,12.8,51.71,51.71,0,0,1-8.3,10.8,53.6,53.6,0,0,1-10.8,8.3,55.93,55.93,0,0,1-12.8,5.4,54,54,0,0,1-28.4,0,55.93,55.93,0,0,1-12.8-5.4,51.71,51.71,0,0,1-10.8-8.3,53.6,53.6,0,0,1-8.3-10.8,55.93,55.93,0,0,1-5.4-12.8A51.24,51.24,0,0,1,48,101.5Zm5,0a50.74,50.74,0,0,0,1.7,12.9A51.83,51.83,0,0,0,59.6,126a45.18,45.18,0,0,0,7.6,9.8,47.72,47.72,0,0,0,9.8,7.6,49.94,49.94,0,0,0,11.6,4.9,45.66,45.66,0,0,0,12.9,1.7,49.58,49.58,0,0,0,12.9-1.7,51.83,51.83,0,0,0,11.6-4.9,47.72,47.72,0,0,0,9.8-7.6,48.21,48.21,0,0,0,12.5-21.4,45.66,45.66,0,0,0,1.7-12.9,49.58,49.58,0,0,0-1.7-12.9A51.83,51.83,0,0,0,143.4,77,49.43,49.43,0,0,0,126,59.6a49.94,49.94,0,0,0-11.6-4.9A45.66,45.66,0,0,0,101.5,53a49.58,49.58,0,0,0-12.9,1.7A51.83,51.83,0,0,0,77,59.6a45.18,45.18,0,0,0-9.8,7.6A47.72,47.72,0,0,0,59.6,77a49.94,49.94,0,0,0-4.9,11.6A45.66,45.66,0,0,0,53,101.5ZM115.3,115a3.34,3.34,0,0,1,2.7,1,3.62,3.62,0,0,1,1,2.7v6.7H84.4v-3.7a6.31,6.31,0,0,1,1.9-4.6l13.1-14.3c1.1-1.2,2.2-2.4,3.1-3.5s1.8-2.2,2.6-3.3a16.56,16.56,0,0,0,1.7-3.2,9.74,9.74,0,0,0,.6-3.4,5.36,5.36,0,0,0-1.6-4.2,5.92,5.92,0,0,0-4.3-1.5,6,6,0,0,0-3.6,1.2,6.06,6.06,0,0,0-2.3,3.8,3.12,3.12,0,0,1-1.7,2,5,5,0,0,1-3.3.2l-5.8-1.4A18.89,18.89,0,0,1,87,82.8a15.36,15.36,0,0,1,4-4.7,15,15,0,0,1,5.3-2.8,21.13,21.13,0,0,1,6.2-.9,19.26,19.26,0,0,1,6.5,1.1,16.19,16.19,0,0,1,5.1,3.1,14.27,14.27,0,0,1,3.3,4.7,14.48,14.48,0,0,1,1.2,5.9,12.22,12.22,0,0,1-1,5.1,19.85,19.85,0,0,1-2.5,4.5,32.13,32.13,0,0,1-3.4,4.1l-3.7,4-8.5,9.5c1.3-.4,2.5-.7,3.7-1a22.27,22.27,0,0,1,3.4-.4Z"/><path d="M326.75,394.4c-1.06.63-2.13,1.25-3.22,1.85-3.11,1.7-6.21,3.22-9.29,4.59,1.71,4.44,3.51,9.16,5.33,14,3.78-1.71,7.59-3.58,11.39-5.65C329.4,403.34,328,398.25,326.75,394.4Z" style="fill:#a2aaad"/><path d="M334.07,421.12q-5.16,2.7-10.3,5c7.11,19.33,13.55,38.14,14.65,45.44,0,0-42,9.19-76.89,26.55S208.12,524,201,531.37s-11.21,5.83-9.72,11.52,30.48,4.9,46.51-1c25.73-9.56,48.39-21.49,73.33-30,20.09-6.89,28.62-8.95,34.77-11s5.69-6.1,4.14-12.79C347.77,478.17,340.5,446.46,334.07,421.12Z" style="fill:#a2aaad"/><path d="M303.86,374.58c1.23,3,3.38,8.33,6,15.06,2.61-1.18,5.24-2.47,7.87-3.91,1.69-.93,3.33-1.91,4.95-2.91C310.45,349.4,285.45,290,278,268.93c-8.15-23.11-16.56-61.42-16.56-61.42L257,209.86s6.6,41.17,10.65,59.22C272.75,291.66,298,360.44,303.86,374.58Z" style="fill:#a2aaad"/><path d="M343.23,401.66c-1.68-4.89-3.42-9.84-5.22-14.81q-1.65,1.26-3.36,2.46c1.64,4.58,3.25,9.14,4.79,13.64l.36,1c1.16-.73,2.32-1.47,3.46-2.23Z"/><path d="M283.7,256.13c5.76,17.15,14.54,39.24,23.83,62.63,7.35,18.5,15.39,38.74,22.84,58.83,1.12-.84,2.22-1.71,3.3-2.6-7.34-19.73-15.21-39.55-22.42-57.71-9.27-23.33-18-45.37-23.76-62.42-12.05-35.88-13.73-41.66-13.75-41.72a2,2,0,0,0-3.84,1.1C270,214.46,271.56,220,283.7,256.13Z"/><path d="M316.15,400c-1.22.57-2.44,1.1-3.66,1.62,1.84,4.7,3.62,9.4,5.32,14,1.22-.53,2.43-1.08,3.65-1.65C319.77,409.36,318,404.67,316.15,400Z"/><path d="M343.66,415.71c14.21,44.5,19.2,77.34,19.93,90.42-8.51,3.56-58.12,24-109,38.77-4.33,1.26-8.86,2.66-13.24,4-21.18,6.55-45.2,14-48.88,4.77-5.05-12.62,5.26-19.22,25.46-30.76,2.76-1.57,5.62-3.2,8.57-4.95,47.81-28.18,111.77-44.34,112.41-44.5a2,2,0,0,0,1.44-2.49c-.08-.28-5.94-20.53-14.8-45.69-1.22.56-2.44,1.1-3.66,1.63,7.18,20.42,12.36,37.55,14,43.2-11.33,3-68,18.76-111.46,44.41-2.93,1.73-5.77,3.35-8.52,4.92-18.87,10.77-33.77,19.28-27.2,35.71,2,5,6.82,6.84,13.48,6.84,10.33,0,25.06-4.55,40.3-9.27,4.36-1.35,8.87-2.74,13.18-4,55.88-16.2,110.2-39.24,110.74-39.47a2,2,0,0,0,1.22-1.91c0-.36-1.46-34.62-20.49-93.82C346,414.27,344.84,415,343.66,415.71Z"/><path d="M266.42,272.5c8,33.78,27.17,81.89,41.62,118,1.22-.53,2.43-1.07,3.65-1.64C297.3,352.89,278.26,305,270.31,271.58c-3.57-15-7.75-38.67-10.65-60.27a2,2,0,0,0-4,.54C258.61,233.56,262.82,257.37,266.42,272.5Z"/><path d="M244.84,177.81h0a2,2,0,0,0,0-4c-.36,0-35.68,0-63.17,7.67-35.53,9.93-65.14,30.27-65.44,30.48a2,2,0,0,0-.76,2.27,126.14,126.14,0,0,0,4.76,12.25c-.48,3-2,15.8,2.37,38.13,3,15.57,13.47,38.38,14.58,40.77l4,15.61c-1.8,4.76-11.22,34.1,2.33,98.75,11.81,56.41,30.88,99.68,32.78,103.9l1.2,16.43a2,2,0,0,0,2,1.85h.15a2,2,0,0,0,1.84-2.15L180.26,523a1.81,1.81,0,0,0-.18-.68c-.2-.44-20.36-44.72-32.65-103.39-7.45-35.57-7.68-60.06-6.56-74.34,1.22-15.45,4.23-22.58,4.25-22.65a2,2,0,0,0,.11-1.29l-4.18-16.43a2.48,2.48,0,0,0-.13-.35c-.11-.24-11.32-24.4-14.36-40-4.73-24.37-2.28-37.14-2.25-37.26a2,2,0,0,0-.17-1.29,108.26,108.26,0,0,1-4.34-10.89c5.93-3.9,32.21-20.47,63-29.07C209.43,177.89,243.73,177.81,244.84,177.81Z"/><path d="M243,439.32c-4.6,0-7.24-.21-7.35-.22a2,2,0,1,1,.38-4c.48,0,49.44,3.6,97.45-22.76,28.19-15.48,50.56-38.11,66.49-67.25a2,2,0,1,1,3.51,1.92c-16.3,29.82-39.2,53-68.07,68.84C297.13,436.89,258.69,439.32,243,439.32ZM254,142a15.83,15.83,0,0,1,7.17-4.76c8.46,4.17,20.22,6.47,20.73,6.57a2,2,0,0,0,.76-3.93c-.12,0-12.38-2.41-20.36-6.56a2,2,0,0,0-1.37-.17,19.82,19.82,0,0,0-10,6.32c-1.31,1.6-2.66,3.45-4,5.25a62.2,62.2,0,0,1-7.23,8.82,2,2,0,0,0-.61,1.87,2,2,0,0,0,1.29,1.49c6.43,2.28,14,5.6,15.08,7a2,2,0,1,0,3.19-2.41c-1.79-2.38-9.31-5.51-14-7.29,1.9-2.14,3.73-4.67,5.53-7.13C251.48,145.22,252.74,143.5,254,142Zm-59.46,60.94c-4.08,4.78-2.65,13.38-2.59,13.74a2,2,0,0,0,2,1.66,2,2,0,0,0,.34,0,2,2,0,0,0,1.63-2.31c-.34-2-.69-7.67,1.69-10.46,1.72-2,7.25-6.18,13.54-10.25l.16-.1a108.46,108.46,0,0,1,16-8.76c15-6.15,33.56-15.47,39.69-19.19a232.87,232.87,0,0,0,33.29-25,2,2,0,1,0-2.73-2.92,228.8,228.8,0,0,1-32.64,24.53c-6,3.65-24.25,12.83-39.12,18.91a112.52,112.52,0,0,0-16.46,9c-44.2,9.11-77.74,29.51-78.07,29.72a2,2,0,0,0,1.05,3.7,2,2,0,0,0,1-.29,266.51,266.51,0,0,1,67.12-27A41.7,41.7,0,0,0,194.52,202.92Zm52.32,47.74a2,2,0,0,0,.5-1.14c.08-.83,2-20.45,1.38-32a2,2,0,0,0-.2-.76c2.27-1.21,4.49-2.41,6.54-3.52,3.16-1.71,5.9-3.19,7.32-3.9,5.3-2.64,41.29-15.86,49.34-16.74a164.65,164.65,0,0,1,17.46-.2,67.52,67.52,0,0,0-8.33,7.18l-1.08,1.13c-4.37,4.57-6.77,7.09-9.93,8.43-6.28,2.67-16.45,3-30.22.87a2,2,0,0,0-.6,4,111.21,111.21,0,0,0,16.54,1.4c6.54,0,11.84-.85,15.85-2.55s6.52-4.39,11.25-9.35l1.08-1.12a79.19,79.19,0,0,1,12.19-9.81c7.32.17,15.41.33,23,.19,17.23-.33,37.78-10.37,48.5-16.33,7.39-4.11,17.16-9.7,17.26-9.76a2,2,0,0,0-2-3.47c-.09.06-9.85,5.64-17.22,9.73-10.39,5.78-30.27,15.52-46.62,15.83-8.09.15-16.83-.05-24.55-.22-9.75-.22-18.17-.41-23,.12-8.85,1-45.65,14.62-50.69,17.13-1.48.74-4.11,2.16-7.44,4-8.27,4.48-20.77,11.24-25.79,12.93-7.25,2.43-22.49,4.09-25.17,3.1a2,2,0,1,0-1.38,3.75,14.62,14.62,0,0,0,4.54.5c6.64,0,17.67-1.68,23.28-3.56,3.45-1.16,9.73-4.31,16.14-7.69.43,10.2-1,26.3-1.35,29.75-9.16,9.64-37.44,22.1-37.77,22.24-24.27,11.33-56.57,26.76-56.89,26.92a2,2,0,0,0,.86,3.8,2,2,0,0,0,.86-.19c.32-.16,32.6-15.58,56.82-26.88C208.53,273.81,237.6,261,246.84,250.66ZM297,85.21c.22,0,22-1.63,35.93-1,7.44.34,37.58,4.55,64.16,8.27,24.21,3.38,47.08,6.58,52,6.77,8.5.32,31.67,25.73,45.17,42.72a2,2,0,0,0,1.57.76,2,2,0,0,0,1.24-.43,2,2,0,0,0,.33-2.81c-3.56-4.48-35.11-43.74-48.16-44.24-4.73-.18-27.5-3.36-51.61-6.73-28-3.91-56.9-8-64.53-8.3-14.14-.64-36.19,1-36.41,1a2,2,0,1,0,.3,4Zm-92.65,84.61a2,2,0,0,0,3.19-2.42,48.5,48.5,0,0,1-4.53-7.35c-1.59-3.36-2.86-15.09.66-18.5,4.69-4.54,16.66-18.58,23-27.92,3.38-5,5.78-9.11,8.32-13.44,2.26-3.84,4.59-7.82,7.85-12.88,5-7.8,15-5.18,21.53-3.44,1.47.39,2.73.72,3.81.91,5.91,1,17.48.91,18,.9a2,2,0,0,0,0-4h0c-.12,0-11.69.11-17.25-.84-.9-.16-2.09-.47-3.47-.84-7.22-1.91-19.3-5.1-25.91,5.14-3.31,5.13-5.66,9.15-7.94,13-2.51,4.28-4.88,8.31-8.19,13.22a236.62,236.62,0,0,1-22.43,27.29c-5.48,5.31-3.23,19.38-1.49,23.07A52.19,52.19,0,0,0,204.38,169.82Zm222.53,6.49a2,2,0,0,0-.19,2.82c.52.61,52.64,60.59,70.68,89.05a2,2,0,0,0,1.69.93,2,2,0,0,0,1.07-.31,2,2,0,0,0,.62-2.76c-18.2-28.71-70.52-88.93-71-89.53A2,2,0,0,0,426.91,176.31ZM378.43,201.1c6.27-.49,13.38-1,22.39-6.8A173.89,173.89,0,0,0,420.92,179a2,2,0,0,0-2.67-3,175.8,175.8,0,0,1-19.58,14.87c-8.17,5.21-14.47,5.7-20.56,6.19-2.2.17-4.28.33-6.42.71-7.92,1.42-20.72,5.37-21.26,5.54a2,2,0,0,0,.59,3.91,2.08,2.08,0,0,0,.6-.09c.13,0,13.09-4.05,20.78-5.42C374.33,201.43,376.32,201.27,378.43,201.1Zm-69,230.67q-1.9.68-3.78,1.29c3,8.79,5.57,16.78,7.37,22.6-7.34,2-32.57,8.91-48,16.12-17.5,8.15-43.85,21.65-54.22,27.78a183.9,183.9,0,0,0-26.25,19.27,2,2,0,0,0,2.68,3,183.32,183.32,0,0,1,25.6-18.8c10.29-6.08,36.47-19.49,53.88-27.6s49.06-16.31,49.37-16.39a2,2,0,0,0,1.25-1,2,2,0,0,0,.17-1.56C315.67,450.54,312.81,441.66,309.45,431.77Zm214.86-53.56c-.2-.34-5-8.5-16.38-22.66-10.41-13-28.49-33.76-55.5-58.6C430.72,277,421,268.83,403.23,254c-2.93-2.45-6.1-5.09-9.58-8a2,2,0,0,0-2.57,3.07l9.59,8c18.25,15.24,27.41,22.88,49.05,42.78,45.85,42.17,66.46,72.95,70.42,79.19-5.82,7.24-39.65,48.83-77.32,86.05-3.21,3.17-6.52,6.56-9.72,9.84-15.5,15.86-33.06,33.84-40.69,27.5-10.45-8.68-4.55-19.4,7.71-39.17,1.67-2.7,3.41-5.5,5.17-8.44,28.58-47.57,77.1-92.28,77.58-92.72a2,2,0,0,0,.65-1.43,2,2,0,0,0-.57-1.45c-.28-.28-28.08-28.46-58.5-53.7-6.26-5.2-11.88-9.74-17.3-14.13-14.48-11.72-27-21.84-44.35-38.35A2,2,0,1,0,360,256c17.49,16.62,30,26.79,44.59,38.56,5.42,4.38,11,8.92,17.26,14.09,26.32,21.84,50.68,45.9,56.76,52-8.52,8-50.78,48.9-76.78,92.19q-2.64,4.36-5.15,8.39c-11.45,18.46-20.49,33.05-6.87,44.36a9.52,9.52,0,0,0,6.29,2.27c10.45,0,24.79-14.68,39.82-30.05,3.19-3.27,6.49-6.65,9.67-9.79,41.4-40.9,78.16-87.05,78.53-87.51A2,2,0,0,0,524.31,378.21ZM247.9,268.48c1.44,7.37,5.19,25.66,8.89,36,.7,1.94,1.61,4.51,2.67,7.54,6,17,17.11,48.55,25.27,65.89,2.27,4.83,4.87,11.08,7.56,18,1.27-.35,2.55-.72,3.85-1.12-2.77-7.16-5.45-13.62-7.79-18.59-8.08-17.16-19.16-48.62-25.11-65.52-1.07-3-2-5.61-2.68-7.56-4.51-12.58-9.28-38.3-9.33-38.55a2,2,0,0,0-3.23-1.19c-10.38,8.43-36.57,20.57-36.86,20.71-17.59,8.38-55.15,25.77-55.53,25.95a2,2,0,1,0,1.68,3.63c.38-.18,38-17.58,55.55-26C213.86,287.25,236.07,276.94,247.9,268.48Zm96.64-36a52.44,52.44,0,0,1,11.22.3,2,2,0,0,0,.72-3.93,53.88,53.88,0,0,0-12.19-.36c-7.47.47-19.21,2.77-25.94,5.8-6.2,2.8-9.88,3.19-13.82,2.93-4.15-.28-10.13-1.13-10.2-1.14a2,2,0,1,0-.56,4c.25,0,6.19.88,10.5,1.17.73.05,1.46.08,2.19.08,3.74,0,7.74-.74,13.54-3.35C326.22,235.14,337.58,232.93,344.54,232.49Zm16-10.8c-.15-.27-3.68-6.65-8-9.51-4.73-3.12-10.59-4.12-14.54-4.41a87.69,87.69,0,0,1,6.8-6.94,2,2,0,0,0-2.62-3,107.64,107.64,0,0,0-10,10.54l0,0c-1.28,1.5-2.64,3.15-4.11,5-5.52,6.94-10.61,10.81-16,12.16s-21-1.43-26.61-2.61a2,2,0,0,0-.82,3.92c1.76.36,14.84,3,23.45,3a21.14,21.14,0,0,0,5-.47c6.3-1.58,12.07-5.89,18.17-13.55,1.21-1.52,2.36-2.91,3.44-4.19,2.51,0,10.19.23,15.71,3.87,3.51,2.31,6.68,8,6.71,8.1a2,2,0,0,0,1.76,1,2,2,0,0,0,1.75-3ZM300.39,406.06c-1.29.4-2.58.78-3.84,1.14,1.76,4.78,3.52,9.69,5.22,14.53,1.25-.41,2.51-.84,3.78-1.28C303.87,415.66,302.13,410.8,300.39,406.06Zm21.22-13.32A112.94,112.94,0,0,0,366.82,347a2,2,0,1,0-3.51-1.92,108.92,108.92,0,0,1-43.63,44.12c-31.5,17.3-63.65,15-64,15a2,2,0,0,0-.41,4c.08,0,1.95.17,5.2.17C271.09,408.33,296.25,406.66,321.61,392.74Z" style="fill:#a2aaad"/></svg>
