<svg xmlns="http://www.w3.org/2000/svg" xmlns:xlink="http://www.w3.org/1999/xlink" viewBox="0 0 640 640"><defs><linearGradient id="a" x1="364.57" y1="314.34" x2="364.57" y2="199.04" gradientUnits="userSpaceOnUse"><stop offset="0" stop-color="#fff"/><stop offset="0.42" stop-color="#a2aaad"/></linearGradient></defs><title>face_mask_howto_01</title><path d="M48,101.5a51.24,51.24,0,0,1,1.9-14.2,55.93,55.93,0,0,1,5.4-12.8,51.71,51.71,0,0,1,8.3-10.8,54.11,54.11,0,0,1,10.8-8.4,55.93,55.93,0,0,1,12.8-5.4,54,54,0,0,1,28.4,0,55.93,55.93,0,0,1,12.8,5.4,49,49,0,0,1,10.8,8.4,53.6,53.6,0,0,1,8.3,10.8,55.93,55.93,0,0,1,5.4,12.8,54,54,0,0,1,0,28.4,55.93,55.93,0,0,1-5.4,12.8,51.71,51.71,0,0,1-8.3,10.8,53.6,53.6,0,0,1-10.8,8.3,55.93,55.93,0,0,1-12.8,5.4,54,54,0,0,1-28.4,0,55.93,55.93,0,0,1-12.8-5.4,51.71,51.71,0,0,1-10.8-8.3,53.6,53.6,0,0,1-8.3-10.8,55.93,55.93,0,0,1-5.4-12.8A51.24,51.24,0,0,1,48,101.5Zm5,0a50.74,50.74,0,0,0,1.7,12.9A51.83,51.83,0,0,0,59.6,126a45.18,45.18,0,0,0,7.6,9.8,47.72,47.72,0,0,0,9.8,7.6,49.94,49.94,0,0,0,11.6,4.9,45.66,45.66,0,0,0,12.9,1.7,49.58,49.58,0,0,0,12.9-1.7,51.83,51.83,0,0,0,11.6-4.9,47.72,47.72,0,0,0,9.8-7.6,48.21,48.21,0,0,0,12.5-21.4,45.66,45.66,0,0,0,1.7-12.9,49.58,49.58,0,0,0-1.7-12.9A51.83,51.83,0,0,0,143.4,77,49.43,49.43,0,0,0,126,59.6a49.94,49.94,0,0,0-11.6-4.9A45.66,45.66,0,0,0,101.5,53a49.58,49.58,0,0,0-12.9,1.7A51.83,51.83,0,0,0,77,59.6a45.18,45.18,0,0,0-9.8,7.6A47.72,47.72,0,0,0,59.6,77a49.94,49.94,0,0,0-4.9,11.6A45.66,45.66,0,0,0,53,101.5Zm56.2-26.6v50.5H98.4v-32a22.6,22.6,0,0,1,.1-2.6,24.52,24.52,0,0,1,.2-2.7l-4.8,4.5a3.92,3.92,0,0,1-1.4.8,4.4,4.4,0,0,1-1.6.2,3.17,3.17,0,0,1-1.6-.4,2.94,2.94,0,0,1-1.2-1l-2.9-3.6,15.2-13.7Z"/><path d="M304.14,377.81s2.69-36.89,2.81-52.74c.14-19.84-8-83.41-10.14-96.35S285,156.89,286.09,143.51c0,0,33.89.19,66.4-7.54s51-12.77,58.41-17.59,10.48-2.69,10.34-7.72-14.05-14.3-28.62-15.91-65.07-2.9-83.27-3.44-27.48-.53-33,0-5.93,4-5.93,9.88c0,12.85,8.29,92.89,10,109.59,2.76,27.37,16.59,89.93,18.91,110.81s1.43,56.05,0,64.61Z" style="fill:#a2aaad"/><path d="M374.45,314.34V286.87c0-20,6.34-40.92,6.34-40.92,2.12-1.1,15,1.08,15,1.08l-31.24-48-31.24,48s12.9-2.18,15-1.08c0,0,6.33,21,6.33,40.92v27.47" style="fill:url(#a)"/><path d="M420.87,380.51h0Z" style="fill:#231815"/><path d="M410.78,336.51a2.1,2.1,0,0,1-.13-.74c0-2.86.14-7.27.33-12.09a2.12,2.12,0,0,1,.25-.89c.08-.15,8.65-16.71,14.61-88.75,6.08-73.59-2.44-102.06-2.53-102.34a2.08,2.08,0,0,1-.09-.6,61.56,61.56,0,0,1,1.55-12.43,2,2,0,0,1,3.89.94,59.47,59.47,0,0,0-1.44,11.21c1,3.43,8.48,32.45,2.6,103.55-5.59,67.69-13.38,86.81-14.86,89.9-.17,4.4-.26,8.43-.3,11.18l1.67,4.41a2.1,2.1,0,0,1,.06.24l-4.44-.51ZM426.12,97.78c-2.13-12.87-31-15.7-60.3-17.49C328.69,78,262.2,78,261.54,78a2,2,0,0,0-2,2c0,.62.07,62.17,6.9,121.88,2.91,25.52,8.14,52.81,12.75,76.88,4,20.79,7.75,40.42,9.39,55.54,3.47,32.07,2.47,42.82,2.46,42.93a2,2,0,0,0,1.78,2.19H293a2,2,0,0,0,2-1.79c0-.44,1.07-11.12-2.47-43.77-1.65-15.28-5.43-35-9.43-55.86-4.6-24-9.81-51.22-12.71-76.58C264.31,148,263.62,93.06,263.54,82c11.42,0,68.66.25,102,2.28,17.8,1.09,54.82,3.35,56.61,14.16,2.25,13.59-12,19.32-33.93,26.5C343.08,139.73,286.6,141.49,286,141.51a2,2,0,0,0-1.94,2.12c0,.34,2.23,34.22,7.79,67.66l.63,3.78c5.49,33,13,78.13,13.52,108.37.2,11.77-.64,29-2.49,51.32a2.18,2.18,0,0,0,.06.63c1.23-1.36,2.68-2.81,4.25-4.3,1.64-20.49,2.37-36.53,2.18-47.71-.52-30.55-8.07-75.87-13.57-109l-.63-3.78c-4.75-28.54-7-57.4-7.61-65.21,10.7-.47,60.48-3.32,101.26-16.67C409,122.37,429.1,115.78,426.12,97.78ZM418,383.3c-.26-.27-.52-.51-.78-.77-1.51,5.46-10.35,31.52-43.9,40-24.53,6.21-49.43-1-61.19-5.34-.79.95-1.69,2.05-2.66,3.27,8.44,3.24,24.94,8.49,43.55,8.49a87,87,0,0,0,21.28-2.54c20.76-5.26,32.45-16.93,38.6-25.79A59.58,59.58,0,0,0,420.36,386C419.45,384.88,418.65,384,418,383.3Z"/><path d="M307.48,227.21c-3.65-18.52-9.44-54.94-10.19-69.86a2,2,0,0,1,1.9-2.1c.27,0,27.11-1.46,43.41-4.61,17.09-3.3,41.8-8.73,51.33-11.56,12.89-3.83,19.57-7.63,19.63-7.67a2,2,0,0,1,2,3.46c-.28.17-7.1,4.06-20.5,8-9.64,2.86-34.52,8.34-51.7,11.66-13.94,2.69-35.34,4.15-41.95,4.56,1.1,15.65,6.6,50.1,10,67.3,3.65,18.53,8.71,56.15,9.95,68.68.89,8.91,1.41,22.68,1.61,28.66,10.76-4.3,25.28-6.67,25.95-6.77a2,2,0,1,1,.63,3.95c-.17,0-17.32,2.81-27.64,7.63a2,2,0,0,1-.85.19,2,2,0,0,1-2-1.95c0-.19-.54-19.86-1.68-31.32C316.15,283,311.11,245.62,307.48,227.21Zm77.89,96.17,1.44.51a34.21,34.21,0,0,0,12.34,2.51,37.44,37.44,0,0,0,6.68-.64,2,2,0,0,0-.71-3.94c-8,1.47-12.57-.14-17-1.7l-1.48-.52A71.07,71.07,0,0,0,374.05,317a2,2,0,1,0-.45,4A68.5,68.5,0,0,1,385.37,323.38Zm97.5,142.09c-.28-.1-27.72-10.15-33.5-23.57a229.11,229.11,0,0,1-8.13-22.68c-1.61-5.06-3.13-9.85-5-14.66-4-10.23-12.21-20.79-15.36-24a37.06,37.06,0,0,0-16.55-10.35c-7-2-21.55-8.38-29.64-12.25-7.31-3.49-16.39-13.07-18.7-16.91a19.52,19.52,0,0,1-3-9.61v-.1a12.53,12.53,0,0,1,.44-3.88,2,2,0,0,0-3.78-1.3,14.46,14.46,0,0,0-.6,3.4c-5.16.83-20.77,3.71-29.15,9.4a2,2,0,0,0-.87,1.55,196.83,196.83,0,0,1-2.49,22,2,2,0,0,0,.11,1.09,104.35,104.35,0,0,0-14.07,13c-8.87,10.52-21.15,23-25.71,26.9a194.81,194.81,0,0,1-28.56,20.12,2,2,0,0,0,2,3.5,201,201,0,0,0,29.23-20.6c4.65-4,17.15-16.68,26.14-27.34,5.92-7,19.41-17.45,23.3-19.08,2.78-1.15,7.24.6,8.73,1.37a2,2,0,0,0,1.86-3.54c-.72-.37-7.13-3.6-12.13-1.52a38.71,38.71,0,0,0-6.4,3.93c1.22-7.56,1.8-15.73,2-18.56,7.57-4.67,21-7.27,26.2-8.14a24,24,0,0,0,3.36,9.51c2.59,4.31,12.3,14.59,20.4,18.46,7.66,3.66,22.64,10.28,30.26,12.49a28.38,28.38,0,0,1,3.09,1.1,1.48,1.48,0,0,0-.1.27c-3.32,12.83-13.29,23.07-18.94,28-8,7-19.93,10.55-35.5,10.41s-26.35-4.23-30.39-6.1c6.12-5.86,13.84-13.3,16.55-17,3.66-5,10.06-18,9.89-22.07a2,2,0,0,0-4,.17c.09,2.2-5,13.94-9.11,19.52-2.69,3.64-11.48,12-17.3,17.6-2.35,2.25-4.2,4-5.2,5-3.45,3.51-24.15,29.69-27.39,36.91-1.71,3.82-3.78,10.75-6.17,18.77-1.89,6.33-4,13.52-6.29,20.07-4.53,13.2-17.68,26.81-25.11,33.75-5.28,4.93-12.4,11.41-12.47,11.48a2,2,0,1,0,2.69,3c.07-.07,7.21-6.57,12.51-11.52,7.7-7.19,21.35-21.35,26.17-35.37,2.1-6.11,4.09-12.72,5.88-18.71a66.78,66.78,0,0,1,11.09-7.28l1.2-.58c5.32-2.57,8.25-4,10.68-6.79,4.29-5,7.5-13.78,9.53-26.25a2,2,0,0,0-3.95-.65c-1.91,11.73-4.81,19.9-8.61,24.28-1.88,2.18-4.39,3.39-9.39,5.81l-1.21.58a58.72,58.72,0,0,0-7.42,4.45,132.78,132.78,0,0,1,4.52-13.36c2.83-6.31,23-32.13,26.6-35.76.66-.68,1.82-1.79,3.22-3.13,3,1.57,14.79,7,33.45,7.15h.75c16.21,0,28.8-3.83,37.42-11.41,5.92-5.2,16.31-15.91,20-29.53a36.7,36.7,0,0,1,8.08,6.4c3.3,3.41,10.94,13.58,14.5,22.71,1.83,4.69,3.33,9.42,4.91,14.42a232.42,232.42,0,0,0,8.28,23.05c6.46,15,34.61,25.32,35.81,25.75a2,2,0,0,0,2.56-1.2A2,2,0,0,0,482.87,465.47ZM361.06,319.59a2,2,0,0,0-1.26,3.8,31.42,31.42,0,0,1,8.55,4.94c5,4,16.38,11.21,27.41,13.08,6.61,1.13,13.94,1.95,21.7,2.83,4.6.52,9.35,1.06,14,1.67,6.25.82,15,5.88,15.09,5.93a2,2,0,0,0,2-3.46c-.39-.23-9.52-5.51-16.58-6.44-4.66-.61-9.43-1.15-14-1.67-7.71-.87-15-1.7-21.48-2.8-10.25-1.74-21.22-8.78-25.58-12.26A35.21,35.21,0,0,0,361.06,319.59ZM487.27,371c-.22-.28-22.18-28.28-25.28-33.79-2.2-3.92-12.23-18.82-21.06-20.21-6.17-1-19.06-4.72-21.88-5.54q-.53,2.13-1,3.87c3.11.91,15.86,4.61,22.28,5.62,6.09,1,15,12.53,18.2,18.22s24.7,33.14,25.61,34.3a2,2,0,0,0,1.58.76,2,2,0,0,0,1.23-.42A2,2,0,0,0,487.27,371ZM465.61,485.47a2,2,0,0,0-2.35,1.57c-.13.61-12.49,61.61-14.61,72.58a2,2,0,0,0,1.59,2.34,1.58,1.58,0,0,0,.38,0,2,2,0,0,0,2-1.62c2.11-11,14.47-71.94,14.6-72.55A2,2,0,0,0,465.61,485.47Zm-5.86-4a2,2,0,0,0-2.18-1.81c-.12,0-12.13,1.07-18.86,0-6.38-1-15.72-9.33-15.82-9.42l-.12-.09a20.92,20.92,0,0,0,.79-5.33c.06-7.28-5.85-12.12-7.22-13.14,1.2-2.4,1.69-5.3.51-9.55a41.11,41.11,0,0,0-5.76-11.87c3.22,1.42,5.43,2.28,6.62,2.4h.21a2,2,0,0,0,.21-4c-1.25-.13-7-2.79-10.84-4.54-3.59-1.66-6.7-3.09-8.34-3.62s-4-1.19-6-1.67q-2.5,1.46-5.29,2.78a2.2,2.2,0,0,0,.45.17c.06,0,6,1.37,9.56,2.52,1.05.34,3.13,1.26,5.44,2.32,1.27,1.37,7.61,8.49,9.85,16.56,1.42,5.13-.18,7.12-2.84,10.41a2,2,0,1,0,3.11,2.51l.87-1.09c1.24,1,5.46,4.65,5.42,9.76a18.6,18.6,0,0,1-1.88,7.54,2,2,0,0,0,3.53,1.89.43.43,0,0,0,.05-.1c2.79,2.34,10.6,8.51,16.83,9.49a57.56,57.56,0,0,0,8.5.52c5.67,0,11-.48,11.34-.51A2,2,0,0,0,459.75,481.48Zm-52.93-15.75c-3.93-2.84-12.09-4.09-17.89-4.79l-.71-.08c-4.11-.48-7.36-.86-10.9-6-2.93-4.26-7.17-14-9.4-19.27a77,77,0,0,0,9.9,3.42c10.52,2.86,19.4,10.06,23.67,13.53.65.52,1.19,1,1.62,1.29a2,2,0,0,0,1.22.42,2,2,0,0,0,1.23-3.59c-.42-.31-.94-.73-1.55-1.23-4.48-3.64-13.81-11.2-25.14-14.28a71.36,71.36,0,0,1-16.31-6.65q-3.1.31-6.15.42a1.9,1.9,0,0,0,.67.87,46.86,46.86,0,0,0,5.53,3.3,2.42,2.42,0,0,0,.1.36c.28.7,7,17.32,11.31,23.68,4.57,6.66,9.44,7.23,13.74,7.73l.7.08c8.27,1,13.66,2.36,16,4.06a49.3,49.3,0,0,1,6.65,6,2,2,0,0,0,2.82.15,2,2,0,0,0,.15-2.83A53,53,0,0,0,406.82,465.73ZM262.26,389.31c1.56-.61,3.3-1.18,5.14-1.79,2.35-.77,4.75-1.56,6.92-2.48.23,4.36.82,11,2.28,13.1a2,2,0,0,0,3.27-2.3c-.8-1.2-1.52-8.2-1.68-14a2,2,0,0,0-3-1.68,53.05,53.05,0,0,1-9.05,3.55c-1.81.6-3.68,1.21-5.34,1.86a17.3,17.3,0,0,0-7.94,6.64,2,2,0,0,0-.25,1.35c1.26,7.55,0,18.15,0,18.26a2,2,0,0,0,1.74,2.22l.25,0a2,2,0,0,0,2-1.76c.06-.44,1.27-10.58.12-18.6A13.32,13.32,0,0,1,262.26,389.31ZM203.69,406.7a2,2,0,0,0-2.61,1.1c-.29.72-7.22,17.74-10.43,29.47-1.92,7-5.88,26.18-9.38,43.1-2.36,11.41-4.4,21.27-5.26,24.72-2.07,8.28-23.3,53.6-23.52,54.06a2,2,0,0,0,1,2.66,1.94,1.94,0,0,0,.84.19,2,2,0,0,0,1.82-1.15c.88-1.88,21.61-46.14,23.77-54.79.88-3.53,2.93-13.43,5.3-24.88,3.31-16,7.43-36,9.32-42.86,3.14-11.49,10.2-28.84,10.27-29A2,2,0,0,0,203.69,406.7Zm31,133.89c-.2.19-4.71,5-8.73,18.85a2,2,0,0,0,1.36,2.48,2.23,2.23,0,0,0,.56.08,2,2,0,0,0,1.92-1.44c3.67-12.68,7.68-17.11,7.77-17.2a2,2,0,0,0-2.88-2.77Zm54.69-57.35a2,2,0,0,0-2.79.48c-.28.4-6.89,9.81-10.13,15.92a54,54,0,0,0-2.29,5.07c-2,4.81-4,9.78-10.39,15a149.46,149.46,0,0,1-17.24,12,2,2,0,0,0-.73,2.73,2,2,0,0,0,2.74.73,151.85,151.85,0,0,0,17.78-12.4c7.12-5.88,9.47-11.57,11.53-16.58.69-1.67,1.34-3.24,2.13-4.72,3.13-5.89,9.81-15.4,9.87-15.49A2,2,0,0,0,289.38,483.24Zm7.67,3.66c-1.46-5.26.24-11.41.94-13.55,1.29-.53,2.68-1.08,4.19-1.64,7.92-3,13-6.59,16-11.37,3.36-5.38,5.23-22.08,5.43-24a2,2,0,0,0-4-.42c-.52,4.87-2.4,18.37-4.84,22.27s-6.94,7.09-14,9.74q-2.82,1.07-5.15,2l0,0a92.76,92.76,0,0,0-11.26,5.39,2,2,0,0,0-.67,2.75,2,2,0,0,0,1.71,1,1.94,1.94,0,0,0,1-.29,77.19,77.19,0,0,1,6.9-3.46,26.73,26.73,0,0,0-.1,12.6c1.21,4.36,5.54,9,5.72,9.16a2,2,0,0,0,2.83.08,2,2,0,0,0,.08-2.82C300.76,493.26,297.83,489.73,297.05,486.9Zm33.28-41.83A2,2,0,0,0,328,446.7c0,.05-.89,5.15-1.75,8.6-.81,3.24-2.09,6.1-6,10.38-4.26,4.71-9.26,13.72-11.62,19.71a47.14,47.14,0,0,0-2.93,10.11,2,2,0,0,0,1.72,2.24l.26,0a2,2,0,0,0,2-1.74,44.92,44.92,0,0,1,2.7-9.16c2.18-5.54,7-14.18,10.86-18.5,4.42-4.87,5.95-8.36,6.88-12.09s1.78-8.67,1.82-8.89A2,2,0,0,0,330.33,445.07Zm-84-85.51a206.32,206.32,0,0,0,28.89-11.39c4.31-2.3,8.41-1.88,10.08-.31a40.18,40.18,0,0,1,4.76,5.59,2.82,2.82,0,0,0,.33.36c-.15-2.17-.34-4.51-.56-7-.57-.62-1.17-1.24-1.8-1.83-3.25-3.05-9.3-3.18-14.69-.31a203.53,203.53,0,0,1-28.12,11.09c-4.86,1.4-8.77,2.27-12.91,3.18-3.78.84-7.68,1.7-12.74,3.06-10.29,2.74-10.9,14-11.23,20-.06,1.21-.12,2.25-.23,3-.68,4.76-3.81,14.15-3.84,14.24a2,2,0,1,0,3.79,1.27c.13-.4,3.28-9.83,4-14.95.13-.93.19-2.06.26-3.37.42-7.59,1.36-14.55,8.27-16.39,5-1.33,8.84-2.18,12.57-3C237.36,361.88,241.33,361,246.31,359.56Zm176.92,70.28a2,2,0,0,0,2.76-.63c.11-.18,2.75-4.5.15-10.67-2.41-5.71-10.62-13.81-14.76-15.47a1.8,1.8,0,0,0-.22-.06c-.71.92-1.47,1.86-2.3,2.82a2,2,0,0,0,1,1c3,1.19,10.47,8.36,12.55,13.3,1.75,4.14.23,6.86.14,7A2,2,0,0,0,423.23,429.84Z" style="fill:#a2aaad"/></svg>
