<svg xmlns="http://www.w3.org/2000/svg" viewBox="0 0 640 640"><title>massage_face_wash_howto_03</title><path d="M48,101.5a51.24,51.24,0,0,1,1.9-14.2,55.93,55.93,0,0,1,5.4-12.8,51.71,51.71,0,0,1,8.3-10.8,54.11,54.11,0,0,1,10.8-8.4,55.93,55.93,0,0,1,12.8-5.4,54,54,0,0,1,28.4,0,55.93,55.93,0,0,1,12.8,5.4,49,49,0,0,1,10.8,8.4,53.6,53.6,0,0,1,8.3,10.8,55.93,55.93,0,0,1,5.4,12.8,54,54,0,0,1,0,28.4,55.93,55.93,0,0,1-5.4,12.8,51.71,51.71,0,0,1-8.3,10.8,53.6,53.6,0,0,1-10.8,8.3,55.93,55.93,0,0,1-12.8,5.4,54,54,0,0,1-28.4,0,55.93,55.93,0,0,1-12.8-5.4,51.71,51.71,0,0,1-10.8-8.3,53.6,53.6,0,0,1-8.3-10.8,55.93,55.93,0,0,1-5.4-12.8A51.24,51.24,0,0,1,48,101.5Zm5,0a50.74,50.74,0,0,0,1.7,12.9A51.83,51.83,0,0,0,59.6,126a45.18,45.18,0,0,0,7.6,9.8,47.72,47.72,0,0,0,9.8,7.6,49.94,49.94,0,0,0,11.6,4.9,45.66,45.66,0,0,0,12.9,1.7,49.58,49.58,0,0,0,12.9-1.7,51.83,51.83,0,0,0,11.6-4.9,47.72,47.72,0,0,0,9.8-7.6,48.21,48.21,0,0,0,12.5-21.4,45.66,45.66,0,0,0,1.7-12.9,49.58,49.58,0,0,0-1.7-12.9A51.83,51.83,0,0,0,143.4,77,49.43,49.43,0,0,0,126,59.6a49.94,49.94,0,0,0-11.6-4.9A45.66,45.66,0,0,0,101.5,53a49.58,49.58,0,0,0-12.9,1.7A51.83,51.83,0,0,0,77,59.6a45.18,45.18,0,0,0-9.8,7.6A47.72,47.72,0,0,0,59.6,77a49.94,49.94,0,0,0-4.9,11.6A45.66,45.66,0,0,0,53,101.5Zm33-12a24,24,0,0,1,2-6.7,14.58,14.58,0,0,1,3.7-4.7,13.73,13.73,0,0,1,5-2.8,20,20,0,0,1,6.1-.9,17.69,17.69,0,0,1,6.3,1.1,13.39,13.39,0,0,1,4.6,2.9,11.91,11.91,0,0,1,2.8,4.2,14.26,14.26,0,0,1,.9,5c0,3.3-.6,5.8-1.9,7.7a11,11,0,0,1-5.5,4.1,12,12,0,0,1,6.1,3.9,11.73,11.73,0,0,1,2,7.1,17.39,17.39,0,0,1-1.1,6.1,13.83,13.83,0,0,1-3.2,5,14.49,14.49,0,0,1-5.2,3.3,19.19,19.19,0,0,1-7.1,1.2,20.16,20.16,0,0,1-6.4-.9,12.87,12.87,0,0,1-4.7-2.7,16.17,16.17,0,0,1-3.4-4.3,37.57,37.57,0,0,1-2.4-5.7l4.9-2.1a5.75,5.75,0,0,1,3.3-.4,2.84,2.84,0,0,1,2,1.7,14.68,14.68,0,0,0,.9,1.7,7.34,7.34,0,0,0,1.4,1.8,7.71,7.71,0,0,0,2.1,1.4,6.53,6.53,0,0,0,2.9.6,6.09,6.09,0,0,0,2.8-.6,6.18,6.18,0,0,0,2-1.5,5.21,5.21,0,0,0,1.2-2.2,7.46,7.46,0,0,0,.4-2.6,5.3,5.3,0,0,0-2.4-4.9c-1.6-1-4.3-1.5-7.9-1.5v-8c3.3,0,5.7-.5,7.2-1.6a5.8,5.8,0,0,0,2.2-5,5.44,5.44,0,0,0-1.5-4.1,5.63,5.63,0,0,0-4.2-1.4,6.58,6.58,0,0,0-3.8,1.2,7,7,0,0,0-2.6,3.6,9.74,9.74,0,0,0-.5,1.1,4.35,4.35,0,0,1-.6.7,1.49,1.49,0,0,1-1,.3,5.25,5.25,0,0,1-1.7-.1Z"/><path d="M307.7,238.57a2,2,0,0,1-1.17-.38,2,2,0,0,1-.67-2.41c.11-.38.68-2.74,1.7-14.07l.21-2.43c.78-8.79,1.07-12.08,2.68-13.71,4.93-5,15-8.32,27.19-1a28.63,28.63,0,0,1,7.12,6.4c1.79,2.05,3.33,3.83,5.62,4.75a17.64,17.64,0,0,0,5.71,1c3.21.21,7.2.47,8.22,5.76.63,3.29.39,5.64-.73,7.17a3.47,3.47,0,0,1-2.33,1.47,2,2,0,0,1-.87-3.88c.14-.24.53-1.24,0-4-.4-2.08-1.06-2.29-4.55-2.52a21.2,21.2,0,0,1-6.94-1.31c-3.18-1.28-5.2-3.6-7.15-5.84a25,25,0,0,0-6.15-5.58c-1.41-.84-14-8-22.29.41-.62.83-1.05,5.66-1.54,11.26l-.22,2.44c-1.29,14.38-1.92,15.25-2.22,15.67A2,2,0,0,1,307.7,238.57Zm-1.85-2.75Zm.22-.42h0Zm0,0h0Zm54.71-8.28Zm0,0Zm-58,47.25a2,2,0,0,0-1.23-2.54c-5.89-2.06-6-3.7-6.38-8.11l0-.22c-.21-2.62,5.12-9.77,8.79-13.78A2,2,0,1,0,301,247c-1.71,1.88-10.26,11.5-9.82,16.81v.23c.44,5.36,1.11,8.78,9.05,11.55a1.92,1.92,0,0,0,.66.12A2,2,0,0,0,302.79,274.37Z"/><path d="M227.9,301.77a54.14,54.14,0,0,0,4.19-14.83,2,2,0,1,0-4-.46,49.76,49.76,0,0,1-3.92,13.75c-.31.77-.58,1.42-.77,1.94-.69,1.9-5.43,14.85-9.89,26.59-4.18,11-95.78,210.26-96.7,212.28a2,2,0,0,0,1,2.65,2,2,0,0,0,.83.18,2,2,0,0,0,1.82-1.16c3.78-8.22,92.58-201.38,96.81-212.53,4.46-11.77,9.22-24.74,9.91-26.64C227.36,303.06,227.61,302.46,227.9,301.77Z" style="fill:#a2aaad"/><path d="M231.36,281.8a2,2,0,0,0,1.92-2.54c0-.08-2.22-8-1.61-14.54.63-6.75,3-20.74,6.58-29.54C242,226,249.67,209.26,252.39,204c3.09-6,8.48-20,10.7-26.66.8-2.42,1.93-5.52,3.13-8.81,2.35-6.42,4.77-13.07,5.57-16.81.3-1.38.6-2.73.9-4a74.86,74.86,0,0,0,2-10.84l0-.51c.25-3.78.45-6.77,3.09-9.93,3.33-4,6.87-11.27,8.52-16.12s4.57-18,4-24.56a12.22,12.22,0,0,1,.62-5,2,2,0,1,0-3.72-1.48,16,16,0,0,0-.88,6.85c.52,5.71-2.17,18.25-3.76,22.9s-4.9,11.37-7.81,14.85c-3.47,4.16-3.75,8.26-4,12.22l0,.51a73.29,73.29,0,0,1-1.87,10.22c-.3,1.32-.61,2.68-.91,4.08-.74,3.47-3.23,10.28-5.42,16.28-1.21,3.32-2.35,6.45-3.17,8.92-2.46,7.4-7.76,20.89-10.45,26.08-3,5.82-10.77,22.89-14.29,31.49-3.78,9.21-6.21,23.71-6.86,30.69-.68,7.31,1.64,15.65,1.74,16A2,2,0,0,0,231.36,281.8Z" style="fill:#a2aaad"/><path d="M299.15,162.29c0,.76-.08,1.38-.12,1.92a11.77,11.77,0,0,0,1,6.7c1.14,2.93,6.72,18.28,4.38,31.79A2,2,0,0,0,306,205l.34,0a2,2,0,0,0,2-1.66c2.52-14.55-3.39-30.81-4.59-33.92a8.05,8.05,0,0,1-.72-5c0-.56.08-1.21.13-2,.07-1.3.24-3.35.45-5.73.47-5.43,1.11-12.86,1-17.56-.15-5.35,2.38-10.4,3.88-13.41.21-.41.39-.78.55-1.12,1.42-2.94,3.93-11.47,3.34-17.86-.53-5.69-1-10.61-4.62-18.34s-7-9-7.66-9.16l-1,3.88-.12,0s2.31,1,5.16,7c3.34,7.09,3.75,11.46,4.26,17,.49,5.28-1.67,13.07-3,15.76-.15.32-.33.67-.53,1.06-1.67,3.35-4.47,9-4.3,15.31.12,4.47-.51,11.77-1,17.11C299.4,158.84,299.22,160.92,299.15,162.29Z" style="fill:#a2aaad"/><path d="M452,214.94c-.05.05-5.2,4.14-9.87,7.76-3.93,3-7.11,8.74-9.66,13.31-.78,1.41-1.53,2.73-2.2,3.84l-.9,1.46c-2.75,4.54-7.37,12.12-11,14.34a60.09,60.09,0,0,1-7.92,3.49A111.94,111.94,0,0,0,395.31,266c-9.27,5.3-12.92,9.43-13.07,9.6a2,2,0,0,0,.19,2.81,2,2,0,0,0,1.31.5,2,2,0,0,0,1.51-.68s3.45-3.84,12-8.76a108.07,108.07,0,0,1,14.55-6.61,60.59,60.59,0,0,0,8.53-3.79c4.49-2.72,9.23-10.52,12.37-15.68l.88-1.45c.73-1.17,1.49-2.53,2.29-4,2.38-4.26,5.34-9.56,8.62-12.1,4.69-3.63,9.86-7.74,9.91-7.79a2,2,0,0,0,.32-2.81A2,2,0,0,0,452,214.94Z" style="fill:#a2aaad"/><path d="M448.2,200.46c-5.77.18-14.26,3.15-20.19,7-6.32,4.16-11.4,9.37-13.59,13.93a41.12,41.12,0,0,0-3.74,15.34,2,2,0,0,0,2,2h0a2,2,0,0,0,2-2A36.85,36.85,0,0,1,418,223.18c1.87-3.88,6.54-8.6,12.19-12.33,5.29-3.48,13.08-6.23,18.12-6.39,3.94-.1,6.12,4.51,6.17,4.61a2,2,0,1,0,3.64-1.64C458,207.13,454.89,200.27,448.2,200.46Z" style="fill:#a2aaad"/><path d="M383.06,226.83a2,2,0,0,0-2.12,1.87c0,.1-.68,10.36-4.53,17.48a29.05,29.05,0,0,0-2.75,7.18,2,2,0,0,0,1.56,2.36,1.81,1.81,0,0,0,.4,0,2,2,0,0,0,2-1.59,25.76,25.76,0,0,1,2.35-6.09,30.3,30.3,0,0,0,1.41-3l.09-.13c1.8-3.38,3.46-4.38,7.12-6.58l1.1-.66c3.49-2.12,15-5.54,19.16-6.68a2,2,0,0,0-1.06-3.86c-.63.18-15.49,4.28-20.17,7.12l-1.09.65c-1,.58-1.84,1.11-2.64,1.64a57.8,57.8,0,0,0,1.08-7.64A2,2,0,0,0,383.06,226.83Z" style="fill:#a2aaad"/><path d="M507.81,111.17c-4.05,4-10.88,8-20.9,12.4-7.18,3.12-16.66,7.94-25.83,12.59-4.93,2.5-9.57,4.86-13.56,6.81-7.95,3.87-19.06,11.4-28.86,18.05-4.24,2.87-8.24,5.59-11.3,7.53a184,184,0,0,0-24.57,19.27c-4.78,4.5-5.34,9.11-5,12.19.11.9.22,2,.32,3.09h0c.19,2,.34,4,.34,4a2,2,0,0,0,2,1.85h.16a2,2,0,0,0,1.84-2.14c0-.07-.06-.76-.14-1.73a41,41,0,0,0,6.19-.71c5.7-1,14.65-4.17,23.35-8.17,8-3.7,20.36-9.08,28.4-12.17,6.77-2.6,11.5-6.21,17.49-10.77,1.25-1,2.55-2,3.94-3,8.82-6.58,20.66-14.43,34.07-16.84,16.23-2.91,22-1.25,24,.67a2,2,0,1,0,2.78-2.88c-4-3.83-12.68-4.38-27.45-1.72-14.22,2.55-26.58,10.72-35.75,17.56-1.4,1-2.71,2-4,3-5.73,4.37-10.26,7.82-16.49,10.22-8.17,3.13-20.27,8.42-28.64,12.27s-17,6.88-22.4,7.87a35.64,35.64,0,0,1-5.83.65c-.06-.56-.12-1.09-.17-1.56-.38-3.15.88-6.12,3.74-8.81a179.21,179.21,0,0,1,24-18.8c3.11-2,7.14-4.71,11.41-7.6,9.21-6.25,20.67-14,28.36-17.77,4-1.95,8.68-4.32,13.62-6.83,9.12-4.63,18.55-9.42,25.62-12.49,10.47-4.56,17.7-8.88,22.11-13.22,4.77-4.7,4.92-8.66,4.58-10.6a2,2,0,0,0-3.94.68C511.39,104.84,511.52,107.52,507.81,111.17Z" style="fill:#a2aaad"/><path d="M523.07,161.43a2,2,0,0,0-2.74-.7c-.09.05-8.79,5.2-13.18,7l-3.76,1.47c-6,2.32-15,5.84-20.69,8.79-6.87,3.57-11,6.61-17.66,13-5.71,5.48-8.35,6.84-8.44,6.88a2,2,0,0,0,.85,3.81,2.08,2.08,0,0,0,.84-.18c.31-.14,3.23-1.58,9.52-7.63s10.18-9,16.73-12.36c5.49-2.85,14.4-6.32,20.3-8.61l3.8-1.49c4.68-1.89,13.36-7,13.73-7.24A2,2,0,0,0,523.07,161.43Z" style="fill:#a2aaad"/><path d="M488,96.46c.25,2.46-6.45,7.77-19.72,13.17-6.53,2.66-21.45,8.42-31.32,11.88a204.17,204.17,0,0,0-30.08,13.08c-11.07,5.92-28.21,17.32-34.77,21.91-5.26,3.68-11.76,8.1-14.82,10.17-1.42-2.58-2.78-5.79-2.8-5.83a2,2,0,1,0-3.68,1.55,60.56,60.56,0,0,0,4.2,8.23c2.18,3.23,7.36,5,7.95,5.16a1.86,1.86,0,0,0,.61.1,2,2,0,0,0,.62-3.9,18.19,18.19,0,0,1-4.37-2.19c3.16-2.15,9.46-6.43,14.58-10,6.5-4.55,23.46-15.83,34.37-21.66a200.09,200.09,0,0,1,29.51-12.84c9.93-3.48,24.94-9.27,31.51-12,6.16-2.5,13-5.76,17.4-9.36a1.67,1.67,0,0,0,.64-.18c2-1,7.94-3.63,11.05-3.92,3.95-.37,6.16-.38,8.06.53a2,2,0,1,0,1.73-3.61c-3-1.43-6.23-1.27-10.16-.9a27.69,27.69,0,0,0-6.63,1.81,5.33,5.33,0,0,0,.1-1.64,2,2,0,0,0-4,.4Z" style="fill:#a2aaad"/><path d="M305,165a2,2,0,0,0,2.83.19c.06-.06,6.67-5.8,14.88-11.5,1.22-.73,20.91-12.49,27.72-16.18.25-.14,25.06-14.27,36.26-17.43A240.43,240.43,0,0,0,410,111.87c10.31-4.53,25.77-11,35.4-14.4,11.71-4.11,20.41-6.08,28.22-6.41a45.28,45.28,0,0,1,13.75,1.23,2,2,0,0,0,1.18-3.82c-.23-.08-5.85-1.79-15.1-1.4-8.22.34-17.28,2.38-29.37,6.62-9.74,3.42-25.32,10-35.69,14.52-8.75,3.85-22.67,8-22.79,8-11.64,3.29-36.1,17.22-37.1,17.79-7,3.81-27,15.77-27.88,16.28a.41.41,0,0,0-.11.07c-8.42,5.83-15.23,11.75-15.29,11.81A2,2,0,0,0,305,165Z" style="fill:#a2aaad"/><path d="M260.42,413.44a2,2,0,0,0-2.5,1.31c-.36,1.14-35.93,114.66-40.45,126.4a2,2,0,1,0,3.73,1.44c4.56-11.86,39.07-122,40.53-126.65A2,2,0,0,0,260.42,413.44Z" style="fill:#a2aaad"/><path d="M335,545.72c-2.84-4.31-6.07-9.47-6.1-9.52a2,2,0,1,0-3.39,2.12s3.28,5.24,6.15,9.6S343,561,343.31,561.39a2,2,0,0,0,2.87-2.78C346.1,558.52,337.73,549.91,335,545.72Z" style="fill:#a2aaad"/><path d="M315.86,520.89c-4.81-5.91-14.83-18.63-18.32-24.46-.89-1.47-1.94-3-3.16-4.86a134,134,0,0,1-15.58-29.66c-.06-.19-6-18.29-7.47-28.5-1.49-10.67-2.15-14.69-3.93-22.68s-1.66-11-1-17.09c.51-4.49,2.1-19.64.93-26.13-1.05-5.88-8.1-21.39-8.4-22a2,2,0,0,0-3.64,1.65c.07.16,7.14,15.71,8.11,21.1.85,4.73.05,16-1,25-.79,6.93-.75,10.38,1,18.41,1.75,7.85,2.4,11.82,3.87,22.36s7.38,28.45,7.65,29.28a137.84,137.84,0,0,0,16,30.55c1.19,1.78,2.21,3.32,3.05,4.7,4.51,7.52,18.07,24.22,18.65,24.92,3.39,4.18,7.51,8.57,7.68,8.76a2,2,0,0,0,1.46.63,2,2,0,0,0,1.46-3.37S319.17,525,315.86,520.89Z" style="fill:#a2aaad"/><path d="M285.18,354.44c-3.73-7.5-8.42-12.64-14.35-15.73a18.08,18.08,0,0,0-11.44-2.07,2,2,0,1,0,.87,3.91,14.3,14.3,0,0,1,8.72,1.71c5.23,2.72,9.24,7.15,12.62,14,3.12,6.27,5.16,14.45,5.76,23,.95,13.78,3.78,21.27,5.65,26.23.59,1.56,1.1,2.91,1.43,4.13a1.9,1.9,0,0,0,.24.52c-.54,14.05-.51,29.94.46,39.72,1.52,15.46,7.92,36,8.19,36.83a2,2,0,0,0,1.91,1.4,2.08,2.08,0,0,0,.6-.09,2,2,0,0,0,1.31-2.51c-.06-.21-6.55-21-8-36s-.65-47.25,1.12-61c1.92-14.92,2.13-23.28,2.14-23.63a2,2,0,0,0-4-.09c0,.08-.22,8.52-2.11,23.21-.41,3.17-.77,7.24-1.06,11.83A80,80,0,0,1,291.35,379C290.72,369.88,288.53,361.16,285.18,354.44Z" style="fill:#a2aaad"/><path d="M300.54,296.35c.35,6-.18,14.09-.7,21.95-.42,6.51-.83,12.67-.63,16.71.41,8.4-.26,20.48-.27,20.6a2,2,0,0,0,1.89,2.11h.11a2,2,0,0,0,2-1.88c0-.51.68-12.41.27-21-.19-3.82.21-9.86.63-16.26.52-8,1.06-16.23.69-22.44-.65-11-1.48-28.93-1.62-34.36-.11-4.2,1.49-11.5,2.36-15.42.19-.89.36-1.63.47-2.19.95-4.69,4-5.61,4.13-5.64a2,2,0,1,0-.95-3.88c-.23.05-5.63,1.45-7.1,8.73-.11.54-.27,1.26-.46,2.11-1,4.38-2.58,11.71-2.45,16.4C299.06,267.32,299.89,285.37,300.54,296.35Z" style="fill:#a2aaad"/><path d="M328.27,357.54v0a135.75,135.75,0,0,1-2.42,15.31,2,2,0,0,0,1.5,2.39,1.74,1.74,0,0,0,.45.06,2,2,0,0,0,1.95-1.56c0-.2.39-1.74.83-4.06.73,2.79,1.35,4.8,1.41,5a2,2,0,0,0,1.91,1.4,2.08,2.08,0,0,0,.6-.09,2,2,0,0,0,1.31-2.51,99.49,99.49,0,0,1-3.53-15.71,55.3,55.3,0,0,0,.05-11c-1.16-9.68-2.79-30.76-3.32-37.69l0-.48c-.5-6.57-.75-16.53-.76-16.63a2,2,0,1,0-4,.1c0,.1.25,10.16.77,16.83l0,.49c.54,7,2.17,28.09,3.34,37.86A51.43,51.43,0,0,1,328.27,357.54Z" style="fill:#a2aaad"/><path d="M326,275c0-.53-.46-13.06-.78-16.89-.1-1.15-.26-2.81-.45-4.71-.43-4.32-1-10.24-1.12-13.71a81.21,81.21,0,0,1,1.89-16.29c.77-2.84,1.53-3.52,2.6-4.22a2,2,0,1,0-2.2-3.34c-1.93,1.27-3.24,2.74-4.26,6.51A88.88,88.88,0,0,0,319.85,235c-1.56-1.38-2.83-1.2-3.44-1a2,2,0,0,0,.69,3.87,7.12,7.12,0,0,1,1.7,2.37,2,2,0,0,0,.94.87c.19,3.59.68,8.56,1.09,12.64.18,1.88.35,3.52.44,4.65.31,3.74.77,16.57.77,16.7a2,2,0,0,0,2,1.93h.07A2,2,0,0,0,326,275Z" style="fill:#a2aaad"/><path d="M364.74,362a5.71,5.71,0,0,0,1.65-1.21c1.92-2,2.56-5.36,1.89-10-1.22-8.43-3.28-24.86-4.39-33.69l-.49-4c-.16-1.2-.26-2.25-.36-3.23a34.64,34.64,0,0,0-3.18-12.53c-.68-1.57-1.43-3.18-2.2-4.85-2.53-5.46-5.38-11.66-7.05-19.09-.05-1.3-.07-2.1-.08-2.14a2,2,0,0,0-2.06-1.93,2,2,0,0,0-1.93,2.06c0,.73.58,18.09,1.75,26.31a72.44,72.44,0,0,1,.6,7.57c.23,5.32.55,12.6,3.36,28.52a2,2,0,0,0,2,1.65l.35,0a2,2,0,0,0,1.62-2.31c-2.77-15.67-3.08-22.8-3.31-28a76,76,0,0,0-.63-8c-.33-2.34-.62-5.5-.85-8.82.88,2,1.77,4,2.63,5.86.76,1.63,1.49,3.21,2.16,4.76a31.15,31.15,0,0,1,2.87,11.34c.1,1,.21,2.09.37,3.33l.5,3.95c1.1,8.85,3.16,25.3,4.39,33.77.62,4.32-.22,6-.77,6.61a1.74,1.74,0,0,1-.15.13c-3.1-9.26-5.8-18.67-5.84-18.83a2,2,0,0,0-3.85,1.1c.29,1,7.16,25,11.74,34.2A2,2,0,0,0,369,372.8,102.8,102.8,0,0,1,364.74,362Z" style="fill:#a2aaad"/><path d="M402,370.72a19.92,19.92,0,0,1-1.8-4.74c-.46-1.51-1.08-3.59-2.06-6.45-2.11-6.16-4.72-20.89-7.5-36.5l-1.21-6.79c-3.28-18.34-4.54-24.63-9.21-34.78-3.24-7.07-6.32-17.29-8.79-25.51-.95-3.15-1.77-5.86-2.48-8-.9-2.71-1.74-5.73-2.55-8.64-1.84-6.61-3-10.77-4.57-12.67a9.38,9.38,0,0,0-5.37-3.51l-.17,0a2,2,0,0,0-1.41,3.74,5.84,5.84,0,0,0,.6.18,5.43,5.43,0,0,1,3.23,2.14c1.09,1.35,2.55,6.6,3.84,11.23.82,3,1.67,6,2.6,8.82.7,2.13,1.51,4.82,2.45,7.94,2.5,8.34,5.62,18.71,9,26,4.47,9.74,5.62,15.46,8.9,33.82l1.21,6.78c2.93,16.45,5.45,30.65,7.66,37.1.95,2.78,1.54,4.73,2,6.3a23.38,23.38,0,0,0,2.18,5.63,22.89,22.89,0,0,1,2,4.44,2,2,0,0,0,1.91,1.41,2.08,2.08,0,0,0,.6-.09,2,2,0,0,0,1.31-2.51A27.36,27.36,0,0,0,402,370.72Z" style="fill:#a2aaad"/><path d="M401.14,320.51a71.43,71.43,0,0,1-4.42-10.24c-3.13-9.35-5.24-16.37-3.8-21.4,1.32-4.58,3.58-5.6,3.62-5.62a2,2,0,1,0-1.37-3.76c-.42.16-4.2,1.7-6.09,8.28-1.77,6.14.48,13.73,3.85,23.77a74.89,74.89,0,0,0,4.64,10.77,39.61,39.61,0,0,1,3.18,7.56c1.51,5.46,2.13,15.87,1.34,22.3a79.07,79.07,0,0,1-2.29,11.28,2,2,0,0,0,1.34,2.49,1.87,1.87,0,0,0,.57.08,2,2,0,0,0,1.92-1.42,81.53,81.53,0,0,0,2.43-11.94c.76-6.21.37-17.27-1.45-23.85A43.15,43.15,0,0,0,401.14,320.51Z" style="fill:#a2aaad"/><path d="M425.18,380.29c-.45,3.84-.87,7.47-1,10.67-.05,1.5-.1,3.13-.17,4.85-.31,8.73-.7,19.6-.43,26.49a2,2,0,0,0,2,1.92h.08a2,2,0,0,0,1.92-2.08c-.27-6.73.12-17.52.43-26.19.06-1.72.12-3.35.17-4.85.1-3,.52-6.59,1-10.35.84-7.27,1.8-15.51.83-22.78,0-.12-1.18-12-3.05-24.79-1.74-11.88-5.51-16.44-8.54-20.11-.39-.47-.77-.93-1.13-1.4-2.88-3.67-8.86-15.16-10-19.21s-3.09-9.55-3.17-9.77a2,2,0,0,0-3.77,1.34c0,.06,1.95,5.46,3.09,9.52,1.29,4.56,7.49,16.49,10.7,20.59.38.49.79,1,1.2,1.48,2.85,3.45,6.08,7.37,7.66,18.14,1.85,12.68,3,24.48,3,24.67C426.93,365.27,426,373.25,425.18,380.29Z" style="fill:#a2aaad"/><path d="M428,489.48c.15-22.62-.74-56.79-.74-57.14a2,2,0,0,0-4,.11c0,.34.89,34.45.74,57-.14,22.75-.22,35.27,13.11,58.68a2,2,0,0,0,1.74,1,2,2,0,0,0,1-.27,2,2,0,0,0,.75-2.72C427.77,523.67,427.85,511.53,428,489.48Z" style="fill:#a2aaad"/><path d="M347.76,224.86a2,2,0,0,0-2.83,0,7.06,7.06,0,0,0-.63.72c-1.2-5.1-4-10.92-7-12a2,2,0,0,0-2.57,1.19,2,2,0,0,0,1.18,2.56c.77.37,3.35,3.88,4.58,9.58,1.18,5.39,3.59,19.28,4.55,27.93a2,2,0,0,0,2,1.78h.22a2,2,0,0,0,1.77-2.21c-.58-5.15-1.65-12.11-2.69-18.11v0c-.3-1.69-.64-6.51,1.41-8.52A2,2,0,0,0,347.76,224.86Z" style="fill:#a2aaad"/></svg>
