<svg xmlns="http://www.w3.org/2000/svg" viewBox="0 0 640 640"><title>massage_face_wash_howto_04</title><path d="M48,101.5a51.24,51.24,0,0,1,1.9-14.2,55.93,55.93,0,0,1,5.4-12.8,51.71,51.71,0,0,1,8.3-10.8,54.11,54.11,0,0,1,10.8-8.4,55.93,55.93,0,0,1,12.8-5.4,54,54,0,0,1,28.4,0,55.93,55.93,0,0,1,12.8,5.4,49,49,0,0,1,10.8,8.4,53.6,53.6,0,0,1,8.3,10.8,55.93,55.93,0,0,1,5.4,12.8,54,54,0,0,1,0,28.4,55.93,55.93,0,0,1-5.4,12.8,51.71,51.71,0,0,1-8.3,10.8A53.88,53.88,0,0,1,115.6,153a54,54,0,0,1-28.4,0,55.93,55.93,0,0,1-12.8-5.4,51.71,51.71,0,0,1-10.8-8.3,53.6,53.6,0,0,1-8.3-10.8,55.93,55.93,0,0,1-5.4-12.8A51.24,51.24,0,0,1,48,101.5Zm5,0a50.74,50.74,0,0,0,1.7,12.9A51.83,51.83,0,0,0,59.6,126a45.18,45.18,0,0,0,7.6,9.8,47.72,47.72,0,0,0,9.8,7.6,49.94,49.94,0,0,0,11.6,4.9,45.66,45.66,0,0,0,12.9,1.7,49.58,49.58,0,0,0,12.9-1.7,51.83,51.83,0,0,0,11.6-4.9,47.72,47.72,0,0,0,9.8-7.6,48.21,48.21,0,0,0,12.5-21.4,45.66,45.66,0,0,0,1.7-12.9,49.58,49.58,0,0,0-1.7-12.9A51.83,51.83,0,0,0,143.4,77,49.43,49.43,0,0,0,126,59.6a49.94,49.94,0,0,0-11.6-4.9A45.66,45.66,0,0,0,101.5,53a49.58,49.58,0,0,0-12.9,1.7A51.83,51.83,0,0,0,77,59.6a45.18,45.18,0,0,0-9.8,7.6A47.72,47.72,0,0,0,59.6,77a49.94,49.94,0,0,0-4.9,11.6A45.66,45.66,0,0,0,53,101.5Zm66.3,4.5v6.1a2.46,2.46,0,0,1-.5,1.5,2,2,0,0,1-1.5.6h-4.7v11.3h-9V114.2H84.8a2.72,2.72,0,0,1-1.7-.6,3.37,3.37,0,0,1-1.1-1.7l-1.1-5.7L102.2,75h10.3v31Zm-15.7,0V93.9c0-1,0-2,.1-3s.2-2.2.3-3.4L91.9,106Z"/><path d="M385.3,421.07a2,2,0,0,1-1.36-.54c-5.31-4.95-8.3-14.8-8.89-29.29-.87-21.07,1.58-32.12,8.46-38.13a18.33,18.33,0,0,1,5.41-3.19c3.15-1.34,6.12-2.61,11.14-12.15,7.75-14.73,18.22-9.83,18.32-9.77a2,2,0,0,1-1.74,3.6c-.34-.16-7.18-3.1-13,8-5.68,10.81-9.46,12.41-13.12,14a14.08,14.08,0,0,0-4.33,2.52c-4.08,3.56-8.11,10.51-7.11,35,.69,16.68,4.53,23.63,7.63,26.52a2,2,0,0,1-1.37,3.47ZM255,420.53c5.31-4.95,8.3-14.8,8.89-29.29.87-21.07-1.59-32.12-8.46-38.13a18.2,18.2,0,0,0-5.41-3.19c-3.14-1.34-6.12-2.61-11.14-12.15-7.75-14.73-18.22-9.83-18.32-9.77a2,2,0,0,0,1.74,3.6c.29-.13,7.16-3.15,13,8,5.68,10.81,9.46,12.41,13.12,14a14.08,14.08,0,0,1,4.33,2.52c4.08,3.56,8.11,10.51,7.11,35-.69,16.68-4.53,23.63-7.63,26.52a2,2,0,1,0,2.73,2.93Z"/><path d="M322.36,380.32a3.68,3.68,0,0,1,3.15-2.31c2.23-.34,5.52-.56,4.61.46-.57.63-2.59.7-4.56,2.37C324.08,382.09,322.07,381.39,322.36,380.32Zm-6.93,0a3.65,3.65,0,0,0-3.15-2.31c-2.23-.34-5.52-.56-4.61.46.57.63,2.59.7,4.56,2.37C313.71,382.09,315.72,381.39,315.43,380.32Zm68.51-55.19a15.77,15.77,0,0,0,2.64.39c4.14.07,4.8,1.05,7.38.6,7.5-1.31,6.51-1.59,3.92-1.8s-4.26.93-7.22-2.59c-.75-.9-1.06-.79-3.63.36a18.18,18.18,0,0,1-4.06,1.54C381.8,324,383.36,324.91,383.94,325.13Zm-3.1-.87a20,20,0,0,1-3.48.93c-1.18.23.67,2.18,1.8,3a15,15,0,0,0,3.59,1.91c1.35.59,2.28.43.94-.84a7.81,7.81,0,0,1-1.94-3.29C381.36,324.93,381.29,324.24,380.84,324.26Zm-5.64,1.26a19.5,19.5,0,0,1-3.58.37c-1.2,0,.31,2.26,1.29,3.28a15.62,15.62,0,0,0,3.24,2.45c1.24.8,2.19.79,1.06-.68a7.79,7.79,0,0,1-1.38-3.55C375.6,326.27,375.65,325.57,375.2,325.52Zm-5.7.51a19.05,19.05,0,0,1-3.6-.21c-1.18-.15,0,2.28.76,3.45a15.06,15.06,0,0,0,2.81,2.93c1.09,1,2,1.14,1.15-.5a7.87,7.87,0,0,1-.8-3.73C369.78,326.83,369.94,326.15,369.5,326Zm-5.52-.41a19.63,19.63,0,0,1-3.39-1.24c-1.09-.49-.71,2.17-.28,3.51a15.33,15.33,0,0,0,1.84,3.63c.76,1.26,1.61,1.67,1.25-.15a7.84,7.84,0,0,1,.31-3.8C364,326.47,364.35,325.86,364,325.62Zm-5.2-1.93a9.11,9.11,0,0,1-2.06-.27c-.9-.25-2.31-1.05-3.08-1s-1.35.06-1.41.62.25.37,1,.62a4.08,4.08,0,0,1,2.05,1.86,21.51,21.51,0,0,0,2.32,4c.7.7.19-.58.32-1.41a33.25,33.25,0,0,1,.9-3.45C358.9,324.39,359.49,323.73,358.78,323.69Zm-39.49,95.38c3.31,0,5.85-2,8.35-2.18s5.2,1.36,8.27,1.12c4.64-.37,5.53-1.21,6.28-1.62,2-1.1.19-2.74-2.94-1.14-1,.5-3.74-.65-5.5-.9-3.83-.53-5.21-2.52-7.17-2.52s-5.12,1-7.29,1-5.33-1-7.29-1-3.34,2-7.17,2.52c-1.77.25-4.51,1.4-5.5.9-3.13-1.6-4.95,0-2.95,1.14.76.41,1.65,1.25,6.28,1.62,3.08.24,5.72-1.28,8.27-1.12S316,419.07,319.29,419.07Zm-63.68-95.44a18.18,18.18,0,0,1-4.06-1.54c-2.57-1.15-2.88-1.26-3.63-.36-3,3.52-4.48,2.37-7.22,2.59-2.59.21-3.58.49,3.92,1.8,2.58.45,3.24-.53,7.38-.6a15.77,15.77,0,0,0,2.64-.39C255.22,324.91,256.78,324,255.61,323.63Zm1.22,2.37a7.91,7.91,0,0,1-1.94,3.29c-1.34,1.27-.41,1.43.94.84a15.39,15.39,0,0,0,3.59-1.91c1.13-.85,3-2.8,1.8-3a20,20,0,0,1-3.48-.93C257.29,324.24,257.22,324.93,256.83,326Zm5.92,1.39a7.8,7.8,0,0,1-1.39,3.55c-1.12,1.47-.17,1.48,1.07.68a15.62,15.62,0,0,0,3.24-2.45c1-1,2.49-3.25,1.29-3.28a19.72,19.72,0,0,1-3.59-.37C262.93,325.57,263,326.27,262.75,327.39Zm6,.58a7.87,7.87,0,0,1-.8,3.73c-.88,1.64.06,1.49,1.15.5a15.06,15.06,0,0,0,2.81-2.93c.8-1.17,1.94-3.6.76-3.45a19.05,19.05,0,0,1-3.6.21C268.64,326.15,268.8,326.83,268.76,328Zm6.11-.4a7.84,7.84,0,0,1,.31,3.8c-.37,1.82.49,1.41,1.25.15a15.72,15.72,0,0,0,1.84-3.63c.43-1.34.81-4-.28-3.51a19.63,19.63,0,0,1-3.39,1.24C274.22,325.86,274.57,326.47,274.87,327.57Zm4.93-2.84a33.25,33.25,0,0,1,.9,3.45c.13.83-.38,2.11.32,1.41a20.93,20.93,0,0,0,2.31-4,4.14,4.14,0,0,1,2.06-1.86c.7-.25,1-.07,1-.62s-.64-.54-1.41-.62-2.18.72-3.08,1a9.11,9.11,0,0,1-2.06.27C279.09,323.73,279.67,324.39,279.8,324.73Zm39.49,108.14c4,0,9.19-1.26,9.19-2.95,0-1.36-4.31-1.59-9.19-1.59m0,0c-4.88,0-9.19.23-9.19,1.59,0,1.69,5.23,2.95,9.19,2.95m-150-177c-.56,1.11-13.79,27.43-12.32,48.09,1.49,20.84,8.52,28,8.82,28.33a2,2,0,0,0,2.81,0,2,2,0,0,0,0-2.82c-.06-.07-6.29-6.67-7.66-25.8-1-14.7,6.14-33.17,9.82-41.52a37.3,37.3,0,0,1,.37,4.34,35.26,35.26,0,0,0,.58,5.63,34.11,34.11,0,0,1,.51,4.46,32.65,32.65,0,0,0,.71,5.58c.59,2.44,1.25,4.9,1.91,7.3-1.83,5.51-5.7,19.38-3.28,31.53,2.73,13.74,7.33,20.75,10.07,24.94q.46.69.84,1.29a2,2,0,0,0,1.7.93,2,2,0,0,0,1.06-.31,2,2,0,0,0,.62-2.76c-.26-.42-.56-.87-.87-1.35-2.76-4.2-6.92-10.55-9.5-23.52-1.69-8.47,0-18.15,1.73-24.57.28.47.56.93.85,1.39A16.61,16.61,0,0,1,180.1,301a42.79,42.79,0,0,0,1.91,5,41.68,41.68,0,0,1,1.68,4.32,30,30,0,0,1,.89,4.58,33.16,33.16,0,0,0,1.06,5.32,2,2,0,0,0,1.91,1.4,2.06,2.06,0,0,0,.59-.09,2,2,0,0,0,1.32-2.5,30.32,30.32,0,0,1-.92-4.7,33.15,33.15,0,0,0-1-5.18,48.56,48.56,0,0,0-1.84-4.74,39.64,39.64,0,0,1-1.74-4.51,19.86,19.86,0,0,0-2.52-5,15.93,15.93,0,0,1-2.09-4l-.32-1.2v0c.24-.7.39-1.1.4-1.12a2,2,0,0,0-1.14-2.59,1.47,1.47,0,0,0-.28-.08c-.41-1.54-.81-3.08-1.18-4.6a29,29,0,0,1-.61-4.92,37.66,37.66,0,0,0-.59-5,33.1,33.1,0,0,1-.49-5,43.51,43.51,0,0,0-.43-4.88c-.36-2.18-.6-4.34-.85-6.63q-.17-1.56-.36-3.15c-.18-1.49-.46-3-.74-4.38a45.63,45.63,0,0,1-.83-5.36c-.09-1.36-.25-2.71-.4-4-.21-1.91-.44-3.89-.48-5.82a19,19,0,0,1,.75-4.67,24.72,24.72,0,0,0,.88-5.17,32.22,32.22,0,0,0-.32-4.85,25.63,25.63,0,0,1-.25-5.05A30.27,30.27,0,0,1,173.2,207c.39-1.44.8-2.93,1.1-4.54.6-3.17,1.22-6.45,2.16-9.89a23.47,23.47,0,0,0,.6-5.12,18.48,18.48,0,0,1,.7-5.18,31,31,0,0,1,2.33-4.75,43.76,43.76,0,0,0,2.3-4.48,34.18,34.18,0,0,0,1.46-4.75,25.94,25.94,0,0,1,1.69-5.13c1.06-2.14,2.31-4.24,3.62-6.46.5-.83,1-1.66,1.48-2.5a15.13,15.13,0,0,1,3.31-3.49,21.2,21.2,0,0,0,3.9-4.06,16.55,16.55,0,0,0,2-5.45,12.26,12.26,0,0,1,1.68-4.52,17.55,17.55,0,0,1,3.78-3.25,24.71,24.71,0,0,0,4.18-3.51c1-1.13,1.91-2.33,2.79-3.49A38.39,38.39,0,0,1,216,122a18.17,18.17,0,0,1,4.19-2.73,25,25,0,0,0,4.53-2.84,18,18,0,0,0,3.47-4.47,13.3,13.3,0,0,1,3-3.83c1.94-1.39,4.12-2.69,6.23-3.94l2.53-1.51a13.86,13.86,0,0,1,4.6-1.33,19.41,19.41,0,0,0,5.48-1.56,24.38,24.38,0,0,0,4.28-3,17.74,17.74,0,0,1,4.22-2.89c3-1.25,6.11-2.28,9.41-3.38l.26-.08a24.36,24.36,0,0,1,5.14-.9,36.26,36.26,0,0,0,5-.79c1.34-.34,2.66-.75,3.94-1.15A52.09,52.09,0,0,1,288.29,86a20.1,20.1,0,0,0,5.16-2,15.68,15.68,0,0,1,4.72-1.74,10.71,10.71,0,0,1,4.44,1.08,14.82,14.82,0,0,0,6.1,1.38,17.77,17.77,0,0,0,5.45-1.49A13.69,13.69,0,0,1,318.89,82c2,0,4.07.2,6.07.4,1.32.13,2.69.26,4,.34,3.51.19,6.91.55,10.06.92a38.53,38.53,0,0,0,5,.13,26.73,26.73,0,0,1,5.13.21A52.07,52.07,0,0,1,355,85.54c1.3.4,2.64.82,4,1.15a20.61,20.61,0,0,1,4.68,2.09,27.81,27.81,0,0,0,4.55,2.12c1,.32,2,.62,2.94.92,2.28.71,4.44,1.38,6.53,2.23a43.33,43.33,0,0,1,5.18,2.69c1.17.68,2.37,1.37,3.62,2a30.82,30.82,0,0,0,4.77,1.74,21,21,0,0,1,4.68,1.8,27.42,27.42,0,0,1,4.22,3.35,40.39,40.39,0,0,0,3.6,3,20.66,20.66,0,0,0,5,2.34A14.9,14.9,0,0,1,413,113a53.15,53.15,0,0,1,4.47,4.3c.89.92,1.81,1.88,2.76,2.78a11.81,11.81,0,0,1,2.28,4.08,16.3,16.3,0,0,0,2.77,5c.85.93,1.72,1.83,2.59,2.72,1.48,1.52,2.89,3,4.16,4.56a17.06,17.06,0,0,0,4.46,3.6,12.73,12.73,0,0,1,3.59,2.9,28.18,28.18,0,0,1,2.45,4.71,37.62,37.62,0,0,0,2.15,4.31c1.8,2.95,3.42,6,4.91,8.77a17.93,17.93,0,0,1,1.42,4.71,22.54,22.54,0,0,0,1.45,5c.67,1.47,1.45,2.84,2.21,4.16a37.5,37.5,0,0,1,2.4,4.72c.91,2.32,1.67,4.68,2.4,7l.81,2.49a16.45,16.45,0,0,0,3.15,5.08,11.82,11.82,0,0,1,2.38,3.77,41.06,41.06,0,0,1,1,5.73c.18,1.42.36,2.89.64,4.28.21,1.05.44,2.09.66,3.11.52,2.4,1,4.67,1.28,6.79a27.82,27.82,0,0,1,0,5.32,36.18,36.18,0,0,0-.08,4.89,30.42,30.42,0,0,0,1,5.23,23.17,23.17,0,0,1,.86,4.86,41.62,41.62,0,0,1-.42,5.56c-.18,1.5-.36,3-.41,4.56,0,1.15,0,2.29,0,3.41a2,2,0,0,0-.19,1.93l.2.46c0,1.5,0,2.95-.13,4.34a15.73,15.73,0,0,1-1.54,4.78,18.86,18.86,0,0,0-1.66,5,28.73,28.73,0,0,0,0,5.63,20.55,20.55,0,0,1-.06,4.54,54.85,54.85,0,0,0-.65,5.49q-.09,1.2-.21,2.31h0a2,2,0,0,0-1.29,2.52s.18.57.44,1.49a8.56,8.56,0,0,1-1.61,3.07,13.23,13.23,0,0,0-2.37,4.32,2,2,0,1,0,3.76,1.35,9.43,9.43,0,0,1,1.61-3c1.34,6.44,2.67,16.13,1,24.62-2.58,13-6.74,19.32-9.5,23.52-.31.48-.61.93-.87,1.35a2,2,0,0,0,.61,2.76,2,2,0,0,0,1.07.31,2,2,0,0,0,1.69-.93c.26-.4.54-.83.85-1.29,2.74-4.19,7.34-11.2,10.07-24.94,2.37-11.87-.6-25.4-2.13-31.1.07-.26.14-.51.21-.81a33.89,33.89,0,0,0,.69-5.2,49.09,49.09,0,0,1,.59-5.09,22.48,22.48,0,0,0,.12-5.5,26.51,26.51,0,0,1,0-4.88,15.76,15.76,0,0,1,1.36-3.93c.38-.87.79-1.8,1.12-2.77,3.86,10.51,9.58,28.7,8.63,42-1.36,19.13-7.59,25.73-7.64,25.78a2,2,0,0,0,0,2.83,2,2,0,0,0,2.82,0c.3-.29,7.34-7.49,8.82-28.33,1.33-18.53-9.2-45-11.74-51v-.69c0-1.37,0-2.78,0-4.17s.21-2.73.38-4.2a43.4,43.4,0,0,0,.45-6.12,26.3,26.3,0,0,0-1-5.75,26,26,0,0,1-.87-4.55,33.75,33.75,0,0,1,.08-4.35,31.68,31.68,0,0,0,0-6.08c-.3-2.29-.8-4.64-1.34-7.13-.22-1-.44-2-.65-3.05-.25-1.25-.41-2.57-.59-4a44.59,44.59,0,0,0-1.07-6.28,14.73,14.73,0,0,0-3.13-5.24,13.54,13.54,0,0,1-2.47-3.83c-.27-.82-.53-1.64-.8-2.47-.75-2.34-1.53-4.77-2.49-7.21a39.42,39.42,0,0,0-2.65-5.23c-.71-1.25-1.45-2.54-2.05-3.85a20,20,0,0,1-1.17-4.16,21.12,21.12,0,0,0-1.8-5.78c-1.51-2.86-3.17-5.93-5-9a34.87,34.87,0,0,1-1.92-3.87,31.74,31.74,0,0,0-2.82-5.37,15.66,15.66,0,0,0-4.72-4,14.08,14.08,0,0,1-3.48-2.72c-1.4-1.75-2.94-3.33-4.43-4.86-.83-.86-1.68-1.73-2.5-2.63a13.21,13.21,0,0,1-2-3.79A15.14,15.14,0,0,0,423,117.2c-.89-.84-1.74-1.72-2.65-2.66a56.77,56.77,0,0,0-4.8-4.61,18.07,18.07,0,0,0-5.48-2.74,17.55,17.55,0,0,1-4-1.85,34.77,34.77,0,0,1-3.22-2.69A32.37,32.37,0,0,0,398,98.84a24.4,24.4,0,0,0-5.58-2.19,27.55,27.55,0,0,1-4.14-1.49c-1.13-.57-2.23-1.21-3.4-1.88a48,48,0,0,0-5.67-2.94c-2.25-.91-4.59-1.64-6.86-2.34l-2.88-.9a24.59,24.59,0,0,1-3.88-1.84A24.28,24.28,0,0,0,360,82.81c-1.23-.31-2.46-.69-3.77-1.09a53.29,53.29,0,0,0-6.27-1.65,29.38,29.38,0,0,0-5.91-.28,32.94,32.94,0,0,1-4.48-.11c-3.22-.37-6.69-.74-10.3-.94-1.26-.07-2.53-.19-3.87-.32a64.3,64.3,0,0,0-6.46-.42,17,17,0,0,0-6.19,1.55,15,15,0,0,1-4.22,1.23A11.9,11.9,0,0,1,304,79.65c-2-.77-4.1-1.58-6.33-1.32a18.64,18.64,0,0,0-6,2.13,16.7,16.7,0,0,1-4.12,1.62,55.6,55.6,0,0,0-6.38,1.69c-1.29.4-2.51.78-3.75,1.09a32,32,0,0,1-4.46.69,28.3,28.3,0,0,0-6,1.08l-.26.09c-3.22,1.07-6.55,2.17-9.69,3.48a21,21,0,0,0-5.23,3.49,20.45,20.45,0,0,1-3.54,2.55,16.29,16.29,0,0,1-4.37,1.18,16.72,16.72,0,0,0-6,1.86c-.82.5-1.65,1-2.48,1.48-2.19,1.29-4.46,2.63-6.53,4.13a16.18,16.18,0,0,0-4.1,5,14.69,14.69,0,0,1-2.64,3.5,21.77,21.77,0,0,1-3.84,2.38,21.72,21.72,0,0,0-5.11,3.39,43.32,43.32,0,0,0-4.12,4.9c-.88,1.16-1.7,2.24-2.6,3.25a20.93,20.93,0,0,1-3.52,2.92,20.9,20.9,0,0,0-4.62,4.06,15.29,15.29,0,0,0-2.4,6,13.71,13.71,0,0,1-1.45,4.15,17.83,17.83,0,0,1-3.2,3.26,18.66,18.66,0,0,0-4.16,4.51c-.47.83-1,1.65-1.45,2.47-1.29,2.19-2.63,4.45-3.76,6.72a29.22,29.22,0,0,0-2,5.92,30.92,30.92,0,0,1-1.28,4.19,41.14,41.14,0,0,1-2.09,4.07A33.7,33.7,0,0,0,174,181a21.81,21.81,0,0,0-.91,6.32,20.21,20.21,0,0,1-.47,4.24c-1,3.6-1.62,6.95-2.23,10.2-.28,1.45-.66,2.87-1,4.24a33.65,33.65,0,0,0-1.25,6,28.9,28.9,0,0,0,.27,5.85,28.87,28.87,0,0,1,.29,4.26,21.48,21.48,0,0,1-.76,4.36,21.81,21.81,0,0,0-.87,5.69c0,2.12.28,4.19.51,6.2.15,1.33.29,2.58.38,3.85a50.9,50.9,0,0,0,.89,5.84c.28,1.42.54,2.75.7,4.1.13,1,.24,2,.35,3.05A2.05,2.05,0,0,0,169.25,255.88ZM390.4,358.61c-4,3-5.07,8.46-5.94,12.84-2,10.22-2.46,21.91-1.36,35.76,1,12.3-1.25,28.68-1.75,32.17-3.58,3.29-25.93,23.45-43.23,29.94-5.47,2.05-12.14,2.43-16.35,2.43a1.81,1.81,0,0,0-.87-.13s-.62.05-1.61.08-1.58-.08-1.61-.08a1.85,1.85,0,0,0-.88.13c-4.2,0-10.88-.39-16.34-2.43-17.3-6.49-39.66-26.65-43.23-29.94-.51-3.49-2.73-19.86-1.75-32.17,1.1-13.85.66-25.55-1.36-35.76-.87-4.38-2-9.83-5.94-12.84a2,2,0,1,0-2.41,3.19c2.78,2.09,3.69,6.72,4.42,10.43,1.95,9.84,2.38,21.18,1.3,34.67-1.13,14.24,1.77,33,1.89,33.78,0,0,0,0,0,.06a2.27,2.27,0,0,0,.06.25.45.45,0,0,1,0,.11c2.24,5.74,8,26.34,8.65,36,.35,5.12.92,11.4,1.52,18.05.58,6.43,1.19,13.09,1.66,19.41.87,11.64-2.77,16.3-2.87,16.42a2,2,0,0,0,.22,2.8,2,2,0,0,0,2.82-.2c.2-.22,4.84-5.73,3.82-19.32-.48-6.35-1.08-13-1.67-19.47-.6-6.63-1.16-12.89-1.51-18-.54-7.72-3.92-21.19-6.55-30,8.55,7.4,25.32,20.91,39.48,26.22,6,2.27,13.18,2.7,17.69,2.7,1,0,1.84,0,2.54-.05s1.55.05,2.54.05c4.51,0,11.64-.43,17.69-2.7,14.16-5.31,30.93-18.82,39.48-26.22-2.63,8.83-6,22.3-6.55,30-.35,5.07-.91,11.32-1.51,17.94-.59,6.46-1.19,13.14-1.67,19.5-1,13.59,3.62,19.1,3.82,19.32a2,2,0,0,0,2.79.21,2,2,0,0,0,.25-2.81s-3.75-4.69-2.87-16.42c.47-6.33,1.08-13,1.66-19.44.6-6.64,1.17-12.91,1.52-18,.67-9.7,6.41-30.3,8.64-36a.45.45,0,0,0,0-.11,1.17,1.17,0,0,0,.07-.25.14.14,0,0,1,0-.06c.12-.79,3-19.54,1.88-33.78-1.07-13.48-.64-24.82,1.3-34.67.74-3.71,1.65-8.34,4.43-10.43a2,2,0,0,0-2.41-3.19Zm35.08-21.76a2,2,0,0,0-2.61,1.09c-3.76,9.14-6.42,26.29-6.07,39,.21,7.22-.34,17.61-.78,26-.34,6.36-.6,11.38-.49,13.78.23,5.36,0,14.38,0,14.47a2,2,0,0,0,2,2.05h0a2,2,0,0,0,2-1.95c0-.37.25-9.25,0-14.75-.1-2.2.18-7.39.49-13.39.45-8.42,1-18.9.79-26.28-.34-12.08,2.25-28.86,5.77-37.41A2,2,0,0,0,425.48,336.85Zm-3.59-5.38a2,2,0,0,0,1.72-.84c1.87-2.61,6.72-7.61,9.84-6.34a2,2,0,0,0,1.51-3.7c-5.93-2.42-12,4.34-14,6.89-5,.29-9.4,4.37-13.67,12.7-2.13,4.15-3.91,12.47-5.33,21.44-.14-.69-.27-1.12-.28-1.16a2,2,0,1,0-3.83,1.14,17.88,17.88,0,0,1,.48,5.78c-.46,5-.6,13.89-.56,18.61.08,7.27,1.14,33.93,2.18,39.11a67.65,67.65,0,0,1,.93,10.9,2,2,0,0,0,4,0,70.56,70.56,0,0,0-1-11.69c-.67-3.34-1.42-17.59-1.82-28.3.19-2.36,3.48-43.63,8.8-54C415.83,332.32,419.54,331.34,421.89,331.47Zm17.85-3.86a2,2,0,0,0-2.64,1c-3.87,8.64-3.86,17-3.85,25,0,2.14,0,4.36-.07,6.51-.14,4.11.12,10.13.4,16.5.32,7.32.65,14.9.31,19.17-.64,8-2.94,31.05-3,31.28a2,2,0,0,0,1.79,2.19h.2a2,2,0,0,0,2-1.81c0-.23,2.32-23.36,3-31.35.37-4.52,0-12.22-.29-19.67-.28-6.29-.54-12.22-.4-16.18.08-2.23.07-4.48.07-6.66,0-8,0-15.52,3.5-23.37A2,2,0,0,0,439.74,327.61Zm-20.63,210c-.08-5.4,2.15-11.86,4.31-18.11.91-2.61,1.76-5.08,2.44-7.46.92-3.22,4-11.31,7.31-19.88,5-12.95,10.6-27.64,11.87-33.51,2.06-9.58,4.65-22.17,4.68-22.29a2,2,0,1,0-3.92-.81c0,.12-2.61,12.69-4.68,22.26-1.2,5.57-7,20.73-11.69,32.92C426,499.81,423,507.6,422,511c-.65,2.27-1.48,4.69-2.37,7.25-2.27,6.58-4.62,13.37-4.53,19.48.16,11.06,9.88,23,10.29,23.55A2,2,0,0,0,427,562a2,2,0,0,0,1.27-.45,2,2,0,0,0,.28-2.82C428.4,558.62,419.25,547.34,419.11,537.66ZM379,542.84a2,2,0,1,0-3.87,1l4.29,16.66a2,2,0,0,0,1.93,1.5,2.14,2.14,0,0,0,.5-.06,2,2,0,0,0,1.44-2.44ZM240.71,361.59a2,2,0,1,0-3.83-1.13,11,11,0,0,0-.28,1.16c-1.42-9-3.2-17.29-5.33-21.44-4.27-8.34-8.64-12.41-13.68-12.7-2-2.55-8-9.31-14-6.89a2,2,0,1,0,1.51,3.7c3.34-1.36,8.35,4.27,9.83,6.34a2,2,0,0,0,1.73.84c2.34-.14,6.06.85,11,10.53,5.31,10.38,8.61,51.64,8.8,54-.4,10.71-1.16,25-1.82,28.3a70.56,70.56,0,0,0-1,11.69,2,2,0,0,0,4,0,67.73,67.73,0,0,1,.93-10.9c1-5.18,2.1-31.84,2.18-39.11,0-4.71-.1-13.6-.56-18.61A17.59,17.59,0,0,1,240.71,361.59Zm-25-23.65a2,2,0,0,0-3.7,1.52c3.52,8.55,6.11,25.33,5.77,37.41-.21,7.38.34,17.85.79,26.27.31,6,.59,11.19.49,13.4-.25,5.5,0,14.38,0,14.75a2,2,0,0,0,2,1.95h.06a2,2,0,0,0,1.94-2.05c0-.09-.24-9.11,0-14.47.11-2.4-.15-7.43-.49-13.79-.44-8.35-1-18.73-.78-25.95C222.13,364.23,219.47,347.08,215.71,337.94Zm-14.23-9.33a2,2,0,0,0-3.65,1.64c3.52,7.85,3.51,15.39,3.5,23.37,0,2.18,0,4.43.07,6.66.14,4-.12,9.89-.4,16.18-.32,7.45-.66,15.15-.3,19.67.64,8,2.94,31.12,3,31.35a2,2,0,0,0,2,1.81h.2a2,2,0,0,0,1.79-2.19c0-.23-2.32-23.32-3-31.28-.34-4.27,0-11.85.31-19.18.28-6.37.54-12.38.4-16.49-.08-2.15-.07-4.37-.07-6.51C205.34,345.58,205.35,337.25,201.48,328.61ZM189.92,399c.13-5.47.27-11.68.94-18,1.28-12.18,3.11-48.68,3.13-49a2,2,0,0,0-4-.2c0,.36-1.84,36.75-3.11,48.82-.68,6.51-.83,12.8-.95,18.35a97.38,97.38,0,0,1-.65,11.57c-1,6.19,2.11,16.89,2.25,17.34a2,2,0,0,0,1.91,1.44,1.88,1.88,0,0,0,.57-.09,2,2,0,0,0,1.35-2.48c0-.1-3-10.27-2.13-15.56A99.79,99.79,0,0,0,189.92,399Zm26.64,112c-1-3.39-4-11.19-7.42-20.22-4.67-12.18-10.48-27.35-11.69-32.91-2.06-9.57-4.65-22.14-4.67-22.26a2,2,0,1,0-3.92.81c0,.12,2.62,12.71,4.68,22.29,1.27,5.87,6.9,20.55,11.87,33.51,3.28,8.57,6.39,16.66,7.31,19.88.68,2.37,1.53,4.84,2.43,7.45,2.16,6.25,4.4,12.72,4.32,18.12-.14,9.66-9.3,21-9.39,21.07a2,2,0,0,0,3.1,2.54c.41-.51,10.12-12.49,10.29-23.55.09-6.11-2.26-12.91-4.54-19.48C218.05,515.68,217.21,513.26,216.56,511ZM262,541.4a2,2,0,0,0-2.43,1.44l-4.29,16.66a2,2,0,0,0,1.44,2.44,2.14,2.14,0,0,0,.5.06,2,2,0,0,0,1.93-1.5l4.29-16.66A2,2,0,0,0,262,541.4Zm201.75,11.86c-35.82-14.47-39.48-15.63-39.78-15.71a2,2,0,0,0-2.45,1.36,2,2,0,0,0,1.34,2.48c.14.05,4,1.26,39.39,15.58a2,2,0,1,0,1.5-3.71ZM217.12,538.94a2,2,0,0,0-2.47-1.39c-.3.08-4,1.24-39.78,15.71a2,2,0,0,0,.75,3.86,1.92,1.92,0,0,0,.74-.15c35.14-14.2,39.19-15.51,39.4-15.58A2,2,0,0,0,217.12,538.94ZM329.81,145.6a2,2,0,0,0-.3-2.81c-.45-.36-11.27-8.79-34.39-3.8-18.38,4-33.08,12.18-46.26,25.86a60.28,60.28,0,0,0-5.58,6.76,14.82,14.82,0,0,0-4,3.37,21.77,21.77,0,0,1-3.53,3.36c-.77.62-1.67,1.25-2.62,1.92a49.53,49.53,0,0,0-5.36,4.19c-.85.79-1.82,1.56-2.85,2.37a40.55,40.55,0,0,0-4.82,4.24l-1.36,1.45c-1.8,1.9-3.65,3.87-5.4,6.06s-3.48,4.75-5.11,7.18l-.75,1.12a43.59,43.59,0,0,0-3,5.57c-.55,1.14-1.12,2.33-1.73,3.44-1.66,3-3.16,6.05-4.47,9.08a37.48,37.48,0,0,0-1.85,6.08c-.29,1.22-.6,2.49-1,3.68a22.52,22.52,0,0,1-1.67,3.66,21.16,21.16,0,0,0-2.36,5.83,25.54,25.54,0,0,0-.2,6.46,28.16,28.16,0,0,1,0,4.59,25.32,25.32,0,0,1-1.14,4.58A24.08,24.08,0,0,0,188.7,266a35.23,35.23,0,0,0,.46,6.39,39.4,39.4,0,0,1,.43,4.54c0,2.53.23,5,.42,7.35.1,1.19.19,2.37.27,3.52.1,1.62.11,3.23.13,4.79,0,2.12.05,4.12.26,6.09a48.75,48.75,0,0,0,1.36,6.79c.35,1.4.69,2.72.87,3.9a34.86,34.86,0,0,1,.49,5.37,21.9,21.9,0,0,0,.7,5.39,2,2,0,0,0,1.95,1.56,2.18,2.18,0,0,0,.44,0,2,2,0,0,0,1.52-2.39,18.52,18.52,0,0,1-.61-4.59,37.63,37.63,0,0,0-.54-5.9c-.21-1.38-.56-2.79-.94-4.28a43.59,43.59,0,0,1-1.26-6.24c-.19-1.78-.21-3.68-.24-5.71,0-1.6,0-3.27-.14-5-.07-1.19-.17-2.39-.27-3.61-.19-2.3-.38-4.67-.41-7.07a41.62,41.62,0,0,0-.47-5,32.9,32.9,0,0,1-.43-5.68,21.29,21.29,0,0,1,1.18-5.16,29,29,0,0,0,1.29-5.33,30.81,30.81,0,0,0,0-5.26,23,23,0,0,1,.13-5.47,17.89,17.89,0,0,1,2-4.73,26.1,26.1,0,0,0,1.95-4.33c.42-1.32.74-2.65,1.05-3.94a34.14,34.14,0,0,1,1.63-5.43c1.26-2.92,2.71-5.86,4.3-8.74.67-1.21,1.26-2.44,1.83-3.64a41.5,41.5,0,0,1,2.73-5.06l.76-1.13c1.66-2.47,3.23-4.8,4.91-6.91s3.45-4,5.19-5.82c.47-.5.93-1,1.38-1.47a38.22,38.22,0,0,1,4.36-3.82c1.1-.86,2.14-1.68,3.11-2.58a44.08,44.08,0,0,1,4.93-3.85c.43-.29.83-.58,1.24-.88a92.22,92.22,0,0,0-5.3,12.57,2,2,0,0,0,1.3,2.51,1.86,1.86,0,0,0,.61.1,2,2,0,0,0,1.9-1.4c.06-.17,5.64-17.45,16.58-28.81A83.22,83.22,0,0,1,296,142.9c21.05-4.54,30.91,2.9,31.05,3A2,2,0,0,0,329.81,145.6Zm12.88,3.34a2,2,0,0,0-2.15,3.38c.09.05,8.5,5.6,13.19,24.46a2,2,0,0,0,1.94,1.51,2,2,0,0,0,.48,0,2,2,0,0,0,1.46-2.43C352.54,155.42,343.09,149.2,342.69,148.94Zm-16.95,26.44h.18a2,2,0,0,0,2-1.82c0-.12,1.15-12.35,4.2-19.22a2,2,0,0,0-3.66-1.62c-3.31,7.47-4.47,20-4.52,20.48A2,2,0,0,0,325.74,175.38Zm-28.08,0h0a2,2,0,0,0,2-2c0-.61.22-15.07,19.8-20.83a2,2,0,0,0-1.13-3.84c-11.71,3.45-17.25,9.9-19.83,14.71a22.58,22.58,0,0,0-2.84,10A2,2,0,0,0,297.66,175.38Zm-.73-27.25a2,2,0,0,0-2.48-1.36c-25.42,7.4-32,32.33-32.26,33.39a2,2,0,0,0,1.45,2.43,2.12,2.12,0,0,0,.49.06,2,2,0,0,0,1.94-1.51c.06-.23,6.26-23.76,29.5-30.53A2,2,0,0,0,296.93,148.13Zm103.09,40c1,1.05,2,2.14,3.18,3.19,1.75,1.64,3.43,3.49,5.22,5.46l1.74,1.91c1.94,2.12,4,4.51,6.53,7.77.95,1.19,2,2.29,3.07,3.36a33,33,0,0,1,3.73,4.29c.67,1,1.37,1.94,2.08,2.93,1.29,1.77,2.62,3.6,3.75,5.52a19.26,19.26,0,0,1,1.71,5.28,34.12,34.12,0,0,0,1.24,4.54c.49,1.34,1.11,2.63,1.71,3.89a28.45,28.45,0,0,1,2.23,5.59c.72,3,1.22,6.14,1.71,9.21l.15,1c.52,3.24,1,6.71,1.3,10.3.15,1.57.39,3.12.63,4.62.3,2,.6,3.89.69,5.76a27.74,27.74,0,0,1-.46,5.36,32.16,32.16,0,0,0-.49,5.11,35,35,0,0,0,.62,5.65,27,27,0,0,1,.51,4.84,34.61,34.61,0,0,1-.84,5.86,32.16,32.16,0,0,0-.72,4.53c-.26,4.1-.38,4.95-.6,6.51-.12.85-.27,1.88-.48,3.7a2,2,0,0,0,1.76,2.21l.23,0a2,2,0,0,0,2-1.78c.2-1.76.34-2.77.46-3.59.23-1.6.36-2.56.63-6.82a18.75,18.75,0,0,1,.29-2.18,1.73,1.73,0,0,0,.64.07s5.25-.26,7.28,9.08c1.84,8.48.55,20.2-2.58,27.43-.21-3.94-.34-6.51-.35-6.6a2,2,0,1,0-4,.2c0,.36,1.85,36.47,3.13,48.65.67,6.34.81,12.54.93,18a99.78,99.78,0,0,0,.7,12.14c.88,5.28-2.1,15.45-2.13,15.55a2,2,0,0,0,1.35,2.48,1.88,1.88,0,0,0,.57.09,2,2,0,0,0,1.91-1.44c.14-.45,3.28-11.15,2.24-17.34a100.18,100.18,0,0,1-.64-11.58c-.12-5.54-.27-11.83-.95-18.34-.77-7.26-1.73-23.17-2.38-34.78,6.33-7.27,8.45-24.51,6.1-35.32-2.45-11.27-9.31-12.18-11.07-12.23a23.11,23.11,0,0,0-.05-10,33.08,33.08,0,0,1-.56-5,29.29,29.29,0,0,1,.45-4.49,31.57,31.57,0,0,0,.49-6.14,59.59,59.59,0,0,0-.73-6.18c-.22-1.45-.45-2.94-.6-4.39-.35-3.68-.8-7.23-1.33-10.55l-.15-1c-.5-3.16-1-6.42-1.77-9.53a32.72,32.72,0,0,0-2.51-6.38c-.59-1.22-1.14-2.38-1.57-3.55a31.16,31.16,0,0,1-1.09-4,22.08,22.08,0,0,0-2.16-6.43c-1.23-2.08-2.62-4-4-5.84-.69-.95-1.37-1.89-2-2.83a36,36,0,0,0-4.18-4.83,40.52,40.52,0,0,1-2.79-3.06c-2.64-3.33-4.71-5.79-6.73-8l-1.72-1.89c-1.84-2-3.58-4-5.46-5.71-1.05-1-2-2-3-3a43.51,43.51,0,0,0-4.52-4.32c-2.85-2.25-5.72-4.33-8.53-6.16a63.47,63.47,0,0,0-7.07-3.91c-.77-.37-1.5-.74-2.19-1.09-1.84-1-3-1.61-3.77-2.08a21.74,21.74,0,0,0-5.69-2.4C363.69,155.29,356.4,154,356,153.88a2,2,0,0,0-.66,4c.12,0,11.58,2.34,19.79,23.54a2,2,0,0,0,2.58,1.15,2,2,0,0,0,1.15-2.59,69.82,69.82,0,0,0-4-8.6c.84.48,2,1.14,3.88,2.13.71.37,1.47.75,2.27,1.14a61.35,61.35,0,0,1,6.65,3.66c2.71,1.78,5.48,3.78,8.25,6A42.66,42.66,0,0,1,400,188.16ZM172.7,378.29a2,2,0,0,0-2.71.84c-.18.35-4.54,8.7-5.75,21.89-1.11,12.13.36,30.81,13.69,50.92a2,2,0,0,0,1.67.89,2,2,0,0,0,1.11-.33,2,2,0,0,0,.56-2.77c-24.18-36.47-7.92-68.39-7.74-68.73A2,2,0,0,0,172.7,378.29ZM162.82,381a2,2,0,1,0-3.54-1.87c-.18.35-4.54,8.7-5.75,21.89-1.11,12.13.36,30.81,13.69,50.92a2,2,0,0,0,1.67.89,2,2,0,0,0,1.11-.33,2,2,0,0,0,.56-2.77C146.36,413.24,162.65,381.31,162.82,381Zm296.55,71.5a2,2,0,0,0,2.77-.56c25.56-38.53,8.12-72.47,7.95-72.81a2,2,0,1,0-3.54,1.87c.17.31,16.45,32.24-7.74,68.73A2,2,0,0,0,459.37,452.5Zm21.43-73.37a2,2,0,1,0-3.54,1.87c.17.32,16.51,32.15-7.74,68.73a2,2,0,0,0,.56,2.77,2,2,0,0,0,1.11.33,2,2,0,0,0,1.67-.89C498.41,413.41,481,379.47,480.8,379.13Zm-141-90.07c5,.13,18.72,1.15,28.29.46s28.64-2.28,42.38,2.68c0,0-14.69-9-23.11-9.78s-38.66-2.16-40.33-1.88S339.79,289.06,339.79,289.06Zm-49.3-8.52c-1.67-.28-31.91,1.1-40.34,1.88s-23.1,9.78-23.1,9.78c13.73-5,32.81-3.36,42.38-2.68s23.26-.33,28.28-.46C297.71,289.06,292.15,280.81,290.49,280.54Z" style="fill:#a2aaad"/></svg>
