<svg xmlns="http://www.w3.org/2000/svg" viewBox="0 0 640 640"><title>massage_face_wash_howto_01</title><path d="M48,101.5a51.24,51.24,0,0,1,1.9-14.2,55.93,55.93,0,0,1,5.4-12.8,51.71,51.71,0,0,1,8.3-10.8,54.11,54.11,0,0,1,10.8-8.4,55.93,55.93,0,0,1,12.8-5.4,54,54,0,0,1,28.4,0,55.93,55.93,0,0,1,12.8,5.4,49,49,0,0,1,10.8,8.4,53.6,53.6,0,0,1,8.3,10.8,55.93,55.93,0,0,1,5.4,12.8,54,54,0,0,1,0,28.4,55.93,55.93,0,0,1-5.4,12.8,51.71,51.71,0,0,1-8.3,10.8,53.6,53.6,0,0,1-10.8,8.3,55.93,55.93,0,0,1-12.8,5.4,54,54,0,0,1-28.4,0,55.93,55.93,0,0,1-12.8-5.4,51.71,51.71,0,0,1-10.8-8.3,53.6,53.6,0,0,1-8.3-10.8,55.93,55.93,0,0,1-5.4-12.8A51.24,51.24,0,0,1,48,101.5Zm5,0a50.74,50.74,0,0,0,1.7,12.9A51.83,51.83,0,0,0,59.6,126a45.18,45.18,0,0,0,7.6,9.8,47.72,47.72,0,0,0,9.8,7.6,49.94,49.94,0,0,0,11.6,4.9,45.66,45.66,0,0,0,12.9,1.7,49.58,49.58,0,0,0,12.9-1.7,51.83,51.83,0,0,0,11.6-4.9,47.72,47.72,0,0,0,9.8-7.6,48.21,48.21,0,0,0,12.5-21.4,45.66,45.66,0,0,0,1.7-12.9,49.58,49.58,0,0,0-1.7-12.9A51.83,51.83,0,0,0,143.4,77,49.43,49.43,0,0,0,126,59.6a49.94,49.94,0,0,0-11.6-4.9A45.66,45.66,0,0,0,101.5,53a49.58,49.58,0,0,0-12.9,1.7A51.83,51.83,0,0,0,77,59.6a45.18,45.18,0,0,0-9.8,7.6A47.72,47.72,0,0,0,59.6,77a49.94,49.94,0,0,0-4.9,11.6A45.66,45.66,0,0,0,53,101.5Zm56.2-26.6v50.5H98.4v-32a22.6,22.6,0,0,1,.1-2.6,24.52,24.52,0,0,1,.2-2.7l-4.8,4.5a3.92,3.92,0,0,1-1.4.8,4.4,4.4,0,0,1-1.6.2,3.17,3.17,0,0,1-1.6-.4,2.94,2.94,0,0,1-1.2-1l-2.9-3.6,15.2-13.7Z"/><path d="M315.64,291.49a2,2,0,0,1-1.12-.34c-.13-.09-13-8.71-22.18-14.08s-18.5-9.82-22-10.57c-2.16-.45-4.78-1.77-5.66-4.11-.46-1.22-.62-3.18,1.19-5.6,1-1.33,6.2-9.62,12.22-19.2,12.23-19.47,29-46.14,35.78-55.2C319,175.51,325.6,165.59,332,156c6.57-9.85,12.77-19.15,17.43-25.26,6.76-8.9,20.62-29,21.68-30.58l11.23-21.1a2,2,0,0,1,2.38-1c.75.24,18.38,6,28.93,11.85s28,17.5,28.17,17.61a2,2,0,0,1,.62,2.68L432.07,128c0,.06-.08.13-.12.18-.25.34-25.35,34.23-44.94,62.41s-69.23,99.31-69.73,100A2,2,0,0,1,315.64,291.49ZM385.08,82.43l-10.49,19.71-.12.19c-.15.22-14.8,21.55-21.86,30.83-4.58,6-10.75,15.27-17.28,25.06s-13.08,19.6-18.3,26.57c-6.69,8.93-24.08,36.61-35.59,54.92-6.57,10.46-11.31,18-12.41,19.48-.33.44-.85,1.25-.65,1.79s1.45,1.34,2.75,1.61c4.65,1,15,6.24,23.23,11,7.36,4.29,17,10.61,20.76,13.13,7.51-10.77,50.65-72.58,68.6-98.42,19.13-27.52,43.5-60.46,44.95-62.41L438,109.85c-4.53-3-17.84-11.69-26.32-16.4S389.69,84,385.08,82.43Z"/><path d="M132.43,456.12a2,2,0,0,0-2.32,1.62,70.25,70.25,0,0,1-6.55,18.76c-.5,1-.91,1.87-1.21,2.57-1.1,2.55-8.68,20-15.74,35.71-6.63,14.8-10.74,22.7-10.78,22.78a2,2,0,0,0,.85,2.7,2,2,0,0,0,.92.22,2,2,0,0,0,1.78-1.07c0-.08,4.19-8.07,10.88-23,7.07-15.77,14.66-33.21,15.76-35.77.28-.65.67-1.46,1.13-2.4a73.58,73.58,0,0,0,6.9-19.81A2,2,0,0,0,132.43,456.12Z" style="fill:#a2aaad"/><path d="M201.08,270.5a103.9,103.9,0,0,0,3.53-14.6l.09-.7c.64-5.09,1.19-9.49,5.24-13.8,4.83-5.12,10.23-14.75,12.86-21.2,2.34-5.73,7.67-23.91,7.36-33.08a17.41,17.41,0,0,1,1.33-7.16,2,2,0,0,0-3.62-1.7,21.27,21.27,0,0,0-1.71,9c.27,8-4.49,25.13-7.06,31.44s-7.74,15.37-12.07,20c-4.94,5.26-5.63,10.74-6.3,16l-.09.69a98.88,98.88,0,0,1-3.41,14c-.52,1.79-1,3.64-1.57,5.52-1.32,4.76-5.29,13.93-8.8,22-1.93,4.44-3.74,8.64-5.06,11.95-3.57,8.93-12.07,27.59-16.52,35.06-4.61,7.73-16.61,30.51-22.14,42-5.89,12.25-10.38,31.87-11.83,41.36-1.5,9.84,1,21.34,1.09,21.83a2,2,0,0,0,1.95,1.57,1.58,1.58,0,0,0,.43,0,2,2,0,0,0,1.53-2.38c0-.11-2.43-11.27-1-20.37,1.41-9.26,5.77-28.37,11.48-40.23,5.95-12.38,17.8-34.7,22-41.7,4.71-7.9,13.22-26.67,16.79-35.62,1.3-3.26,3.11-7.43,5-11.84,3.73-8.62,7.59-17.53,9-22.55C200,274.1,200.56,272.27,201.08,270.5Z" style="fill:#a2aaad"/><path d="M241.58,349a2,2,0,0,0,1.49,2.41,2.4,2.4,0,0,0,.46.05,2,2,0,0,0,1.94-1.54c4.59-19.58-2.14-42.21-3.54-46.54-1.1-3.41-1-3.84-.61-7.21.1-.75.21-1.64.33-2.71.2-1.78.62-4.6,1.09-7.86,1.09-7.39,2.57-17.51,2.77-23.92.24-7.55,4.18-14.38,6.53-18.46.31-.54.59-1,.83-1.47,2.15-3.86,6.23-15.19,5.94-23.86-.27-8.11-.49-14.51-4.8-25.29s-8.51-12.5-9.32-12.76a2,2,0,0,0-2.55,1.28,2,2,0,0,0,1.25,2.5s3.3,1.48,6.9,10.47c4.06,10.13,4.26,16.22,4.52,23.94.25,7.53-3.35,18-5.43,21.78l-.81,1.42c-2.54,4.4-6.78,11.77-7.06,20.32-.19,6.18-1.66,16.18-2.72,23.47-.49,3.3-.9,6.14-1.11,8-.12,1-.23,1.9-.33,2.64-.48,3.79-.55,4.84.77,8.94S245.93,330.4,241.58,349Z" style="fill:#a2aaad"/><path d="M189,528.76C170.27,524,167.13,508.51,167,507.82a2,2,0,1,0-3.94.72c.14.76,3.63,18.62,24.88,24.09a2.2,2.2,0,0,0,.5.06,2,2,0,0,0,.5-3.93Z" style="fill:#a2aaad"/><path d="M334.25,462.45c-.07.07-6.72,6.62-13.09,11.69-2.9,2.31-5.19,3.9-9.33,6.78-1.69,1.18-3.68,2.56-6.15,4.3-8.32,5.85-29.35,16.27-41.63,21.8-5,2.27-9,4.3-13.26,6.44-5.77,2.93-11.74,5.95-20.91,9.87-15.18,6.46-22.64,6.57-22.76,6.57a2,2,0,0,0-2,2,2,2,0,0,0,2,2h0a27.81,27.81,0,0,0,4.57-.55,109.71,109.71,0,0,0-6,9.6c-4,7.26-4.86,9.73-6,13.16-.32.95-.66,2-1.11,3.2a2,2,0,0,0,1.19,2.57,2.09,2.09,0,0,0,.69.12,2,2,0,0,0,1.88-1.31c.46-1.28.82-2.33,1.14-3.31,1.08-3.22,1.86-5.55,5.71-12.49a87.86,87.86,0,0,1,8.6-13A114.26,114.26,0,0,0,231.44,527c9.31-4,15.33-7,21.15-10,4.2-2.12,8.15-4.13,13.1-6.36,12.42-5.59,33.76-16.17,42.29-22.18,2.46-1.73,4.45-3.11,6.14-4.28,4.21-2.93,6.53-4.55,9.54-6.94,6.52-5.21,13.12-11.7,13.4-12a2,2,0,0,0-2.81-2.85Z" style="fill:#a2aaad"/><path d="M442.85,378.16c-.08,0-7.48,5.26-14.19,9.85-5.51,3.77-10.29,11.26-14.13,17.28-1.19,1.87-2.32,3.63-3.35,5.11-.42.6-.87,1.24-1.34,1.93-4.19,6.06-11.21,16.2-16.56,19a82.24,82.24,0,0,1-11.28,4.2,154.4,154.4,0,0,0-21.14,8.15c-13,6.47-18.3,11.75-18.52,12a2,2,0,0,0,2.85,2.81c.05-.05,5.1-5.07,17.45-11.2a148.78,148.78,0,0,1,20.6-7.93,82.79,82.79,0,0,0,11.91-4.47c6.21-3.28,13.29-13.51,18-20.29.47-.68.91-1.32,1.33-1.91,1.08-1.54,2.22-3.34,3.44-5.25,3.65-5.71,8.19-12.82,13-16.13,6.73-4.6,14.16-9.83,14.23-9.88a2,2,0,0,0-2.3-3.27Z" style="fill:#a2aaad"/><path d="M438.43,358.11c-7.83-.22-19.55,3.13-27.9,7.94-8.9,5.14-16.19,11.77-19.51,17.74-3.61,6.51-6.07,15.66-6.28,20.41a2,2,0,0,0,1.92,2.09h.08a2,2,0,0,0,2-1.91c.19-4.32,2.55-12.84,5.78-18.65,2.93-5.28,9.84-11.5,18-16.21,7.65-4.42,18.69-7.6,25.79-7.41,5.95.16,8.74,7.23,8.77,7.3a2,2,0,0,0,3.74-1.42C450.68,367.6,447.08,358.35,438.43,358.11Z" style="fill:#a2aaad"/><path d="M342.54,412.65c2.85-4.68,5.28-5.95,10.6-8.73l1.56-.82c6.07-3.21,26.83-7.65,27-7.69a2,2,0,0,0-.83-3.91c-.88.18-21.52,4.6-28.08,8.06l-1.54.81c-2.05,1.07-3.79,2-5.34,3a82.18,82.18,0,0,0,2.59-12.13,2,2,0,0,0-4-.48c0,.15-1.79,14.33-7.74,23.94a39.26,39.26,0,0,0-4.27,9.43,2,2,0,0,0,1.42,2.45,2.32,2.32,0,0,0,.52.07,2,2,0,0,0,1.93-1.48,35.62,35.62,0,0,1,3.8-8.37,40.89,40.89,0,0,0,2.16-4A1.39,1.39,0,0,0,342.54,412.65Z" style="fill:#a2aaad"/><path d="M528,240.18c-6,5.21-15.74,10.26-29.93,15.47-10.1,3.7-23.49,9.54-36.45,15.18-7,3-13.53,5.9-19.17,8.24-11.17,4.65-27,14.08-41,22.4-6.06,3.61-11.78,7-16.14,9.43-14.05,7.77-28.72,19-35.17,24.38-6.69,5.59-7.8,11.63-7.55,15.72.07,1.25.13,2.81.18,4.32h0c.09,2.83.14,5.47.14,5.51a2,2,0,0,0,2,2h0a2,2,0,0,0,2-2c0-.11,0-1.43-.07-3.18.58,0,1.27.05,2.06.05a58.31,58.31,0,0,0,7.18-.48c7.85-1,20.32-4.51,32.53-9.28,11.35-4.43,28.71-10.83,40-14.42,9.41-3,16.16-7.53,24.69-13.28,1.8-1.21,3.67-2.47,5.66-3.78,12.71-8.35,29.7-18.22,48.45-20.46,18.33-2.19,29.59-1.15,33.48,3.09a2,2,0,1,0,3-2.71c-4.94-5.39-16.67-6.77-36.9-4.35-19.58,2.34-37.1,12.5-50.17,21.09-2,1.32-3.89,2.59-5.7,3.8-8.27,5.57-14.81,10-23.67,12.79-11.45,3.64-28.47,9.91-40.26,14.5s-24,8.12-31.56,9a46.06,46.06,0,0,1-8.88.38c0-1-.08-2-.13-2.81-.28-4.61,1.78-8.78,6.12-12.41,6.35-5.31,20.76-16.33,34.54-24,4.43-2.45,10.17-5.87,16.26-9.49,13.17-7.85,29.56-17.61,40.46-22.14,5.67-2.36,12.26-5.23,19.24-8.27,12.9-5.62,26.24-11.44,36.23-15.1,14.65-5.37,24.85-10.67,31.18-16.21,6.68-5.84,7.19-11,6.9-13.53a2,2,0,0,0-4,.45C533.72,231.54,533.5,235.37,528,240.18Z" style="fill:#a2aaad"/><path d="M541,309.33c-.12.07-12.53,6.45-18.76,8.54-1.34.45-3.16,1-5.31,1.73-8.37,2.7-21,6.78-29,10.35-9.65,4.31-15.52,8.13-25.13,16.34-8.45,7.22-12.24,8.85-12.34,8.89a2,2,0,0,0,.74,3.86,1.86,1.86,0,0,0,.73-.14c.43-.17,4.44-1.85,13.47-9.57,9.39-8,14.81-11.55,24.16-15.73,7.79-3.48,20.32-7.52,28.61-10.2,2.16-.69,4-1.29,5.35-1.74,6.52-2.19,18.81-8.5,19.32-8.77a2,2,0,1,0-1.83-3.56Z" style="fill:#a2aaad"/><path d="M313.58,308.46h0c2.6,4.39,9.35,7.11,10.11,7.41a2,2,0,0,0,.72.13,2,2,0,0,0,.73-3.86,23.8,23.8,0,0,1-6.84-4.16c4.13-2.45,13.89-8.27,21.73-13.09,9.3-5.73,33.52-19.85,49-27a275.15,275.15,0,0,1,41.66-15.26c13.88-4,34.94-10.7,44.18-13.84,7.38-2.5,17.83-6.58,24.6-11.48l.11,0a2,2,0,0,0,.78-.16c.1,0,10.45-4.37,15.75-4.55,5.59-.19,8.73,0,11.41,1.48a2,2,0,1,0,1.94-3.5c-3.48-1.94-7.27-2.19-13.48-2A42.39,42.39,0,0,0,505.46,221a7.06,7.06,0,0,0,.79-3.4,2,2,0,0,0-2.08-1.91,2,2,0,0,0-1.92,2.08c.18,4.42-11.33,11.34-28.64,17.22-9.21,3.12-30.18,9.83-44,13.78a280.25,280.25,0,0,0-42.24,15.48c-15.65,7.22-40.06,21.46-49.43,27.22-7.93,4.88-17.87,10.8-21.86,13.18a95.38,95.38,0,0,1-3.77-9,2,2,0,1,0-3.77,1.33A82.34,82.34,0,0,0,313.58,308.46Z" style="fill:#a2aaad"/><path d="M381.56,102.94c.1,0,10.53,2.55,17.89,7.14l22.77,14.19,2.12-3.39-22.77-14.19c-7.93-4.94-18.63-7.54-19.08-7.64a2,2,0,1,0-.93,3.89Z" style="fill:#a2aaad"/><path d="M245.32,296.57a2,2,0,0,0,1.59.79,2.06,2.06,0,0,0,1.22-.41,266.46,266.46,0,0,1,29.07-19.07,2,2,0,1,0-1.91-3.51,272.1,272.1,0,0,0-29.59,19.4A2,2,0,0,0,245.32,296.57Z" style="fill:#a2aaad"/><path d="M359.88,241.31a1.73,1.73,0,0,0,.45-.05c.2,0,19.93-4.63,32.54-9.31,14.55-5.39,36.32-13.06,49.83-16.92,16.47-4.71,28.64-6.72,39.46-6.54,11.85.21,19,2.82,19,2.84a2,2,0,0,0,1.42-3.74c-.31-.12-7.76-2.88-20.37-3.1-11.22-.2-23.76,1.87-40.63,6.69-13.61,3.89-35.51,11.6-50.12,17-12.36,4.59-31.85,9.12-32.05,9.16a2,2,0,0,0,.45,3.95Z" style="fill:#a2aaad"/><path d="M278.36,298a4,4,0,1,0,2.74-4.92A4,4,0,0,0,278.36,298Z" style="fill:#a2aaad"/><path d="M261.49,364.6a4,4,0,1,0,5.36,1.69A4,4,0,0,0,261.49,364.6Z" style="fill:#a2aaad"/><path d="M256.38,380.62a4,4,0,1,0,1.69-5.37A4,4,0,0,0,256.38,380.62Z" style="fill:#a2aaad"/><path d="M270.49,373.27a4,4,0,1,0,5.37,1.69A4,4,0,0,0,270.49,373.27Z" style="fill:#a2aaad"/><path d="M265.54,382.93a4,4,0,1,0,5.36,1.69A4,4,0,0,0,265.54,382.93Z" style="fill:#a2aaad"/><path d="M289.72,371.74a4,4,0,1,0-5.37-1.69A4,4,0,0,0,289.72,371.74Z" style="fill:#a2aaad"/><path d="M277.69,400a4,4,0,1,0-5.37-1.69A4,4,0,0,0,277.69,400Z" style="fill:#a2aaad"/><path d="M296.32,405.24a4,4,0,1,0-5.37-1.69A4,4,0,0,0,296.32,405.24Z" style="fill:#a2aaad"/><path d="M281.32,325.07a4,4,0,1,0-5.37-1.69A4,4,0,0,0,281.32,325.07Z" style="fill:#a2aaad"/><path d="M245,378.31a4,4,0,1,0,5.37,1.69A4,4,0,0,0,245,378.31Z" style="fill:#a2aaad"/><path d="M239.9,394.33a4,4,0,1,0,1.69-5.37A4,4,0,0,0,239.9,394.33Z" style="fill:#a2aaad"/><path d="M254,387a4,4,0,1,0,5.37,1.69A4,4,0,0,0,254,387Z" style="fill:#a2aaad"/><path d="M249.06,396.64a4,4,0,1,0,5.36,1.69A4,4,0,0,0,249.06,396.64Z" style="fill:#a2aaad"/><path d="M261,396a4,4,0,1,0,5.36,1.69A4,4,0,0,0,261,396Z" style="fill:#a2aaad"/><path d="M261.21,413.71a4,4,0,1,0-5.36-1.69A4,4,0,0,0,261.21,413.71Z" style="fill:#a2aaad"/><path d="M282.22,415.85a4,4,0,1,0-5.36-1.69A4,4,0,0,0,282.22,415.85Z" style="fill:#a2aaad"/><path d="M268.68,421.39a4,4,0,1,0-5.37-1.69A4,4,0,0,0,268.68,421.39Z" style="fill:#a2aaad"/><path d="M241.17,407.34a4,4,0,1,0-5.36-1.69A4,4,0,0,0,241.17,407.34Z" style="fill:#a2aaad"/><path d="M237.75,418a4,4,0,1,0-5.36-1.69A4,4,0,0,0,237.75,418Z" style="fill:#a2aaad"/><path d="M246.5,409a4,4,0,1,0,5.37,1.69A4,4,0,0,0,246.5,409Z" style="fill:#a2aaad"/><path d="M245.22,425.68a4,4,0,1,0-5.37-1.69A4,4,0,0,0,245.22,425.68Z" style="fill:#a2aaad"/><path d="M258.81,419.66a4,4,0,1,0-1.69,5.37A4,4,0,0,0,258.81,419.66Z" style="fill:#a2aaad"/><path d="M253.7,435.68a4,4,0,1,0-5.37-1.69A4,4,0,0,0,253.7,435.68Z" style="fill:#a2aaad"/><path d="M291.72,428a4,4,0,1,0-5.36-1.69A4,4,0,0,0,291.72,428Z" style="fill:#a2aaad"/><path d="M270.66,441.4a4,4,0,1,0-5.37-1.69A4,4,0,0,0,270.66,441.4Z" style="fill:#a2aaad"/><path d="M233.7,429.72a4,4,0,1,0-5.37-1.69A4,4,0,0,0,233.7,429.72Z" style="fill:#a2aaad"/><path d="M225.07,432.33a4,4,0,1,0,5.36,1.69A4,4,0,0,0,225.07,432.33Z" style="fill:#a2aaad"/><path d="M240.64,438.74a4,4,0,1,0-5.37-1.69A4,4,0,0,0,240.64,438.74Z" style="fill:#a2aaad"/><path d="M234.9,455.76a4,4,0,1,0-5.36-1.69A4,4,0,0,0,234.9,455.76Z" style="fill:#a2aaad"/><path d="M249.65,447.41a4,4,0,1,0-5.37-1.69A4,4,0,0,0,249.65,447.41Z" style="fill:#a2aaad"/><path d="M283,347.92a4,4,0,1,0,1.69-5.37A4,4,0,0,0,283,347.92Z" style="fill:#a2aaad"/><path d="M295.61,323.82a4,4,0,1,0-4.92-2.73A4,4,0,0,0,295.61,323.82Z" style="fill:#a2aaad"/></svg>
