<svg xmlns="http://www.w3.org/2000/svg" viewBox="0 0 640 640"><title>massage_face_wash_howto_02</title><path d="M48,101.5a51.24,51.24,0,0,1,1.9-14.2,55.93,55.93,0,0,1,5.4-12.8,51.71,51.71,0,0,1,8.3-10.8,54.11,54.11,0,0,1,10.8-8.4,55.93,55.93,0,0,1,12.8-5.4,54,54,0,0,1,28.4,0,55.93,55.93,0,0,1,12.8,5.4,49,49,0,0,1,10.8,8.4,53.6,53.6,0,0,1,8.3,10.8,55.93,55.93,0,0,1,5.4,12.8,54,54,0,0,1,0,28.4,55.93,55.93,0,0,1-5.4,12.8,51.71,51.71,0,0,1-8.3,10.8,53.6,53.6,0,0,1-10.8,8.3,55.93,55.93,0,0,1-12.8,5.4,54,54,0,0,1-28.4,0,55.93,55.93,0,0,1-12.8-5.4,51.71,51.71,0,0,1-10.8-8.3,53.6,53.6,0,0,1-8.3-10.8,55.93,55.93,0,0,1-5.4-12.8A51.24,51.24,0,0,1,48,101.5Zm5,0a50.74,50.74,0,0,0,1.7,12.9A51.83,51.83,0,0,0,59.6,126a45.18,45.18,0,0,0,7.6,9.8,47.72,47.72,0,0,0,9.8,7.6,49.94,49.94,0,0,0,11.6,4.9,45.66,45.66,0,0,0,12.9,1.7,49.58,49.58,0,0,0,12.9-1.7,51.83,51.83,0,0,0,11.6-4.9,47.72,47.72,0,0,0,9.8-7.6,48.21,48.21,0,0,0,12.5-21.4,45.66,45.66,0,0,0,1.7-12.9,49.58,49.58,0,0,0-1.7-12.9A51.83,51.83,0,0,0,143.4,77,49.43,49.43,0,0,0,126,59.6a49.94,49.94,0,0,0-11.6-4.9A45.66,45.66,0,0,0,101.5,53a49.58,49.58,0,0,0-12.9,1.7A51.83,51.83,0,0,0,77,59.6a45.18,45.18,0,0,0-9.8,7.6A47.72,47.72,0,0,0,59.6,77a49.94,49.94,0,0,0-4.9,11.6A45.66,45.66,0,0,0,53,101.5ZM115.3,115a3.34,3.34,0,0,1,2.7,1,3.62,3.62,0,0,1,1,2.7v6.7H84.4v-3.7a6.31,6.31,0,0,1,1.9-4.6l13.1-14.3c1.1-1.2,2.2-2.4,3.1-3.5s1.8-2.2,2.6-3.3a16.56,16.56,0,0,0,1.7-3.2,9.74,9.74,0,0,0,.6-3.4,5.36,5.36,0,0,0-1.6-4.2,5.92,5.92,0,0,0-4.3-1.5,6,6,0,0,0-3.6,1.2,6.06,6.06,0,0,0-2.3,3.8,3.12,3.12,0,0,1-1.7,2,5,5,0,0,1-3.3.2l-5.8-1.4A18.89,18.89,0,0,1,87,82.8a15.36,15.36,0,0,1,4-4.7,15,15,0,0,1,5.3-2.8,21.13,21.13,0,0,1,6.2-.9,19.26,19.26,0,0,1,6.5,1.1,16.19,16.19,0,0,1,5.1,3.1,14.27,14.27,0,0,1,3.3,4.7,14.48,14.48,0,0,1,1.2,5.9,12.22,12.22,0,0,1-1,5.1,19.85,19.85,0,0,1-2.5,4.5,32.13,32.13,0,0,1-3.4,4.1l-3.7,4-8.5,9.5c1.3-.4,2.5-.7,3.7-1a22.27,22.27,0,0,1,3.4-.4Z"/><path d="M112.06,448.26a2,2,0,0,0-2.22,1.75,78.8,78.8,0,0,1-6.1,21.46c-.48,1.14-.88,2.12-1.18,2.93-1.06,2.93-8.38,22.9-15.22,40.94-6.5,17.14-9.24,26.92-9.27,27a2,2,0,1,0,3.86,1.07c0-.09,2.71-9.69,9.15-26.66,6.33-16.7,13.49-36.16,15.24-41,.27-.73.66-1.68,1.11-2.77a82.24,82.24,0,0,0,6.38-22.52A2,2,0,0,0,112.06,448.26Z" style="fill:#a2aaad"/><path d="M203.3,141.09a19.87,19.87,0,0,1,1-8.2,2,2,0,0,0-3.71-1.49,23.7,23.7,0,0,0-1.29,10c.82,8.92-3.37,28.45-5.84,35.69s-7.66,17.74-12.21,23.18c-5.12,6.14-5.51,12-5.92,18.2l0,.78c-.31,4.52-1.56,10-2.89,15.89-.47,2-.94,4.13-1.4,6.27-1.16,5.41-5,15.93-8.39,25.21-1.85,5.09-3.61,9.9-4.86,13.68-3.4,10.22-11.67,31.64-16.16,40.29-4.63,8.93-16.53,35.15-21.95,48.37-5.77,14.06-9.49,36.24-10.47,46.92-1,11.05,2.49,23.7,2.64,24.23a2,2,0,1,0,3.85-1.09c0-.12-3.47-12.45-2.51-22.77s4.59-32.11,10.19-45.77c5.84-14.24,17.61-40,21.81-48,4.56-8.81,13-30.53,16.39-40.87,1.24-3.73,3-8.51,4.83-13.57,3.6-9.86,7.32-20.06,8.54-25.74.45-2.13.93-4.21,1.39-6.22,1.36-6,2.65-11.68,3-16.51l.05-.78c.38-5.78.71-10.77,5-15.9,5-6,10.42-17.1,12.93-24.46C199.5,171.88,204.24,151.28,203.3,141.09Z" style="fill:#a2aaad"/><path d="M218.16,136s3.86,1.43,8.54,11.36c5.21,11.09,5.85,17.9,6.65,26.53.78,8.45-2.57,20.46-4.66,24.82l-.81,1.64c-2.54,5.07-6.78,13.54-6.52,23.05.19,6.94-.79,18.21-1.5,26.44-.32,3.71-.6,6.91-.71,9-.06,1.17-.13,2.15-.19,3-.29,4.22-.3,5.39,1.43,9.84s10.45,28.42,6.8,49.49a2,2,0,0,0,1.63,2.32,2.07,2.07,0,0,0,.35,0,2,2,0,0,0,2-1.66c3.82-22.12-5.18-46.89-7-51.63-1.47-3.79-1.43-4.36-1.17-8.11.06-.85.13-1.85.19-3,.11-2,.38-5.18.7-8.85.72-8.33,1.71-19.73,1.52-26.89-.23-8.51,3.73-16.43,6.09-21.16.32-.62.6-1.19.84-1.7,2.14-4.43,5.93-17.3,5-26.92-.84-9-1.5-16.14-7-27.86-5.44-11.55-10.2-13.28-11.09-13.51a2,2,0,0,0-2.48,1.43A2,2,0,0,0,218.16,136Z" style="fill:#a2aaad"/><path d="M180,525.68c-21.37-4.18-25.9-21.4-26.08-22.13a2,2,0,0,0-3.89,1c.21.83,5.25,20.41,29.2,25.09a1.72,1.72,0,0,0,.39,0,2,2,0,0,0,.38-4Z" style="fill:#a2aaad"/><path d="M338.14,442c-.07.08-7.08,7.84-13.86,13.94-3.11,2.78-5.56,4.71-10,8.21-1.81,1.42-3.94,3.1-6.58,5.2-8.92,7.1-31.75,20.13-45.11,27.12-5.47,2.86-9.8,5.39-14.39,8.07-6.25,3.65-12.71,7.42-22.72,12.4-16.6,8.26-25,8.86-25.07,8.86a2,2,0,0,0,.1,4h.11a32.65,32.65,0,0,0,5.62-1,115.63,115.63,0,0,0-6.34,11.59c-3.57,7.41-4.23,10.83-4.87,14.14a44.62,44.62,0,0,1-1.17,5,2,2,0,0,0,1.34,2.49,2.38,2.38,0,0,0,.58.08,2,2,0,0,0,1.91-1.43A51.25,51.25,0,0,0,199,555.2c.62-3.2,1.2-6.23,4.54-13.17a96.66,96.66,0,0,1,8.82-15.17,128.67,128.67,0,0,0,15-6.39c10.12-5,16.64-8.84,22.95-12.53,4.54-2.65,8.84-5.15,14.22-8,13.5-7.07,36.63-20.28,45.75-27.54l6.56-5.19c4.51-3.55,7-5.5,10.2-8.38,6.94-6.23,14.09-14.16,14.16-14.23a2,2,0,1,0-3-2.68Z" style="fill:#a2aaad"/><path d="M453.88,340.65c-.08.06-8,6.37-15.21,12-5.86,4.54-10.7,13.2-14.58,20.16-1.21,2.17-2.35,4.22-3.41,5.94-.43.69-.89,1.44-1.37,2.24C415,388,407.83,399.82,402,403.36c-2.85,1.74-7.26,3.46-12.35,5.46-6.69,2.63-15,5.89-23.05,10.49-14.1,8.06-19.61,14.28-19.84,14.54a2,2,0,0,0,3,2.64c.05-.06,5.38-6,18.81-13.71a166.53,166.53,0,0,1,22.53-10.23c5.27-2.07,9.82-3.86,13-5.76,6.68-4.05,13.89-15.92,18.67-23.77.48-.79.93-1.54,1.36-2.23,1.1-1.79,2.26-3.87,3.49-6.08,3.71-6.64,8.33-14.91,13.54-18.95,7.22-5.59,15.17-11.92,15.25-12a2,2,0,1,0-2.49-3.13Z" style="fill:#a2aaad"/><path d="M447.9,318.59h-.42c-8.71.27-21.55,4.76-30.52,10.67-9.57,6.3-17.25,14.15-20.54,21-3.59,7.48-5.73,17.83-5.64,23.12a2,2,0,0,0,2,2h0a2,2,0,0,0,2-2c-.08-4.85,2-14.58,5.25-21.31,2.94-6.14,10.28-13.57,19.13-19.4,8.29-5.46,20.52-9.76,28.44-10,6.81-.22,10.46,7.62,10.51,7.71a2,2,0,1,0,3.65-1.63C461.57,328.26,457.14,318.59,447.9,318.59Z" style="fill:#a2aaad"/><path d="M355.1,375l1.68-1c6.6-4,29.52-10.33,29.76-10.4a2,2,0,0,0-1.07-3.85c-1,.26-23.69,6.55-30.77,10.83l-1.66,1a63.69,63.69,0,0,0-6.28,4.09A92,92,0,0,0,349,361.29a2,2,0,1,0-4-.25c0,.16-1.06,16.18-7.1,27.35a43.46,43.46,0,0,0-4.12,10.75,2,2,0,0,0,1.56,2.36,1.81,1.81,0,0,0,.4,0,2,2,0,0,0,2-1.6,39.79,39.79,0,0,1,3.72-9.65,45.59,45.59,0,0,0,2.15-4.58c.05-.07.11-.13.16-.21C346.64,380,349.29,378.43,355.1,375Z" style="fill:#a2aaad"/><path d="M539.93,180.88c-6.33,6.23-17,12.54-32.49,19.3-11,4.8-25.6,12.2-39.7,19.36C460.16,223.38,453,227,446.86,230c-12.16,5.92-29.22,17.49-44.27,27.7-6.53,4.43-12.7,8.62-17.42,11.61-15.17,9.59-30.81,23.07-37.65,29.52-7,6.62-7.86,13.37-7.33,17.86.17,1.4.34,3.14.5,4.82v.05c.29,3.15.52,6.07.52,6.12a2,2,0,0,0,2,1.85h.16a2,2,0,0,0,1.84-2.15c0-.13-.14-1.73-.32-3.81h.18a59,59,0,0,0,10.33-1.08c8.69-1.59,22.36-6.38,35.67-12.5,12.39-5.7,31.37-14,43.77-18.75,10.28-3.95,17.5-9.46,26.65-16.44,1.93-1.47,3.93-3,6.07-4.59,13.67-10.18,32-22.35,52.88-26.1,20.41-3.67,33.13-3.23,37.81,1.3a2,2,0,1,0,2.79-2.87c-5.82-5.63-18.95-6.39-41.31-2.37-21.66,3.9-40.54,16.39-54.56,26.83-2.15,1.6-4.17,3.14-6.11,4.62-8.89,6.78-15.91,12.14-25.65,15.88-12.55,4.82-31.14,12.94-44,18.85-13,6-26.33,10.67-34.72,12.2a51.91,51.91,0,0,1-10.15,1c-.12-1.18-.24-2.34-.36-3.34-.62-5.21,1.43-10.08,6.1-14.47,6.74-6.36,22.13-19.63,37-29.06,4.78-3,11-7.23,17.53-11.68,14.21-9.63,31.88-21.62,43.78-27.41,6.18-3,13.35-6.65,20.94-10.51C483.6,216,498.12,208.6,509,203.85c16-7,27-13.54,33.69-20.12,7.26-7.14,7.14-13.12,6.75-15.36a2,2,0,0,0-3.94.68C545.82,170.67,545.84,175.07,539.93,180.88Z" style="fill:#a2aaad"/><path d="M561.72,258a2,2,0,0,0-2.74-.7c-.13.08-13.59,8-20.43,10.79-1.46.59-3.46,1.36-5.8,2.28-9.18,3.56-23,8.95-31.72,13.47-10.47,5.44-16.77,10.08-26.94,19.87-9,8.66-13.16,10.73-13.26,10.79a2,2,0,0,0,.84,3.81,2.08,2.08,0,0,0,.84-.18c.18-.09,4.64-2.19,14.35-11.54,10-9.6,15.81-13.91,26-19.21,8.49-4.41,22.23-9.75,31.32-13.29,2.37-.91,4.38-1.7,5.85-2.29,7.12-2.87,20.42-10.73,21-11.06A2,2,0,0,0,561.72,258Z" style="fill:#a2aaad"/><path d="M509.76,157.37c.5,5-12,13.62-31,21.37-10.08,4.1-33.07,13-48.25,18.3a312.3,312.3,0,0,0-46.14,20.06c-17,9.09-43.31,26.6-53.4,33.65-8.69,6.08-19.62,13.5-23.78,16.31a105.81,105.81,0,0,1-4.94-10.1,2,2,0,1,0-3.68,1.55A89.84,89.84,0,0,0,304.93,271c3.21,4.74,11.32,7.4,11.66,7.51a1.91,1.91,0,0,0,.62.1,2,2,0,0,0,.61-3.9,26.62,26.62,0,0,1-8.22-4.45c4.29-2.91,15.06-10.22,23.65-16.23,10-7,36.17-24.4,53-33.4a307.76,307.76,0,0,1,45.57-19.82c15.25-5.34,38.32-14.25,48.44-18.37,8.08-3.28,19.53-8.54,26.74-14.45h.06a2,2,0,0,0,.88-.2c.12-.06,11.42-5.6,17.38-6.15,6.29-.58,9.83-.59,13,.92A2,2,0,0,0,540,159c-4-1.91-8.19-1.93-15.08-1.29-3.45.32-8.22,2-12.09,3.57a7.94,7.94,0,0,0,.88-4.27,2,2,0,0,0-4,.4Z" style="fill:#a2aaad"/><path d="M227.87,262.19a2,2,0,0,0,1.51.69,2,2,0,0,0,1.32-.5c.1-.08,10.35-9,23.08-17.82a2,2,0,0,0-2.28-3.29c-12.91,8.94-23.33,18-23.43,18.1A2,2,0,0,0,227.87,262.19Z" style="fill:#a2aaad"/><path d="M295.44,219.93a2,2,0,0,0,1-.26c.39-.22,38.69-22,56-26.93.22-.06,22-6.48,35.71-12.53,15.89-7,39.72-17,54.56-22.2,18.11-6.35,31.6-9.41,43.73-9.92C499.77,147.54,507.9,150,508,150a2,2,0,0,0,1.19-3.82c-.35-.11-8.82-2.69-22.88-2.1-12.54.52-26.38,3.64-44.88,10.13-15,5.25-38.89,15.3-54.85,22.32-13.53,5.94-35,12.29-35.21,12.35-17.79,5-55.32,26.39-56.91,27.29a2,2,0,0,0,1,3.74Z" style="fill:#a2aaad"/><path d="M285.84,356.35a4.46,4.46,0,1,0-2.73,5.67A4.46,4.46,0,0,0,285.84,356.35Z" style="fill:#a2aaad"/><path d="M250.23,337.27a4.45,4.45,0,1,0,6.11,1.53A4.45,4.45,0,0,0,250.23,337.27Z" style="fill:#a2aaad"/><path d="M253.22,350.93a4.45,4.45,0,1,0-1.53,6.11A4.46,4.46,0,0,0,253.22,350.93Z" style="fill:#a2aaad"/><path d="M270.67,358a4.45,4.45,0,1,0-6.11-1.54A4.46,4.46,0,0,0,270.67,358Z" style="fill:#a2aaad"/><path d="M254.43,363.59a4.45,4.45,0,1,0,1.53-6.1A4.45,4.45,0,0,0,254.43,363.59Z" style="fill:#a2aaad"/><path d="M283.92,341.58a4.45,4.45,0,1,0-6.11-1.53A4.45,4.45,0,0,0,283.92,341.58Z" style="fill:#a2aaad"/><path d="M270.67,375.75a4.45,4.45,0,1,0-6.11-1.54A4.46,4.46,0,0,0,270.67,375.75Z" style="fill:#a2aaad"/><path d="M285.71,378.84a4.46,4.46,0,1,0,1.54-6.11A4.45,4.45,0,0,0,285.71,378.84Z" style="fill:#a2aaad"/><path d="M232.73,353.67a4.45,4.45,0,1,0,6.1,1.54A4.46,4.46,0,0,0,232.73,353.67Z" style="fill:#a2aaad"/><path d="M228.07,371.91a4.46,4.46,0,1,0,1.54-6.11A4.45,4.45,0,0,0,228.07,371.91Z" style="fill:#a2aaad"/><path d="M241.82,368.87a4.45,4.45,0,1,0,1.54-6.11A4.45,4.45,0,0,0,241.82,368.87Z" style="fill:#a2aaad"/><path d="M238.46,373.89a4.45,4.45,0,1,0,6.1,1.53A4.46,4.46,0,0,0,238.46,373.89Z" style="fill:#a2aaad"/><path d="M250.17,378.49a4.45,4.45,0,1,0,1.54-6.11A4.46,4.46,0,0,0,250.17,378.49Z" style="fill:#a2aaad"/><path d="M254.69,386a4.45,4.45,0,1,0-1.53,6.11A4.44,4.44,0,0,0,254.69,386Z" style="fill:#a2aaad"/><path d="M270.67,391.62a4.45,4.45,0,1,0,1.53-6.1A4.45,4.45,0,0,0,270.67,391.62Z" style="fill:#a2aaad"/><path d="M257.44,392.6a4.45,4.45,0,1,0,6.1,1.53A4.45,4.45,0,0,0,257.44,392.6Z" style="fill:#a2aaad"/><path d="M224.25,384.83a4.45,4.45,0,1,0,1.53-6.11A4.44,4.44,0,0,0,224.25,384.83Z" style="fill:#a2aaad"/><path d="M221.13,397a4.45,4.45,0,1,0,1.53-6.11A4.46,4.46,0,0,0,221.13,397Z" style="fill:#a2aaad"/><path d="M236.41,387.81a4.45,4.45,0,1,0,6.11,1.53A4.45,4.45,0,0,0,236.41,387.81Z" style="fill:#a2aaad"/><path d="M237.62,400.47a4.45,4.45,0,1,0-1.54,6.11A4.46,4.46,0,0,0,237.62,400.47Z" style="fill:#a2aaad"/><path d="M250.87,399a4.45,4.45,0,1,0-1.54,6.11A4.45,4.45,0,0,0,250.87,399Z" style="fill:#a2aaad"/><path d="M247.75,411.09a4.45,4.45,0,1,0-1.53,6.11A4.45,4.45,0,0,0,247.75,411.09Z" style="fill:#a2aaad"/><path d="M288.19,406.15a4.45,4.45,0,1,0-6.11-1.54A4.46,4.46,0,0,0,288.19,406.15Z" style="fill:#a2aaad"/><path d="M261,414.82a4.46,4.46,0,1,0,6.11,1.54A4.46,4.46,0,0,0,261,414.82Z" style="fill:#a2aaad"/><path d="M217.37,410.32a4.45,4.45,0,1,0,1.54-6.11A4.45,4.45,0,0,0,217.37,410.32Z" style="fill:#a2aaad"/><path d="M218.58,423a4.45,4.45,0,1,0-6.11-1.54A4.45,4.45,0,0,0,218.58,423Z" style="fill:#a2aaad"/><path d="M231.83,421.47a4.45,4.45,0,1,0-6.11-1.53A4.45,4.45,0,0,0,231.83,421.47Z" style="fill:#a2aaad"/><path d="M220.43,439.33a4.45,4.45,0,1,0,1.54-6.11A4.46,4.46,0,0,0,220.43,439.33Z" style="fill:#a2aaad"/><path d="M242.46,430.56a4.45,4.45,0,1,0-6.11-1.53A4.45,4.45,0,0,0,242.46,430.56Z" style="fill:#a2aaad"/><path d="M250.05,324.75a4.45,4.45,0,1,0-1.54,6.11A4.45,4.45,0,0,0,250.05,324.75Z" style="fill:#a2aaad"/><path d="M296.91,358.39a4.46,4.46,0,1,0-5.68-2.73A4.46,4.46,0,0,0,296.91,358.39Z" style="fill:#a2aaad"/><path d="M266.87,351.21a10,10,0,0,1-6.78-2.36c-2.87-2.5-4.23-6.89-3.84-12.36a88.05,88.05,0,0,1,3.9-20.11,2,2,0,0,1,2.54-1.24,2,2,0,0,1,1.24,2.54,83,83,0,0,0-3.69,19.1c-.29,4.12.61,7.42,2.48,9.06,1.53,1.33,3.83,1.69,6.85,1.06a7,7,0,0,0,4.81-3.11c3-4.82,1-14.66-1-22.7-2.3-9.06-4.37-10.78-4.81-11a2,2,0,0,1-2.05-1.26,2,2,0,0,1,1.14-2.59,3.23,3.23,0,0,1,2.68.27c2.67,1.37,4.93,5.83,6.92,13.64,2.38,9.36,4.3,19.74.52,25.8a10.91,10.91,0,0,1-7.38,4.91A16.6,16.6,0,0,1,266.87,351.21Zm2.23-41.29Zm0,0Zm0,0Zm8.65-109.55A10,10,0,0,1,271,198c-2.86-2.5-4.22-6.89-3.83-12.36A87.83,87.83,0,0,1,271,165.53a2,2,0,0,1,3.78,1.3,83.45,83.45,0,0,0-3.68,19.1c-.3,4.12.6,7.43,2.48,9.06,1.53,1.34,3.83,1.69,6.85,1.06a7,7,0,0,0,4.8-3.11c3-4.82,1-14.66-1-22.7-2.3-9.06-4.37-10.77-4.81-11.05a2,2,0,0,1-.9-3.85,3.27,3.27,0,0,1,2.68.27c2.66,1.37,4.93,5.83,6.91,13.64,2.38,9.36,4.31,19.74.53,25.8a11,11,0,0,1-7.38,4.92A17.4,17.4,0,0,1,277.75,200.36ZM280,159.07Zm0,0h0Zm0,0Zm.36,134.64a7.68,7.68,0,0,1-5.22-1.8c-2.17-1.9-3.21-5.18-2.92-9.24A63.13,63.13,0,0,1,275,268.28a2,2,0,1,1,3.78,1.3A58.59,58.59,0,0,0,276.2,283c-.19,2.74.37,4.9,1.56,5.94.94.81,2.4,1,4.35.61a4.32,4.32,0,0,0,3-1.94c2-3.22.63-10-.79-15.62s-2.66-7-3-7.38a2,2,0,0,1-.65-3.86,2.88,2.88,0,0,1,2.37.21c2.05,1.06,3.75,4.34,5.2,10,1.8,7.09,3.09,14.26.3,18.73a8.29,8.29,0,0,1-5.6,3.74A12.43,12.43,0,0,1,280.35,293.71Zm1.76-29.27h0ZM270.16,248a8.29,8.29,0,0,0,5.6-3.74c2.78-4.47,1.5-11.64-.31-18.73-1.45-5.7-3.15-9-5.19-10a2.91,2.91,0,0,0-2.38-.21,2,2,0,0,0,.66,3.86c.37.35,1.64,1.87,3,7.38s2.79,12.4.78,15.62a4.34,4.34,0,0,1-3,2c-1.94.4-3.41.2-4.34-.62-1.19-1-1.76-3.2-1.56-5.94A58.06,58.06,0,0,1,266,224.11a2,2,0,1,0-3.78-1.3,62.6,62.6,0,0,0-2.79,14.4c-.29,4,.74,7.33,2.91,9.23a7.66,7.66,0,0,0,5.23,1.8A12.5,12.5,0,0,0,270.16,248Z"/></svg>
